<?xml version="1.0" encoding="UTF-8" standalone="no"?>
<!DOCTYPE svg PUBLIC "-//W3C//DTD SVG 1.1//EN"
 "http://www.w3.org/Graphics/SVG/1.1/DTD/svg11.dtd">
<!-- Generated by graphviz version 2.43.0 (0)
 -->
<!-- Title: %3 Pages: 1 -->
<svg width="800pt" height="98pt"
 viewBox="0.00 0.00 800.00 98.00" xmlns="http://www.w3.org/2000/svg" xmlns:xlink="http://www.w3.org/1999/xlink">
<g id="graph0" class="graph" transform="scale(1 1) rotate(0) translate(4 94)">
<title>%3</title>
<polygon fill="white" stroke="transparent" points="-4,4 -4,-94 796,-94 796,4 -4,4"/>
<!-- 140662936906832 -->
<g id="node1" class="node">
<title>140662936906832</title>
<ellipse fill="green" stroke="black" cx="18" cy="-45" rx="18" ry="18"/>
</g>
<!-- 140662937030176 -->
<g id="node2" class="node">
<title>140662937030176</title>
<polygon fill="none" stroke="black" points="223,-63 72,-63 72,-27 223,-27 223,-63"/>
<text text-anchor="middle" x="147.5" y="-41.9" font-family="Times,serif" font-size="12.00">INQ transmits request</text>
</g>
<!-- 140662936906832&#45;&gt;140662937030176 -->
<g id="edge1" class="edge">
<title>140662936906832&#45;&gt;140662937030176</title>
<path fill="none" stroke="black" d="M36.2,-45C43.31,-45 52.12,-45 61.64,-45"/>
<polygon fill="black" stroke="black" points="61.78,-48.5 71.78,-45 61.78,-41.5 61.78,-48.5"/>
</g>
<!-- 140662937038336 -->
<g id="node3" class="node">
<title>140662937038336</title>
<polygon fill="none" stroke="black" points="382,-63 259,-63 259,-27 382,-27 382,-63"/>
<text text-anchor="middle" x="320.5" y="-41.9" font-family="Times,serif" font-size="12.00">IP checks request</text>
</g>
<!-- 140662937030176&#45;&gt;140662937038336 -->
<g id="edge2" class="edge">
<title>140662937030176&#45;&gt;140662937038336</title>
<path fill="none" stroke="black" d="M223.01,-45C231.52,-45 240.17,-45 248.63,-45"/>
<polygon fill="black" stroke="black" points="248.83,-48.5 258.83,-45 248.83,-41.5 248.83,-48.5"/>
</g>
<!-- 140662937042704 -->
<g id="node4" class="node">
<title>140662937042704</title>
<polygon fill="none" stroke="black" points="445,-63 418,-45 445,-27 472,-45 445,-63"/>
<text text-anchor="middle" x="445" y="-41.9" font-family="Times,serif" font-size="12.00">X</text>
</g>
<!-- 140662937038336&#45;&gt;140662937042704 -->
<g id="edge3" class="edge">
<title>140662937038336&#45;&gt;140662937042704</title>
<path fill="none" stroke="black" d="M382.03,-45C390.83,-45 399.66,-45 407.77,-45"/>
<polygon fill="black" stroke="black" points="407.97,-48.5 417.97,-45 407.97,-41.5 407.97,-48.5"/>
</g>
<!-- 140662937032912 -->
<g id="node5" class="node">
<title>140662937032912</title>
<polygon fill="none" stroke="black" points="629.5,-90 508.5,-90 508.5,-54 629.5,-54 629.5,-90"/>
<text text-anchor="middle" x="569" y="-68.9" font-family="Times,serif" font-size="12.00">IP transmits data</text>
</g>
<!-- 140662937042704&#45;&gt;140662937032912 -->
<g id="edge4" class="edge">
<title>140662937042704&#45;&gt;140662937032912</title>
<path fill="none" stroke="black" d="M465.6,-49.34C474.76,-51.36 486.27,-53.91 498.24,-56.56"/>
<polygon fill="black" stroke="black" points="497.85,-60.06 508.37,-58.8 499.36,-53.22 497.85,-60.06"/>
</g>
<!-- 140662937030800 -->
<g id="node6" class="node">
<title>140662937030800</title>
<polygon fill="none" stroke="black" points="630,-36 508,-36 508,0 630,0 630,-36"/>
<text text-anchor="middle" x="569" y="-14.9" font-family="Times,serif" font-size="12.00">IP rejects request</text>
</g>
<!-- 140662937042704&#45;&gt;140662937030800 -->
<g id="edge5" class="edge">
<title>140662937042704&#45;&gt;140662937030800</title>
<path fill="none" stroke="black" d="M465.6,-40.66C474.65,-38.66 486.01,-36.15 497.83,-33.53"/>
<polygon fill="black" stroke="black" points="498.82,-36.89 507.83,-31.32 497.31,-30.06 498.82,-36.89"/>
</g>
<!-- 140662937032768 -->
<g id="node7" class="node">
<title>140662937032768</title>
<polygon fill="none" stroke="black" points="693,-63 666,-45 693,-27 720,-45 693,-63"/>
<text text-anchor="middle" x="693" y="-41.9" font-family="Times,serif" font-size="12.00">X</text>
</g>
<!-- 140662937032912&#45;&gt;140662937032768 -->
<g id="edge6" class="edge">
<title>140662937032912&#45;&gt;140662937032768</title>
<path fill="none" stroke="black" d="M629.57,-58.82C641.06,-56.27 652.62,-53.71 662.62,-51.5"/>
<polygon fill="black" stroke="black" points="663.39,-54.92 672.4,-49.34 661.88,-48.08 663.39,-54.92"/>
</g>
<!-- 140662937030800&#45;&gt;140662937032768 -->
<g id="edge7" class="edge">
<title>140662937030800&#45;&gt;140662937032768</title>
<path fill="none" stroke="black" d="M630.29,-31.34C641.48,-33.82 652.71,-36.31 662.47,-38.46"/>
<polygon fill="black" stroke="black" points="661.88,-41.92 672.4,-40.66 663.39,-35.08 661.88,-41.92"/>
</g>
<!-- 140662936897712 -->
<g id="node8" class="node">
<title>140662936897712</title>
<ellipse fill="orange" stroke="black" cx="774" cy="-45" rx="18" ry="18"/>
</g>
<!-- 140662937032768&#45;&gt;140662936897712 -->
<g id="edge8" class="edge">
<title>140662937032768&#45;&gt;140662936897712</title>
<path fill="none" stroke="black" d="M720.31,-45C728.42,-45 737.37,-45 745.56,-45"/>
<polygon fill="black" stroke="black" points="745.75,-48.5 755.75,-45 745.75,-41.5 745.75,-48.5"/>
</g>
</g>
</svg>
