<?xml version="1.0" encoding="UTF-8" standalone="no"?>
<!DOCTYPE svg PUBLIC "-//W3C//DTD SVG 1.1//EN"
 "http://www.w3.org/Graphics/SVG/1.1/DTD/svg11.dtd">
<!-- Generated by graphviz version 2.43.0 (0)
 -->
<!-- Title: %3 Pages: 1 -->
<svg width="1093pt" height="98pt"
 viewBox="0.00 0.00 1093.00 98.00" xmlns="http://www.w3.org/2000/svg" xmlns:xlink="http://www.w3.org/1999/xlink">
<g id="graph0" class="graph" transform="scale(1 1) rotate(0) translate(4 94)">
<title>%3</title>
<polygon fill="white" stroke="transparent" points="-4,4 -4,-94 1089,-94 1089,4 -4,4"/>
<!-- 140662936907360 -->
<g id="node1" class="node">
<title>140662936907360</title>
<ellipse fill="green" stroke="black" cx="18" cy="-45" rx="18" ry="18"/>
</g>
<!-- 140662936908944 -->
<g id="node2" class="node">
<title>140662936908944</title>
<polygon fill="none" stroke="black" points="404,-63 72,-63 72,-27 404,-27 404,-63"/>
<text text-anchor="middle" x="238" y="-41.9" font-family="Times,serif" font-size="12.00">INQ transmits the transaction data request to the IP</text>
</g>
<!-- 140662936907360&#45;&gt;140662936908944 -->
<g id="edge1" class="edge">
<title>140662936907360&#45;&gt;140662936908944</title>
<path fill="none" stroke="black" d="M36.11,-45C43.03,-45 51.74,-45 61.62,-45"/>
<polygon fill="black" stroke="black" points="61.88,-48.5 71.88,-45 61.88,-41.5 61.88,-48.5"/>
</g>
<!-- 140662936908272 -->
<g id="node3" class="node">
<title>140662936908272</title>
<polygon fill="none" stroke="black" points="652,-63 440,-63 440,-27 652,-27 652,-63"/>
<text text-anchor="middle" x="546" y="-41.9" font-family="Times,serif" font-size="12.00">IP checks the request of the INQ</text>
</g>
<!-- 140662936908944&#45;&gt;140662936908272 -->
<g id="edge2" class="edge">
<title>140662936908944&#45;&gt;140662936908272</title>
<path fill="none" stroke="black" d="M404.09,-45C412.72,-45 421.3,-45 429.71,-45"/>
<polygon fill="black" stroke="black" points="429.89,-48.5 439.89,-45 429.89,-41.5 429.89,-48.5"/>
</g>
<!-- 140662936908320 -->
<g id="node4" class="node">
<title>140662936908320</title>
<polygon fill="none" stroke="black" points="715,-63 688,-45 715,-27 742,-45 715,-63"/>
<text text-anchor="middle" x="715" y="-41.9" font-family="Times,serif" font-size="12.00">X</text>
</g>
<!-- 140662936908272&#45;&gt;140662936908320 -->
<g id="edge3" class="edge">
<title>140662936908272&#45;&gt;140662936908320</title>
<path fill="none" stroke="black" d="M652.29,-45C661.34,-45 670.01,-45 677.86,-45"/>
<polygon fill="black" stroke="black" points="678,-48.5 688,-45 678,-41.5 678,-48.5"/>
</g>
<!-- 140662936905776 -->
<g id="node5" class="node">
<title>140662936905776</title>
<polygon fill="none" stroke="black" points="922,-90 779,-90 779,-54 922,-54 922,-90"/>
<text text-anchor="middle" x="850.5" y="-68.9" font-family="Times,serif" font-size="12.00">IP transmits the data</text>
</g>
<!-- 140662936908320&#45;&gt;140662936905776 -->
<g id="edge4" class="edge">
<title>140662936908320&#45;&gt;140662936905776</title>
<path fill="none" stroke="black" d="M735.99,-49.04C745.17,-50.9 756.73,-53.24 768.93,-55.7"/>
<polygon fill="black" stroke="black" points="768.32,-59.15 778.82,-57.7 769.71,-52.29 768.32,-59.15"/>
</g>
<!-- 140662936911632 -->
<g id="node6" class="node">
<title>140662936911632</title>
<polygon fill="none" stroke="black" points="923,-36 778,-36 778,0 923,0 923,-36"/>
<text text-anchor="middle" x="850.5" y="-14.9" font-family="Times,serif" font-size="12.00">IP rejects the request</text>
</g>
<!-- 140662936908320&#45;&gt;140662936911632 -->
<g id="edge5" class="edge">
<title>140662936908320&#45;&gt;140662936911632</title>
<path fill="none" stroke="black" d="M735.99,-40.96C744.91,-39.15 756.07,-36.9 767.89,-34.51"/>
<polygon fill="black" stroke="black" points="768.82,-37.89 777.93,-32.47 767.44,-31.03 768.82,-37.89"/>
</g>
<!-- 140662936904720 -->
<g id="node7" class="node">
<title>140662936904720</title>
<polygon fill="none" stroke="black" points="986,-63 959,-45 986,-27 1013,-45 986,-63"/>
<text text-anchor="middle" x="986" y="-41.9" font-family="Times,serif" font-size="12.00">X</text>
</g>
<!-- 140662936905776&#45;&gt;140662936904720 -->
<g id="edge6" class="edge">
<title>140662936905776&#45;&gt;140662936904720</title>
<path fill="none" stroke="black" d="M922.16,-57.71C933.73,-55.37 945.15,-53.06 955.01,-51.06"/>
<polygon fill="black" stroke="black" points="955.93,-54.45 965.04,-49.04 954.54,-47.59 955.93,-54.45"/>
</g>
<!-- 140662936911632&#45;&gt;140662936904720 -->
<g id="edge7" class="edge">
<title>140662936911632&#45;&gt;140662936904720</title>
<path fill="none" stroke="black" d="M923.33,-32.53C934.45,-34.78 945.38,-36.99 954.88,-38.91"/>
<polygon fill="black" stroke="black" points="954.43,-42.39 964.93,-40.94 955.82,-35.53 954.43,-42.39"/>
</g>
<!-- 140662936911008 -->
<g id="node8" class="node">
<title>140662936911008</title>
<ellipse fill="orange" stroke="black" cx="1067" cy="-45" rx="18" ry="18"/>
</g>
<!-- 140662936904720&#45;&gt;140662936911008 -->
<g id="edge8" class="edge">
<title>140662936904720&#45;&gt;140662936911008</title>
<path fill="none" stroke="black" d="M1013.31,-45C1021.42,-45 1030.37,-45 1038.56,-45"/>
<polygon fill="black" stroke="black" points="1038.75,-48.5 1048.75,-45 1038.75,-41.5 1038.75,-48.5"/>
</g>
</g>
</svg>
