<?xml version="1.0" encoding="UTF-8" standalone="no"?>
<!DOCTYPE svg PUBLIC "-//W3C//DTD SVG 1.1//EN"
 "http://www.w3.org/Graphics/SVG/1.1/DTD/svg11.dtd">
<!-- Generated by graphviz version 2.43.0 (0)
 -->
<!-- Title: %3 Pages: 1 -->
<svg width="910pt" height="98pt"
 viewBox="0.00 0.00 910.00 98.00" xmlns="http://www.w3.org/2000/svg" xmlns:xlink="http://www.w3.org/1999/xlink">
<g id="graph0" class="graph" transform="scale(1 1) rotate(0) translate(4 94)">
<title>%3</title>
<polygon fill="white" stroke="transparent" points="-4,4 -4,-94 906,-94 906,4 -4,4"/>
<!-- 140662937041312 -->
<g id="node1" class="node">
<title>140662937041312</title>
<ellipse fill="green" stroke="black" cx="18" cy="-45" rx="18" ry="18"/>
</g>
<!-- 140662937042416 -->
<g id="node2" class="node">
<title>140662937042416</title>
<polygon fill="none" stroke="black" points="328,-63 72,-63 72,-27 328,-27 328,-63"/>
<text text-anchor="middle" x="200" y="-41.9" font-family="Times,serif" font-size="12.00">Transmit transaction data request to IP</text>
</g>
<!-- 140662937041312&#45;&gt;140662937042416 -->
<g id="edge1" class="edge">
<title>140662937041312&#45;&gt;140662937042416</title>
<path fill="none" stroke="black" d="M36.26,-45C43.25,-45 52,-45 61.79,-45"/>
<polygon fill="black" stroke="black" points="61.89,-48.5 71.89,-45 61.89,-41.5 61.89,-48.5"/>
</g>
<!-- 140662937036176 -->
<g id="node3" class="node">
<title>140662937036176</title>
<polygon fill="none" stroke="black" points="511,-63 364,-63 364,-27 511,-27 511,-63"/>
<text text-anchor="middle" x="437.5" y="-41.9" font-family="Times,serif" font-size="12.00">Check request of INQ</text>
</g>
<!-- 140662937042416&#45;&gt;140662937036176 -->
<g id="edge2" class="edge">
<title>140662937042416&#45;&gt;140662937036176</title>
<path fill="none" stroke="black" d="M328.06,-45C336.78,-45 345.44,-45 353.84,-45"/>
<polygon fill="black" stroke="black" points="353.93,-48.5 363.93,-45 353.93,-41.5 353.93,-48.5"/>
</g>
<!-- 140662937038048 -->
<g id="node4" class="node">
<title>140662937038048</title>
<polygon fill="none" stroke="black" points="574,-63 547,-45 574,-27 601,-45 574,-63"/>
<text text-anchor="middle" x="574" y="-41.9" font-family="Times,serif" font-size="12.00">X</text>
</g>
<!-- 140662937036176&#45;&gt;140662937038048 -->
<g id="edge3" class="edge">
<title>140662937036176&#45;&gt;140662937038048</title>
<path fill="none" stroke="black" d="M511.26,-45C520.13,-45 528.86,-45 536.85,-45"/>
<polygon fill="black" stroke="black" points="536.87,-48.5 546.87,-45 536.87,-41.5 536.87,-48.5"/>
</g>
<!-- 140662937038192 -->
<g id="node5" class="node">
<title>140662937038192</title>
<polygon fill="none" stroke="black" points="739.5,-90 637.5,-90 637.5,-54 739.5,-54 739.5,-90"/>
<text text-anchor="middle" x="688.5" y="-68.9" font-family="Times,serif" font-size="12.00">Transmit data</text>
</g>
<!-- 140662937038048&#45;&gt;140662937038192 -->
<g id="edge4" class="edge">
<title>140662937038048&#45;&gt;140662937038192</title>
<path fill="none" stroke="black" d="M594.34,-49.64C603.66,-51.88 615.41,-54.7 627.4,-57.58"/>
<polygon fill="black" stroke="black" points="626.93,-61.06 637.47,-59.99 628.56,-54.26 626.93,-61.06"/>
</g>
<!-- 140662937039536 -->
<g id="node6" class="node">
<title>140662937039536</title>
<polygon fill="none" stroke="black" points="740,-36 637,-36 637,0 740,0 740,-36"/>
<text text-anchor="middle" x="688.5" y="-14.9" font-family="Times,serif" font-size="12.00">Reject request</text>
</g>
<!-- 140662937038048&#45;&gt;140662937039536 -->
<g id="edge5" class="edge">
<title>140662937038048&#45;&gt;140662937039536</title>
<path fill="none" stroke="black" d="M594.34,-40.36C603.57,-38.14 615.17,-35.36 627.02,-32.52"/>
<polygon fill="black" stroke="black" points="628.08,-35.86 636.99,-30.12 626.45,-29.05 628.08,-35.86"/>
</g>
<!-- 140662937029648 -->
<g id="node7" class="node">
<title>140662937029648</title>
<polygon fill="none" stroke="black" points="803,-63 776,-45 803,-27 830,-45 803,-63"/>
<text text-anchor="middle" x="803" y="-41.9" font-family="Times,serif" font-size="12.00">X</text>
</g>
<!-- 140662937038192&#45;&gt;140662937029648 -->
<g id="edge6" class="edge">
<title>140662937038192&#45;&gt;140662937029648</title>
<path fill="none" stroke="black" d="M739.83,-59.92C751.12,-57.21 762.73,-54.43 772.81,-52"/>
<polygon fill="black" stroke="black" points="773.79,-55.37 782.7,-49.63 772.16,-48.56 773.79,-55.37"/>
</g>
<!-- 140662937039536&#45;&gt;140662937029648 -->
<g id="edge7" class="edge">
<title>140662937039536&#45;&gt;140662937029648</title>
<path fill="none" stroke="black" d="M740.16,-30.16C751.41,-32.86 762.97,-35.63 773,-38.04"/>
<polygon fill="black" stroke="black" points="772.28,-41.47 782.82,-40.4 773.92,-34.66 772.28,-41.47"/>
</g>
<!-- 140662937030704 -->
<g id="node8" class="node">
<title>140662937030704</title>
<ellipse fill="orange" stroke="black" cx="884" cy="-45" rx="18" ry="18"/>
</g>
<!-- 140662937029648&#45;&gt;140662937030704 -->
<g id="edge8" class="edge">
<title>140662937029648&#45;&gt;140662937030704</title>
<path fill="none" stroke="black" d="M830.31,-45C838.42,-45 847.37,-45 855.56,-45"/>
<polygon fill="black" stroke="black" points="855.75,-48.5 865.75,-45 855.75,-41.5 855.75,-48.5"/>
</g>
</g>
</svg>
