<?xml version="1.0" encoding="UTF-8" standalone="no"?>
<!DOCTYPE svg PUBLIC "-//W3C//DTD SVG 1.1//EN"
 "http://www.w3.org/Graphics/SVG/1.1/DTD/svg11.dtd">
<!-- Generated by graphviz version 2.43.0 (0)
 -->
<!-- Title: %3 Pages: 1 -->
<svg width="963pt" height="98pt"
 viewBox="0.00 0.00 963.00 98.00" xmlns="http://www.w3.org/2000/svg" xmlns:xlink="http://www.w3.org/1999/xlink">
<g id="graph0" class="graph" transform="scale(1 1) rotate(0) translate(4 94)">
<title>%3</title>
<polygon fill="white" stroke="transparent" points="-4,4 -4,-94 959,-94 959,4 -4,4"/>
<!-- 140662932229472 -->
<g id="node1" class="node">
<title>140662932229472</title>
<ellipse fill="green" stroke="black" cx="18" cy="-45" rx="18" ry="18"/>
</g>
<!-- 140662932237056 -->
<g id="node2" class="node">
<title>140662932237056</title>
<polygon fill="none" stroke="black" points="248,-63 72,-63 72,-27 248,-27 248,-63"/>
<text text-anchor="middle" x="160" y="-41.9" font-family="Times,serif" font-size="12.00">MPON sends the dismissal</text>
</g>
<!-- 140662932229472&#45;&gt;140662932237056 -->
<g id="edge1" class="edge">
<title>140662932229472&#45;&gt;140662932237056</title>
<path fill="none" stroke="black" d="M36.17,-45C43.21,-45 51.96,-45 61.53,-45"/>
<polygon fill="black" stroke="black" points="61.75,-48.5 71.75,-45 61.75,-41.5 61.75,-48.5"/>
</g>
<!-- 140662933581456 -->
<g id="node3" class="node">
<title>140662933581456</title>
<polygon fill="none" stroke="black" points="472,-63 284,-63 284,-27 472,-27 472,-63"/>
<text text-anchor="middle" x="378" y="-41.9" font-family="Times,serif" font-size="12.00">MPOO reviews the dismissal</text>
</g>
<!-- 140662932237056&#45;&gt;140662933581456 -->
<g id="edge2" class="edge">
<title>140662932237056&#45;&gt;140662933581456</title>
<path fill="none" stroke="black" d="M248.23,-45C256.65,-45 265.24,-45 273.79,-45"/>
<polygon fill="black" stroke="black" points="273.8,-48.5 283.8,-45 273.79,-41.5 273.8,-48.5"/>
</g>
<!-- 140662932237152 -->
<g id="node4" class="node">
<title>140662932237152</title>
<polygon fill="none" stroke="black" points="535,-63 508,-45 535,-27 562,-45 535,-63"/>
<text text-anchor="middle" x="535" y="-41.9" font-family="Times,serif" font-size="12.00">X</text>
</g>
<!-- 140662933581456&#45;&gt;140662932237152 -->
<g id="edge3" class="edge">
<title>140662933581456&#45;&gt;140662932237152</title>
<path fill="none" stroke="black" d="M472.29,-45C481.2,-45 489.81,-45 497.64,-45"/>
<polygon fill="black" stroke="black" points="497.77,-48.5 507.77,-45 497.77,-41.5 497.77,-48.5"/>
</g>
<!-- 140662932234608 -->
<g id="node5" class="node">
<title>140662932234608</title>
<polygon fill="none" stroke="black" points="793,-90 598,-90 598,-54 793,-54 793,-90"/>
<text text-anchor="middle" x="695.5" y="-68.9" font-family="Times,serif" font-size="12.00">MPOO confirms the dismissal</text>
</g>
<!-- 140662932237152&#45;&gt;140662932234608 -->
<g id="edge5" class="edge">
<title>140662932237152&#45;&gt;140662932234608</title>
<path fill="none" stroke="black" d="M556.72,-48.53C565.37,-50 576.13,-51.84 587.79,-53.82"/>
<polygon fill="black" stroke="black" points="587.33,-57.29 597.78,-55.52 588.51,-50.39 587.33,-57.29"/>
</g>
<!-- 140662932234416 -->
<g id="node6" class="node">
<title>140662932234416</title>
<polygon fill="none" stroke="black" points="791,-36 600,-36 600,0 791,0 791,-36"/>
<text text-anchor="middle" x="695.5" y="-14.9" font-family="Times,serif" font-size="12.00">MPOO opposes the dismissal</text>
</g>
<!-- 140662932237152&#45;&gt;140662932234416 -->
<g id="edge4" class="edge">
<title>140662932237152&#45;&gt;140662932234416</title>
<path fill="none" stroke="black" d="M556.72,-41.47C565.86,-39.91 577.34,-37.96 589.76,-35.84"/>
<polygon fill="black" stroke="black" points="590.62,-39.25 599.89,-34.12 589.44,-32.35 590.62,-39.25"/>
</g>
<!-- 140662932237344 -->
<g id="node7" class="node">
<title>140662932237344</title>
<polygon fill="none" stroke="black" points="856,-63 829,-45 856,-27 883,-45 856,-63"/>
<text text-anchor="middle" x="856" y="-41.9" font-family="Times,serif" font-size="12.00">X</text>
</g>
<!-- 140662932234608&#45;&gt;140662932237344 -->
<g id="edge6" class="edge">
<title>140662932234608&#45;&gt;140662932237344</title>
<path fill="none" stroke="black" d="M793.27,-55.52C804.29,-53.64 814.84,-51.84 824,-50.28"/>
<polygon fill="black" stroke="black" points="824.79,-53.7 834.06,-48.57 823.62,-46.8 824.79,-53.7"/>
</g>
<!-- 140662932234416&#45;&gt;140662932237344 -->
<g id="edge7" class="edge">
<title>140662932234416&#45;&gt;140662932237344</title>
<path fill="none" stroke="black" d="M791.45,-34.17C803.26,-36.19 814.59,-38.12 824.32,-39.77"/>
<polygon fill="black" stroke="black" points="823.77,-43.23 834.21,-41.46 824.94,-36.33 823.77,-43.23"/>
</g>
<!-- 140662932242384 -->
<g id="node8" class="node">
<title>140662932242384</title>
<ellipse fill="orange" stroke="black" cx="937" cy="-45" rx="18" ry="18"/>
</g>
<!-- 140662932237344&#45;&gt;140662932242384 -->
<g id="edge8" class="edge">
<title>140662932237344&#45;&gt;140662932242384</title>
<path fill="none" stroke="black" d="M883.31,-45C891.42,-45 900.37,-45 908.56,-45"/>
<polygon fill="black" stroke="black" points="908.75,-48.5 918.75,-45 908.75,-41.5 908.75,-48.5"/>
</g>
</g>
</svg>
