<?xml version="1.0" encoding="UTF-8" standalone="no"?>
<!DOCTYPE svg PUBLIC "-//W3C//DTD SVG 1.1//EN"
 "http://www.w3.org/Graphics/SVG/1.1/DTD/svg11.dtd">
<!-- Generated by graphviz version 2.43.0 (0)
 -->
<!-- Title: %3 Pages: 1 -->
<svg width="1016pt" height="98pt"
 viewBox="0.00 0.00 1016.00 98.00" xmlns="http://www.w3.org/2000/svg" xmlns:xlink="http://www.w3.org/1999/xlink">
<g id="graph0" class="graph" transform="scale(1 1) rotate(0) translate(4 94)">
<title>%3</title>
<polygon fill="white" stroke="transparent" points="-4,4 -4,-94 1012,-94 1012,4 -4,4"/>
<!-- 140662932229184 -->
<g id="node1" class="node">
<title>140662932229184</title>
<ellipse fill="green" stroke="black" cx="18" cy="-45" rx="18" ry="18"/>
</g>
<!-- 140662932239888 -->
<g id="node2" class="node">
<title>140662932239888</title>
<polygon fill="none" stroke="black" points="285,-63 72,-63 72,-27 285,-27 285,-63"/>
<text text-anchor="middle" x="178.5" y="-41.9" font-family="Times,serif" font-size="12.00">MPON sends dismissal to MPOO</text>
</g>
<!-- 140662932229184&#45;&gt;140662932239888 -->
<g id="edge1" class="edge">
<title>140662932229184&#45;&gt;140662932239888</title>
<path fill="none" stroke="black" d="M36.26,-45C43.23,-45 51.9,-45 61.49,-45"/>
<polygon fill="black" stroke="black" points="61.78,-48.5 71.78,-45 61.78,-41.5 61.78,-48.5"/>
</g>
<!-- 140662932231872 -->
<g id="node3" class="node">
<title>140662932231872</title>
<polygon fill="none" stroke="black" points="487,-63 321,-63 321,-27 487,-27 487,-63"/>
<text text-anchor="middle" x="404" y="-41.9" font-family="Times,serif" font-size="12.00">MPOO reviews dismissal</text>
</g>
<!-- 140662932239888&#45;&gt;140662932231872 -->
<g id="edge2" class="edge">
<title>140662932239888&#45;&gt;140662932231872</title>
<path fill="none" stroke="black" d="M285.03,-45C293.55,-45 302.12,-45 310.53,-45"/>
<polygon fill="black" stroke="black" points="310.71,-48.5 320.71,-45 310.71,-41.5 310.71,-48.5"/>
</g>
<!-- 140662932242144 -->
<g id="node4" class="node">
<title>140662932242144</title>
<polygon fill="none" stroke="black" points="550,-63 523,-45 550,-27 577,-45 550,-63"/>
<text text-anchor="middle" x="550" y="-41.9" font-family="Times,serif" font-size="12.00">X</text>
</g>
<!-- 140662932231872&#45;&gt;140662932242144 -->
<g id="edge3" class="edge">
<title>140662932231872&#45;&gt;140662932242144</title>
<path fill="none" stroke="black" d="M487.1,-45C495.95,-45 504.6,-45 512.5,-45"/>
<polygon fill="black" stroke="black" points="512.73,-48.5 522.73,-45 512.73,-41.5 512.73,-48.5"/>
</g>
<!-- 140662932233168 -->
<g id="node5" class="node">
<title>140662932233168</title>
<polygon fill="none" stroke="black" points="843.5,-90 615.5,-90 615.5,-54 843.5,-54 843.5,-90"/>
<text text-anchor="middle" x="729.5" y="-68.9" font-family="Times,serif" font-size="12.00">MPOO opposes dismissal of MPON</text>
</g>
<!-- 140662932242144&#45;&gt;140662932233168 -->
<g id="edge4" class="edge">
<title>140662932242144&#45;&gt;140662932233168</title>
<path fill="none" stroke="black" d="M572.41,-48.26C581.43,-49.63 592.71,-51.34 605.04,-53.22"/>
<polygon fill="black" stroke="black" points="604.73,-56.71 615.14,-54.76 605.78,-49.79 604.73,-56.71"/>
</g>
<!-- 140662937034832 -->
<g id="node6" class="node">
<title>140662937034832</title>
<polygon fill="none" stroke="black" points="846,-36 613,-36 613,0 846,0 846,-36"/>
<text text-anchor="middle" x="729.5" y="-14.9" font-family="Times,serif" font-size="12.00">MPOO confirms dismissal of MPON</text>
</g>
<!-- 140662932242144&#45;&gt;140662937034832 -->
<g id="edge5" class="edge">
<title>140662932242144&#45;&gt;140662937034832</title>
<path fill="none" stroke="black" d="M572.41,-41.74C580.83,-40.46 591.2,-38.88 602.57,-37.16"/>
<polygon fill="black" stroke="black" points="603.43,-40.56 612.79,-35.6 602.38,-33.64 603.43,-40.56"/>
</g>
<!-- 140662932241856 -->
<g id="node7" class="node">
<title>140662932241856</title>
<polygon fill="none" stroke="black" points="909,-63 882,-45 909,-27 936,-45 909,-63"/>
<text text-anchor="middle" x="909" y="-41.9" font-family="Times,serif" font-size="12.00">X</text>
</g>
<!-- 140662932233168&#45;&gt;140662932241856 -->
<g id="edge6" class="edge">
<title>140662932233168&#45;&gt;140662932241856</title>
<path fill="none" stroke="black" d="M843.67,-54.79C855.55,-52.98 866.8,-51.27 876.48,-49.8"/>
<polygon fill="black" stroke="black" points="877.31,-53.21 886.67,-48.24 876.26,-46.29 877.31,-53.21"/>
</g>
<!-- 140662937034832&#45;&gt;140662932241856 -->
<g id="edge7" class="edge">
<title>140662937034832&#45;&gt;140662932241856</title>
<path fill="none" stroke="black" d="M846.42,-35.63C857.27,-37.28 867.52,-38.84 876.43,-40.2"/>
<polygon fill="black" stroke="black" points="876.17,-43.7 886.58,-41.74 877.22,-36.78 876.17,-43.7"/>
</g>
<!-- 140662932231824 -->
<g id="node8" class="node">
<title>140662932231824</title>
<ellipse fill="orange" stroke="black" cx="990" cy="-45" rx="18" ry="18"/>
</g>
<!-- 140662932241856&#45;&gt;140662932231824 -->
<g id="edge8" class="edge">
<title>140662932241856&#45;&gt;140662932231824</title>
<path fill="none" stroke="black" d="M936.31,-45C944.42,-45 953.37,-45 961.56,-45"/>
<polygon fill="black" stroke="black" points="961.75,-48.5 971.75,-45 961.75,-41.5 961.75,-48.5"/>
</g>
</g>
</svg>
