<?xml version="1.0" encoding="UTF-8" standalone="no"?>
<!DOCTYPE svg PUBLIC "-//W3C//DTD SVG 1.1//EN"
 "http://www.w3.org/Graphics/SVG/1.1/DTD/svg11.dtd">
<!-- Generated by graphviz version 2.43.0 (0)
 -->
<!-- Title: %3 Pages: 1 -->
<svg width="1105pt" height="98pt"
 viewBox="0.00 0.00 1105.00 98.00" xmlns="http://www.w3.org/2000/svg" xmlns:xlink="http://www.w3.org/1999/xlink">
<g id="graph0" class="graph" transform="scale(1 1) rotate(0) translate(4 94)">
<title>%3</title>
<polygon fill="white" stroke="transparent" points="-4,4 -4,-94 1101,-94 1101,4 -4,4"/>
<!-- 140662932228128 -->
<g id="node1" class="node">
<title>140662932228128</title>
<ellipse fill="green" stroke="black" cx="18" cy="-45" rx="18" ry="18"/>
</g>
<!-- 140662932226544 -->
<g id="node2" class="node">
<title>140662932226544</title>
<polygon fill="none" stroke="black" points="330,-63 72,-63 72,-27 330,-27 330,-63"/>
<text text-anchor="middle" x="201" y="-41.9" font-family="Times,serif" font-size="12.00">MPON sends the dismissal to the MPOO</text>
</g>
<!-- 140662932228128&#45;&gt;140662932226544 -->
<g id="edge1" class="edge">
<title>140662932228128&#45;&gt;140662932226544</title>
<path fill="none" stroke="black" d="M36.03,-45C43.02,-45 51.8,-45 61.64,-45"/>
<polygon fill="black" stroke="black" points="61.8,-48.5 71.8,-45 61.8,-41.5 61.8,-48.5"/>
</g>
<!-- 140662932226736 -->
<g id="node3" class="node">
<title>140662932226736</title>
<polygon fill="none" stroke="black" points="554,-63 366,-63 366,-27 554,-27 554,-63"/>
<text text-anchor="middle" x="460" y="-41.9" font-family="Times,serif" font-size="12.00">MPOO reviews the dismissal</text>
</g>
<!-- 140662932226544&#45;&gt;140662932226736 -->
<g id="edge2" class="edge">
<title>140662932226544&#45;&gt;140662932226736</title>
<path fill="none" stroke="black" d="M330.12,-45C338.7,-45 347.29,-45 355.72,-45"/>
<polygon fill="black" stroke="black" points="355.92,-48.5 365.92,-45 355.92,-41.5 355.92,-48.5"/>
</g>
<!-- 140662932240080 -->
<g id="node4" class="node">
<title>140662932240080</title>
<polygon fill="none" stroke="black" points="617,-63 590,-45 617,-27 644,-45 617,-63"/>
<text text-anchor="middle" x="617" y="-41.9" font-family="Times,serif" font-size="12.00">X</text>
</g>
<!-- 140662932226736&#45;&gt;140662932240080 -->
<g id="edge3" class="edge">
<title>140662932226736&#45;&gt;140662932240080</title>
<path fill="none" stroke="black" d="M554.29,-45C563.2,-45 571.81,-45 579.64,-45"/>
<polygon fill="black" stroke="black" points="579.77,-48.5 589.77,-45 579.77,-41.5 579.77,-48.5"/>
</g>
<!-- 140662932239600 -->
<g id="node5" class="node">
<title>140662932239600</title>
<polygon fill="none" stroke="black" points="935,-90 680,-90 680,-54 935,-54 935,-90"/>
<text text-anchor="middle" x="807.5" y="-68.9" font-family="Times,serif" font-size="12.00">MPOO confirms the dismissal of MPON</text>
</g>
<!-- 140662932240080&#45;&gt;140662932239600 -->
<g id="edge4" class="edge">
<title>140662932240080&#45;&gt;140662932239600</title>
<path fill="none" stroke="black" d="M639.62,-48.1C648.24,-49.33 658.9,-50.86 670.65,-52.54"/>
<polygon fill="black" stroke="black" points="670.35,-56.03 680.74,-53.99 671.34,-49.1 670.35,-56.03"/>
</g>
<!-- 140662932226976 -->
<g id="node6" class="node">
<title>140662932226976</title>
<polygon fill="none" stroke="black" points="933,-36 682,-36 682,0 933,0 933,-36"/>
<text text-anchor="middle" x="807.5" y="-14.9" font-family="Times,serif" font-size="12.00">MPOO opposes the dismissal of MPON</text>
</g>
<!-- 140662932240080&#45;&gt;140662932226976 -->
<g id="edge5" class="edge">
<title>140662932240080&#45;&gt;140662932226976</title>
<path fill="none" stroke="black" d="M639.62,-41.9C648.55,-40.62 659.69,-39.03 671.94,-37.27"/>
<polygon fill="black" stroke="black" points="672.58,-40.72 681.99,-35.83 671.59,-33.79 672.58,-40.72"/>
</g>
<!-- 140662932236000 -->
<g id="node7" class="node">
<title>140662932236000</title>
<polygon fill="none" stroke="black" points="998,-63 971,-45 998,-27 1025,-45 998,-63"/>
<text text-anchor="middle" x="998" y="-41.9" font-family="Times,serif" font-size="12.00">X</text>
</g>
<!-- 140662932239600&#45;&gt;140662932236000 -->
<g id="edge6" class="edge">
<title>140662932239600&#45;&gt;140662932236000</title>
<path fill="none" stroke="black" d="M934.23,-53.99C945.59,-52.36 956.26,-50.84 965.47,-49.52"/>
<polygon fill="black" stroke="black" points="966.15,-52.95 975.56,-48.07 965.16,-46.02 966.15,-52.95"/>
</g>
<!-- 140662932226976&#45;&gt;140662932236000 -->
<g id="edge7" class="edge">
<title>140662932226976&#45;&gt;140662932236000</title>
<path fill="none" stroke="black" d="M933.18,-35.86C944.92,-37.54 955.96,-39.12 965.44,-40.48"/>
<polygon fill="black" stroke="black" points="965.05,-43.96 975.45,-41.91 966.04,-37.03 965.05,-43.96"/>
</g>
<!-- 140662932237344 -->
<g id="node8" class="node">
<title>140662932237344</title>
<ellipse fill="orange" stroke="black" cx="1079" cy="-45" rx="18" ry="18"/>
</g>
<!-- 140662932236000&#45;&gt;140662932237344 -->
<g id="edge8" class="edge">
<title>140662932236000&#45;&gt;140662932237344</title>
<path fill="none" stroke="black" d="M1025.31,-45C1033.42,-45 1042.37,-45 1050.56,-45"/>
<polygon fill="black" stroke="black" points="1050.75,-48.5 1060.75,-45 1050.75,-41.5 1050.75,-48.5"/>
</g>
</g>
</svg>
