<?xml version="1.0" encoding="UTF-8" standalone="no"?>
<!DOCTYPE svg PUBLIC "-//W3C//DTD SVG 1.1//EN"
 "http://www.w3.org/Graphics/SVG/1.1/DTD/svg11.dtd">
<!-- Generated by graphviz version 2.43.0 (0)
 -->
<!-- Title: %3 Pages: 1 -->
<svg width="2370pt" height="642pt"
 viewBox="0.00 0.00 2370.00 642.03" xmlns="http://www.w3.org/2000/svg" xmlns:xlink="http://www.w3.org/1999/xlink">
<g id="graph0" class="graph" transform="scale(1 1) rotate(0) translate(4 638.03)">
<title>%3</title>
<polygon fill="white" stroke="transparent" points="-4,4 -4,-638.03 2366,-638.03 2366,4 -4,4"/>
<!-- 140662933571904 -->
<g id="node1" class="node">
<title>140662933571904</title>
<ellipse fill="green" stroke="black" cx="18" cy="-365.62" rx="18" ry="18"/>
</g>
<!-- 140662936910144 -->
<g id="node2" class="node">
<title>140662936910144</title>
<polygon fill="none" stroke="black" points="167,-383.62 72,-383.62 72,-347.62 167,-347.62 167,-383.62"/>
<text text-anchor="middle" x="119.5" y="-362.52" font-family="Times,serif" font-size="12.00">Check defect</text>
</g>
<!-- 140662933571904&#45;&gt;140662936910144 -->
<g id="edge1" class="edge">
<title>140662933571904&#45;&gt;140662936910144</title>
<path fill="none" stroke="black" d="M36.33,-365.62C43.61,-365.62 52.53,-365.62 61.77,-365.62"/>
<polygon fill="black" stroke="black" points="61.87,-369.12 71.87,-365.62 61.87,-362.12 61.87,-369.12"/>
</g>
<!-- 140662933571664 -->
<g id="node3" class="node">
<title>140662933571664</title>
<polygon fill="none" stroke="black" points="352,-383.62 203,-383.62 203,-347.62 352,-347.62 352,-383.62"/>
<text text-anchor="middle" x="277.5" y="-362.52" font-family="Times,serif" font-size="12.00">Calculate repair costs</text>
</g>
<!-- 140662936910144&#45;&gt;140662933571664 -->
<g id="edge2" class="edge">
<title>140662936910144&#45;&gt;140662933571664</title>
<path fill="none" stroke="black" d="M167.31,-365.62C175.37,-365.62 183.96,-365.62 192.66,-365.62"/>
<polygon fill="black" stroke="black" points="192.88,-369.12 202.88,-365.62 192.88,-362.12 192.88,-369.12"/>
</g>
<!-- 140662936907792 -->
<g id="node4" class="node">
<title>140662936907792</title>
<polygon fill="none" stroke="black" points="415,-383.62 388,-365.62 415,-347.62 442,-365.62 415,-383.62"/>
<text text-anchor="middle" x="415" y="-362.52" font-family="Times,serif" font-size="12.00">X</text>
</g>
<!-- 140662933571664&#45;&gt;140662936907792 -->
<g id="edge3" class="edge">
<title>140662933571664&#45;&gt;140662936907792</title>
<path fill="none" stroke="black" d="M352.2,-365.62C361.09,-365.62 369.84,-365.62 377.84,-365.62"/>
<polygon fill="black" stroke="black" points="377.86,-369.12 387.86,-365.62 377.86,-362.12 377.86,-369.12"/>
</g>
<!-- 140662933584384 -->
<g id="node5" class="node">
<title>140662933584384</title>
<polygon fill="none" stroke="black" points="692,-417.62 478,-417.62 478,-381.62 692,-381.62 692,-417.62"/>
<text text-anchor="middle" x="585" y="-396.52" font-family="Times,serif" font-size="12.00">Take computer home unrepaired</text>
</g>
<!-- 140662936907792&#45;&gt;140662933584384 -->
<g id="edge5" class="edge">
<title>140662936907792&#45;&gt;140662933584384</title>
<path fill="none" stroke="black" d="M436.26,-369.73C448.99,-372.3 466.45,-375.83 484.91,-379.57"/>
<polygon fill="black" stroke="black" points="484.44,-383.05 494.94,-381.6 485.83,-376.19 484.44,-383.05"/>
</g>
<!-- 140662933583184 -->
<g id="node6" class="node">
<title>140662933583184</title>
<polygon fill="none" stroke="black" points="585,-356.62 558,-338.62 585,-320.62 612,-338.62 585,-356.62"/>
<text text-anchor="middle" x="585" y="-335.52" font-family="Times,serif" font-size="12.00">+</text>
</g>
<!-- 140662936907792&#45;&gt;140662933583184 -->
<g id="edge4" class="edge">
<title>140662936907792&#45;&gt;140662933583184</title>
<path fill="none" stroke="black" d="M437.28,-362.21C466.44,-357.52 519.03,-349.07 552.69,-343.66"/>
<polygon fill="black" stroke="black" points="553.58,-347.06 562.9,-342.02 552.47,-340.15 553.58,-347.06"/>
</g>
<!-- 140662936904672 -->
<g id="node7" class="node">
<title>140662936904672</title>
<polygon fill="none" stroke="black" points="2132,-455.62 2105,-437.62 2132,-419.62 2159,-437.62 2132,-455.62"/>
<text text-anchor="middle" x="2132" y="-434.52" font-family="Times,serif" font-size="12.00">X</text>
</g>
<!-- 140662933584384&#45;&gt;140662936904672 -->
<g id="edge6" class="edge">
<title>140662933584384&#45;&gt;140662936904672</title>
<path fill="none" stroke="black" d="M692.02,-405.73C773.27,-409.88 888.18,-414.62 989,-414.62 989,-414.62 989,-414.62 1808,-414.62 1914.64,-414.62 2040.59,-427.25 2098.68,-433.8"/>
<polygon fill="black" stroke="black" points="2098.39,-437.28 2108.72,-434.94 2099.18,-430.33 2098.39,-437.28"/>
</g>
<!-- 140662933581456 -->
<g id="node8" class="node">
<title>140662933581456</title>
<polygon fill="none" stroke="black" points="920,-229.62 735,-229.62 735,-193.62 920,-193.62 920,-229.62"/>
<text text-anchor="middle" x="827.5" y="-208.52" font-family="Times,serif" font-size="12.00">Check and repair hardware</text>
</g>
<!-- 140662933583184&#45;&gt;140662933581456 -->
<g id="edge8" class="edge">
<title>140662933583184&#45;&gt;140662933581456</title>
<path fill="none" stroke="black" d="M600.68,-330.87C636.26,-312.09 728.17,-263.55 783.15,-234.52"/>
<polygon fill="black" stroke="black" points="785.09,-237.45 792.3,-229.68 781.82,-231.26 785.09,-237.45"/>
</g>
<!-- 140662933570176 -->
<g id="node9" class="node">
<title>140662933570176</title>
<polygon fill="none" stroke="black" points="927,-356.62 728,-356.62 728,-320.62 927,-320.62 927,-356.62"/>
<text text-anchor="middle" x="827.5" y="-335.52" font-family="Times,serif" font-size="12.00">Check and configure software</text>
</g>
<!-- 140662933583184&#45;&gt;140662933570176 -->
<g id="edge7" class="edge">
<title>140662933583184&#45;&gt;140662933570176</title>
<path fill="none" stroke="black" d="M612.2,-338.62C637.73,-338.62 678.31,-338.62 717.33,-338.62"/>
<polygon fill="black" stroke="black" points="717.74,-342.12 727.74,-338.62 717.74,-335.12 717.74,-342.12"/>
</g>
<!-- 140662933576464 -->
<g id="node12" class="node">
<title>140662933576464</title>
<polygon fill="none" stroke="black" points="2290,-455.62 2195,-455.62 2195,-419.62 2290,-419.62 2290,-455.62"/>
<text text-anchor="middle" x="2242.5" y="-434.52" font-family="Times,serif" font-size="12.00">Finish repair</text>
</g>
<!-- 140662936904672&#45;&gt;140662933576464 -->
<g id="edge9" class="edge">
<title>140662936904672&#45;&gt;140662933576464</title>
<path fill="none" stroke="black" d="M2159.26,-437.62C2167.01,-437.62 2175.81,-437.62 2184.69,-437.62"/>
<polygon fill="black" stroke="black" points="2184.71,-441.12 2194.71,-437.62 2184.71,-434.12 2184.71,-441.12"/>
</g>
<!-- 140662936895696 -->
<g id="node11" class="node">
<title>140662936895696</title>
<polygon fill="none" stroke="black" points="990,-133.62 963,-115.62 990,-97.62 1017,-115.62 990,-133.62"/>
<text text-anchor="middle" x="990" y="-112.52" font-family="Times,serif" font-size="12.00">X</text>
</g>
<!-- 140662933581456&#45;&gt;140662936895696 -->
<g id="edge10" class="edge">
<title>140662933581456&#45;&gt;140662936895696</title>
<path fill="none" stroke="black" d="M858.69,-193.57C890.02,-174.83 938.29,-145.95 966.45,-129.11"/>
<polygon fill="black" stroke="black" points="968.39,-132.03 975.18,-123.89 964.8,-126.02 968.39,-132.03"/>
</g>
<!-- 140662936909472 -->
<g id="node10" class="node">
<title>140662936909472</title>
<polygon fill="none" stroke="black" points="990,-356.62 963,-338.62 990,-320.62 1017,-338.62 990,-356.62"/>
<text text-anchor="middle" x="990" y="-335.52" font-family="Times,serif" font-size="12.00">X</text>
</g>
<!-- 140662933570176&#45;&gt;140662936909472 -->
<g id="edge11" class="edge">
<title>140662933570176&#45;&gt;140662936909472</title>
<path fill="none" stroke="black" d="M927.41,-338.62C936.36,-338.62 944.99,-338.62 952.82,-338.62"/>
<polygon fill="black" stroke="black" points="952.93,-342.12 962.93,-338.62 952.93,-335.12 952.93,-342.12"/>
</g>
<!-- 140662933574784 -->
<g id="node14" class="node">
<title>140662933574784</title>
<polygon fill="none" stroke="black" points="1218,-348.62 1053,-348.62 1053,-312.62 1218,-312.62 1218,-348.62"/>
<text text-anchor="middle" x="1135.5" y="-327.52" font-family="Times,serif" font-size="12.00">Test system functionality</text>
</g>
<!-- 140662936909472&#45;&gt;140662933574784 -->
<g id="edge12" class="edge">
<title>140662936909472&#45;&gt;140662933574784</title>
<path fill="none" stroke="black" d="M1015.02,-337.29C1023.04,-336.84 1032.51,-336.31 1042.56,-335.75"/>
<polygon fill="black" stroke="black" points="1042.98,-339.23 1052.77,-335.18 1042.59,-332.24 1042.98,-339.23"/>
</g>
<!-- 140662933408880 -->
<g id="node13" class="node">
<title>140662933408880</title>
<polygon fill="none" stroke="black" points="1218,-133.62 1053,-133.62 1053,-97.62 1218,-97.62 1218,-133.62"/>
<text text-anchor="middle" x="1135.5" y="-112.52" font-family="Times,serif" font-size="12.00">Test system functionality</text>
</g>
<!-- 140662936895696&#45;&gt;140662933408880 -->
<g id="edge13" class="edge">
<title>140662936895696&#45;&gt;140662933408880</title>
<path fill="none" stroke="black" d="M1017.32,-115.62C1024.87,-115.62 1033.55,-115.62 1042.71,-115.62"/>
<polygon fill="black" stroke="black" points="1042.8,-119.12 1052.8,-115.62 1042.8,-112.12 1042.8,-119.12"/>
</g>
<!-- 140662933576800 -->
<g id="node36" class="node">
<title>140662933576800</title>
<ellipse fill="orange" stroke="black" cx="2344" cy="-437.62" rx="18" ry="18"/>
</g>
<!-- 140662933576464&#45;&gt;140662933576800 -->
<g id="edge14" class="edge">
<title>140662933576464&#45;&gt;140662933576800</title>
<path fill="none" stroke="black" d="M2290.05,-437.62C2298.81,-437.62 2307.7,-437.62 2315.64,-437.62"/>
<polygon fill="black" stroke="black" points="2315.76,-441.12 2325.76,-437.62 2315.76,-434.12 2315.76,-441.12"/>
</g>
<!-- 140662936898624 -->
<g id="node16" class="node">
<title>140662936898624</title>
<polygon fill="none" stroke="black" points="1281,-133.62 1254,-115.62 1281,-97.62 1308,-115.62 1281,-133.62"/>
<text text-anchor="middle" x="1281" y="-112.52" font-family="Times,serif" font-size="12.00">X</text>
</g>
<!-- 140662933408880&#45;&gt;140662936898624 -->
<g id="edge15" class="edge">
<title>140662933408880&#45;&gt;140662936898624</title>
<path fill="none" stroke="black" d="M1218.31,-115.62C1227.14,-115.62 1235.76,-115.62 1243.62,-115.62"/>
<polygon fill="black" stroke="black" points="1243.83,-119.12 1253.83,-115.62 1243.83,-112.12 1243.83,-119.12"/>
</g>
<!-- 140662936908512 -->
<g id="node15" class="node">
<title>140662936908512</title>
<polygon fill="none" stroke="black" points="1281,-348.62 1254,-330.62 1281,-312.62 1308,-330.62 1281,-348.62"/>
<text text-anchor="middle" x="1281" y="-327.52" font-family="Times,serif" font-size="12.00">X</text>
</g>
<!-- 140662933574784&#45;&gt;140662936908512 -->
<g id="edge16" class="edge">
<title>140662933574784&#45;&gt;140662936908512</title>
<path fill="none" stroke="black" d="M1218.31,-330.62C1227.14,-330.62 1235.76,-330.62 1243.62,-330.62"/>
<polygon fill="black" stroke="black" points="1243.83,-334.12 1253.83,-330.62 1243.83,-327.12 1243.83,-334.12"/>
</g>
<!-- 140662936896080 -->
<g id="node17" class="node">
<title>140662936896080</title>
<polygon fill="none" stroke="black" points="1661.5,-335.62 1634.5,-317.62 1661.5,-299.62 1688.5,-317.62 1661.5,-335.62"/>
<text text-anchor="middle" x="1661.5" y="-314.52" font-family="Times,serif" font-size="12.00">X</text>
</g>
<!-- 140662936908512&#45;&gt;140662936896080 -->
<g id="edge20" class="edge">
<title>140662936908512&#45;&gt;140662936896080</title>
<path fill="none" stroke="black" d="M1296.22,-322.42C1308.44,-315.87 1326.76,-307.22 1344,-303.62 1447.45,-282.08 1573.88,-300.76 1630.54,-311.42"/>
<polygon fill="black" stroke="black" points="1630.11,-314.9 1640.6,-313.37 1631.44,-308.03 1630.11,-314.9"/>
</g>
<!-- 140662936906592 -->
<g id="node18" class="node">
<title>140662936906592</title>
<polygon fill="none" stroke="black" points="1443.5,-559.62 1416.5,-541.62 1443.5,-523.62 1470.5,-541.62 1443.5,-559.62"/>
<text text-anchor="middle" x="1443.5" y="-538.52" font-family="Times,serif" font-size="12.00">X</text>
</g>
<!-- 140662936908512&#45;&gt;140662936906592 -->
<g id="edge18" class="edge">
<title>140662936908512&#45;&gt;140662936906592</title>
<path fill="none" stroke="black" d="M1290.86,-342.27C1317.11,-376.78 1394.71,-478.8 1427.55,-521.97"/>
<polygon fill="black" stroke="black" points="1424.83,-524.18 1433.67,-530.02 1430.4,-519.94 1424.83,-524.18"/>
</g>
<!-- 140662936897232 -->
<g id="node23" class="node">
<title>140662936897232</title>
<polygon fill="none" stroke="black" points="1543,-348.62 1344,-348.62 1344,-312.62 1543,-312.62 1543,-348.62"/>
<text text-anchor="middle" x="1443.5" y="-327.52" font-family="Times,serif" font-size="12.00">Check and configure software</text>
</g>
<!-- 140662936908512&#45;&gt;140662936897232 -->
<g id="edge19" class="edge">
<title>140662936908512&#45;&gt;140662936897232</title>
<path fill="none" stroke="black" d="M1308.14,-330.62C1315.65,-330.62 1324.33,-330.62 1333.6,-330.62"/>
<polygon fill="black" stroke="black" points="1333.86,-334.12 1343.86,-330.62 1333.86,-327.12 1333.86,-334.12"/>
</g>
<!-- 140662933581888 -->
<g id="node24" class="node">
<title>140662933581888</title>
<polygon fill="none" stroke="black" points="1536,-256.62 1351,-256.62 1351,-220.62 1536,-220.62 1536,-256.62"/>
<text text-anchor="middle" x="1443.5" y="-235.52" font-family="Times,serif" font-size="12.00">Check and repair hardware</text>
</g>
<!-- 140662936908512&#45;&gt;140662933581888 -->
<g id="edge17" class="edge">
<title>140662936908512&#45;&gt;140662933581888</title>
<path fill="none" stroke="black" d="M1291.3,-318.83C1302.47,-305.38 1322.44,-283.6 1344,-270.62 1350.2,-266.9 1356.88,-263.55 1363.74,-260.56"/>
<polygon fill="black" stroke="black" points="1365.25,-263.72 1373.17,-256.69 1362.59,-257.24 1365.25,-263.72"/>
</g>
<!-- 140662936898816 -->
<g id="node19" class="node">
<title>140662936898816</title>
<polygon fill="none" stroke="black" points="1661.5,-83.62 1634.5,-65.62 1661.5,-47.62 1688.5,-65.62 1661.5,-83.62"/>
<text text-anchor="middle" x="1661.5" y="-62.52" font-family="Times,serif" font-size="12.00">X</text>
</g>
<!-- 140662936898624&#45;&gt;140662936898816 -->
<g id="edge23" class="edge">
<title>140662936898624&#45;&gt;140662936898816</title>
<path fill="none" stroke="black" d="M1302.96,-119.15C1347.7,-125.99 1455.57,-138.75 1543,-119.62 1578.12,-111.94 1615.27,-92.74 1638.18,-79.44"/>
<polygon fill="black" stroke="black" points="1640.27,-82.27 1647.08,-74.15 1636.69,-76.25 1640.27,-82.27"/>
</g>
<!-- 140662936907072 -->
<g id="node20" class="node">
<title>140662936907072</title>
<polygon fill="none" stroke="black" points="1443.5,-202.62 1416.5,-184.62 1443.5,-166.62 1470.5,-184.62 1443.5,-202.62"/>
<text text-anchor="middle" x="1443.5" y="-181.52" font-family="Times,serif" font-size="12.00">X</text>
</g>
<!-- 140662936898624&#45;&gt;140662936907072 -->
<g id="edge21" class="edge">
<title>140662936898624&#45;&gt;140662936907072</title>
<path fill="none" stroke="black" d="M1294.84,-124.45C1307.07,-132.57 1326.19,-144.54 1344,-152.62 1366.73,-162.94 1393.77,-171.48 1413.76,-177.13"/>
<polygon fill="black" stroke="black" points="1412.94,-180.54 1423.51,-179.82 1414.8,-173.79 1412.94,-180.54"/>
</g>
<!-- 140662933574688 -->
<g id="node21" class="node">
<title>140662933574688</title>
<polygon fill="none" stroke="black" points="1543,-110.62 1344,-110.62 1344,-74.62 1543,-74.62 1543,-110.62"/>
<text text-anchor="middle" x="1443.5" y="-89.52" font-family="Times,serif" font-size="12.00">Check and configure software</text>
</g>
<!-- 140662936898624&#45;&gt;140662933574688 -->
<g id="edge22" class="edge">
<title>140662936898624&#45;&gt;140662933574688</title>
<path fill="none" stroke="black" d="M1303.65,-112.52C1312.12,-111.31 1322.5,-109.82 1333.75,-108.21"/>
<polygon fill="black" stroke="black" points="1334.42,-111.65 1343.82,-106.77 1333.43,-104.72 1334.42,-111.65"/>
</g>
<!-- 140662936911440 -->
<g id="node22" class="node">
<title>140662936911440</title>
<polygon fill="none" stroke="black" points="1536,-56.62 1351,-56.62 1351,-20.62 1536,-20.62 1536,-56.62"/>
<text text-anchor="middle" x="1443.5" y="-35.52" font-family="Times,serif" font-size="12.00">Check and repair hardware</text>
</g>
<!-- 140662936898624&#45;&gt;140662936911440 -->
<g id="edge24" class="edge">
<title>140662936898624&#45;&gt;140662936911440</title>
<path fill="none" stroke="black" d="M1292.45,-104.9C1304.05,-93.57 1323.81,-75.96 1344,-65.62 1347.58,-63.79 1351.3,-62.07 1355.11,-60.46"/>
<polygon fill="black" stroke="black" points="1356.71,-63.59 1364.72,-56.66 1354.14,-57.08 1356.71,-63.59"/>
</g>
<!-- 140662936896080&#45;&gt;140662936909472 -->
<g id="edge25" class="edge">
<title>140662936896080&#45;&gt;140662936909472</title>
<path fill="none" stroke="black" d="M1644.96,-324.76C1622.87,-334.47 1580.84,-351.36 1543,-357.62 1328.15,-393.19 1268.38,-389.89 1053,-357.62 1041.02,-355.83 1028.16,-352.19 1017.27,-348.57"/>
<polygon fill="black" stroke="black" points="1018.12,-345.16 1007.53,-345.16 1015.81,-351.77 1018.12,-345.16"/>
</g>
<!-- 140662936909952 -->
<g id="node25" class="node">
<title>140662936909952</title>
<polygon fill="none" stroke="black" points="1744,-559.62 1579,-559.62 1579,-523.62 1744,-523.62 1744,-559.62"/>
<text text-anchor="middle" x="1661.5" y="-538.52" font-family="Times,serif" font-size="12.00">Test system functionality</text>
</g>
<!-- 140662936906592&#45;&gt;140662936909952 -->
<g id="edge31" class="edge">
<title>140662936906592&#45;&gt;140662936909952</title>
<path fill="none" stroke="black" d="M1470.55,-541.62C1494.96,-541.62 1532.92,-541.62 1568.5,-541.62"/>
<polygon fill="black" stroke="black" points="1568.95,-545.12 1578.95,-541.62 1568.95,-538.12 1568.95,-545.12"/>
</g>
<!-- 140662936898816&#45;&gt;140662936895696 -->
<g id="edge26" class="edge">
<title>140662936898816&#45;&gt;140662936895696</title>
<path fill="none" stroke="black" d="M1647.08,-57.1C1625.93,-44.23 1583.13,-20.41 1543,-11.62 1340.6,32.66 1093.95,-68.19 1015.91,-103.78"/>
<polygon fill="black" stroke="black" points="1014.04,-100.79 1006.43,-108.16 1016.98,-107.14 1014.04,-100.79"/>
</g>
<!-- 140662936906784 -->
<g id="node26" class="node">
<title>140662936906784</title>
<polygon fill="none" stroke="black" points="1744,-267.62 1579,-267.62 1579,-231.62 1744,-231.62 1744,-267.62"/>
<text text-anchor="middle" x="1661.5" y="-246.52" font-family="Times,serif" font-size="12.00">Test system functionality</text>
</g>
<!-- 140662936907072&#45;&gt;140662936906784 -->
<g id="edge32" class="edge">
<title>140662936907072&#45;&gt;140662936906784</title>
<path fill="none" stroke="black" d="M1463.46,-189.55C1483.34,-194.78 1515.48,-203.41 1543,-211.62 1560.59,-216.88 1579.57,-222.87 1597.02,-228.52"/>
<polygon fill="black" stroke="black" points="1595.96,-231.85 1606.55,-231.61 1598.12,-225.19 1595.96,-231.85"/>
</g>
<!-- 140662933574688&#45;&gt;140662936898816 -->
<g id="edge27" class="edge">
<title>140662933574688&#45;&gt;140662936898816</title>
<path fill="none" stroke="black" d="M1543.02,-80.31C1573.76,-76.47 1605.52,-72.5 1628.26,-69.65"/>
<polygon fill="black" stroke="black" points="1628.86,-73.11 1638.35,-68.39 1627.99,-66.16 1628.86,-73.11"/>
</g>
<!-- 140662936911440&#45;&gt;140662936898816 -->
<g id="edge28" class="edge">
<title>140662936911440&#45;&gt;140662936898816</title>
<path fill="none" stroke="black" d="M1536.1,-50.08C1568.96,-54.18 1603.88,-58.55 1628.33,-61.6"/>
<polygon fill="black" stroke="black" points="1628.11,-65.1 1638.46,-62.87 1628.97,-58.16 1628.11,-65.1"/>
</g>
<!-- 140662936897232&#45;&gt;140662936896080 -->
<g id="edge29" class="edge">
<title>140662936897232&#45;&gt;140662936896080</title>
<path fill="none" stroke="black" d="M1543.02,-324.7C1572.99,-322.89 1603.94,-321.03 1626.54,-319.67"/>
<polygon fill="black" stroke="black" points="1626.85,-323.16 1636.62,-319.06 1626.43,-316.17 1626.85,-323.16"/>
</g>
<!-- 140662933581888&#45;&gt;140662936896080 -->
<g id="edge30" class="edge">
<title>140662933581888&#45;&gt;140662936896080</title>
<path fill="none" stroke="black" d="M1502.27,-256.68C1515.7,-261.08 1529.9,-265.88 1543,-270.62 1575,-282.21 1611.28,-296.98 1634.96,-306.84"/>
<polygon fill="black" stroke="black" points="1633.71,-310.11 1644.28,-310.74 1636.41,-303.65 1633.71,-310.11"/>
</g>
<!-- 140662936895552 -->
<g id="node28" class="node">
<title>140662936895552</title>
<polygon fill="none" stroke="black" points="1807,-559.62 1780,-541.62 1807,-523.62 1834,-541.62 1807,-559.62"/>
<text text-anchor="middle" x="1807" y="-538.52" font-family="Times,serif" font-size="12.00">X</text>
</g>
<!-- 140662936909952&#45;&gt;140662936895552 -->
<g id="edge33" class="edge">
<title>140662936909952&#45;&gt;140662936895552</title>
<path fill="none" stroke="black" d="M1744.31,-541.62C1753.14,-541.62 1761.76,-541.62 1769.62,-541.62"/>
<polygon fill="black" stroke="black" points="1769.83,-545.12 1779.83,-541.62 1769.83,-538.12 1769.83,-545.12"/>
</g>
<!-- 140662936907168 -->
<g id="node27" class="node">
<title>140662936907168</title>
<polygon fill="none" stroke="black" points="1807,-286.62 1780,-268.62 1807,-250.62 1834,-268.62 1807,-286.62"/>
<text text-anchor="middle" x="1807" y="-265.52" font-family="Times,serif" font-size="12.00">X</text>
</g>
<!-- 140662936906784&#45;&gt;140662936907168 -->
<g id="edge34" class="edge">
<title>140662936906784&#45;&gt;140662936907168</title>
<path fill="none" stroke="black" d="M1744.31,-260.46C1754.9,-261.86 1765.18,-263.22 1774.23,-264.42"/>
<polygon fill="black" stroke="black" points="1773.84,-267.9 1784.22,-265.74 1774.76,-260.96 1773.84,-267.9"/>
</g>
<!-- 140662936908704 -->
<g id="node30" class="node">
<title>140662936908704</title>
<polygon fill="none" stroke="black" points="2132,-263.62 2105,-245.62 2132,-227.62 2159,-245.62 2132,-263.62"/>
<text text-anchor="middle" x="2132" y="-242.52" font-family="Times,serif" font-size="12.00">X</text>
</g>
<!-- 140662936907168&#45;&gt;140662936908704 -->
<g id="edge38" class="edge">
<title>140662936907168&#45;&gt;140662936908704</title>
<path fill="none" stroke="black" d="M1822.22,-260.42C1834.44,-253.87 1852.76,-245.22 1870,-241.62 1951.63,-224.62 2050.75,-234.13 2100.05,-240.82"/>
<polygon fill="black" stroke="black" points="2099.68,-244.3 2110.07,-242.23 2100.66,-237.37 2099.68,-244.3"/>
</g>
<!-- 140662933418384 -->
<g id="node32" class="node">
<title>140662933418384</title>
<polygon fill="none" stroke="black" points="2069,-340.62 1870,-340.62 1870,-304.62 2069,-304.62 2069,-340.62"/>
<text text-anchor="middle" x="1969.5" y="-319.52" font-family="Times,serif" font-size="12.00">Check and configure software</text>
</g>
<!-- 140662936907168&#45;&gt;140662933418384 -->
<g id="edge37" class="edge">
<title>140662936907168&#45;&gt;140662933418384</title>
<path fill="none" stroke="black" d="M1823.3,-276.02C1835.7,-281.83 1853.72,-289.88 1870,-295.62 1875.87,-297.7 1881.98,-299.71 1888.16,-301.63"/>
<polygon fill="black" stroke="black" points="1887.31,-305.03 1897.9,-304.59 1889.35,-298.34 1887.31,-305.03"/>
</g>
<!-- 140662933580400 -->
<g id="node34" class="node">
<title>140662933580400</title>
<polygon fill="none" stroke="black" points="2062,-286.62 1877,-286.62 1877,-250.62 2062,-250.62 2062,-286.62"/>
<text text-anchor="middle" x="1969.5" y="-265.52" font-family="Times,serif" font-size="12.00">Check and repair hardware</text>
</g>
<!-- 140662936907168&#45;&gt;140662933580400 -->
<g id="edge36" class="edge">
<title>140662936907168&#45;&gt;140662933580400</title>
<path fill="none" stroke="black" d="M1834.14,-268.62C1843.51,-268.62 1854.72,-268.62 1866.62,-268.62"/>
<polygon fill="black" stroke="black" points="1866.75,-272.12 1876.75,-268.62 1866.75,-265.12 1866.75,-272.12"/>
</g>
<!-- 140662933576128 -->
<g id="node35" class="node">
<title>140662933576128</title>
<polygon fill="none" stroke="black" points="1969.5,-478.62 1942.5,-460.62 1969.5,-442.62 1996.5,-460.62 1969.5,-478.62"/>
<text text-anchor="middle" x="1969.5" y="-457.52" font-family="Times,serif" font-size="12.00">+</text>
</g>
<!-- 140662936907168&#45;&gt;140662933576128 -->
<g id="edge35" class="edge">
<title>140662936907168&#45;&gt;140662933576128</title>
<path fill="none" stroke="black" d="M1816.57,-280.37C1828.3,-296.31 1850.17,-325.58 1870,-349.62 1897.62,-383.11 1931.54,-420.6 1951.52,-442.32"/>
<polygon fill="black" stroke="black" points="1949.09,-444.85 1958.44,-449.83 1954.24,-440.1 1949.09,-444.85"/>
</g>
<!-- 140662936910816 -->
<g id="node29" class="node">
<title>140662936910816</title>
<polygon fill="none" stroke="black" points="2132,-609.62 2105,-591.62 2132,-573.62 2159,-591.62 2132,-609.62"/>
<text text-anchor="middle" x="2132" y="-588.52" font-family="Times,serif" font-size="12.00">X</text>
</g>
<!-- 140662936895552&#45;&gt;140662936910816 -->
<g id="edge40" class="edge">
<title>140662936895552&#45;&gt;140662936910816</title>
<path fill="none" stroke="black" d="M1816.98,-553.4C1827.86,-566.59 1847.54,-587.22 1870,-595.62 1949.67,-625.46 2052.84,-609.39 2102.21,-598.69"/>
<polygon fill="black" stroke="black" points="2103.19,-602.06 2112.18,-596.45 2101.65,-595.23 2103.19,-602.06"/>
</g>
<!-- 140662933572096 -->
<g id="node31" class="node">
<title>140662933572096</title>
<polygon fill="none" stroke="black" points="2069,-586.62 1870,-586.62 1870,-550.62 2069,-550.62 2069,-586.62"/>
<text text-anchor="middle" x="1969.5" y="-565.52" font-family="Times,serif" font-size="12.00">Check and configure software</text>
</g>
<!-- 140662936895552&#45;&gt;140662933572096 -->
<g id="edge41" class="edge">
<title>140662936895552&#45;&gt;140662933572096</title>
<path fill="none" stroke="black" d="M1828.98,-545.15C1837.61,-546.61 1848.31,-548.41 1859.91,-550.36"/>
<polygon fill="black" stroke="black" points="1859.4,-553.82 1869.85,-552.03 1860.56,-546.92 1859.4,-553.82"/>
</g>
<!-- 140662933577424 -->
<g id="node33" class="node">
<title>140662933577424</title>
<polygon fill="none" stroke="black" points="2062,-532.62 1877,-532.62 1877,-496.62 2062,-496.62 2062,-532.62"/>
<text text-anchor="middle" x="1969.5" y="-511.52" font-family="Times,serif" font-size="12.00">Check and repair hardware</text>
</g>
<!-- 140662936895552&#45;&gt;140662933577424 -->
<g id="edge42" class="edge">
<title>140662936895552&#45;&gt;140662933577424</title>
<path fill="none" stroke="black" d="M1828.98,-538.09C1839.27,-536.36 1852.49,-534.14 1866.69,-531.75"/>
<polygon fill="black" stroke="black" points="1867.36,-535.19 1876.64,-530.08 1866.2,-528.28 1867.36,-535.19"/>
</g>
<!-- 140662936895552&#45;&gt;140662933576128 -->
<g id="edge39" class="edge">
<title>140662936895552&#45;&gt;140662933576128</title>
<path fill="none" stroke="black" d="M1817.86,-530.45C1829.25,-518.2 1849.12,-498.82 1870,-487.62 1890.89,-476.43 1916.83,-469.56 1936.84,-465.56"/>
<polygon fill="black" stroke="black" points="1937.52,-468.99 1946.71,-463.71 1936.24,-462.11 1937.52,-468.99"/>
</g>
<!-- 140662936910816&#45;&gt;140662936906592 -->
<g id="edge44" class="edge">
<title>140662936910816&#45;&gt;140662936906592</title>
<path fill="none" stroke="black" d="M2116.74,-599.53C2104.5,-605.84 2086.16,-614.17 2069,-617.62 1854.44,-660.79 1794.23,-608.34 1579,-568.62 1543.02,-561.99 1501.8,-553.59 1474.57,-547.94"/>
<polygon fill="black" stroke="black" points="1475.02,-544.46 1464.51,-545.85 1473.59,-551.31 1475.02,-544.46"/>
</g>
<!-- 140662936908704&#45;&gt;140662936907072 -->
<g id="edge45" class="edge">
<title>140662936908704&#45;&gt;140662936907072</title>
<path fill="none" stroke="black" d="M2113.86,-239.58C2101.54,-235.49 2084.45,-230.37 2069,-227.62 1847.77,-188.36 1576.55,-184.47 1480.38,-184.43"/>
<polygon fill="black" stroke="black" points="1480.31,-180.93 1470.32,-184.44 1480.32,-187.93 1480.31,-180.93"/>
</g>
<!-- 140662933572096&#45;&gt;140662936910816 -->
<g id="edge46" class="edge">
<title>140662933572096&#45;&gt;140662936910816</title>
<path fill="none" stroke="black" d="M2069.41,-582.8C2080.26,-584.35 2090.62,-585.84 2099.66,-587.13"/>
<polygon fill="black" stroke="black" points="2099.2,-590.6 2109.59,-588.56 2100.19,-583.67 2099.2,-590.6"/>
</g>
<!-- 140662933418384&#45;&gt;140662936908704 -->
<g id="edge47" class="edge">
<title>140662933418384&#45;&gt;140662936908704</title>
<path fill="none" stroke="black" d="M2048.28,-304.59C2055.43,-301.95 2062.45,-298.98 2069,-295.62 2085.4,-287.23 2101.53,-274.03 2113.22,-263.3"/>
<polygon fill="black" stroke="black" points="2115.7,-265.77 2120.55,-256.35 2110.89,-260.69 2115.7,-265.77"/>
</g>
<!-- 140662933577424&#45;&gt;140662936910816 -->
<g id="edge48" class="edge">
<title>140662933577424&#45;&gt;140662936910816</title>
<path fill="none" stroke="black" d="M2048.28,-532.66C2055.43,-535.3 2062.45,-538.27 2069,-541.62 2085.4,-550.02 2101.53,-563.22 2113.22,-573.95"/>
<polygon fill="black" stroke="black" points="2110.89,-576.56 2120.55,-580.9 2115.7,-571.48 2110.89,-576.56"/>
</g>
<!-- 140662933580400&#45;&gt;140662936908704 -->
<g id="edge49" class="edge">
<title>140662933580400&#45;&gt;140662936908704</title>
<path fill="none" stroke="black" d="M2062,-255.51C2075.45,-253.59 2088.46,-251.72 2099.49,-250.14"/>
<polygon fill="black" stroke="black" points="2100.01,-253.6 2109.42,-248.72 2099.02,-246.67 2100.01,-253.6"/>
</g>
<!-- 140662933576128&#45;&gt;140662936904672 -->
<g id="edge43" class="edge">
<title>140662933576128&#45;&gt;140662936904672</title>
<path fill="none" stroke="black" d="M1992.15,-457.52C2019.74,-453.57 2067.67,-446.7 2099.37,-442.16"/>
<polygon fill="black" stroke="black" points="2100.04,-445.6 2109.44,-440.71 2099.05,-438.67 2100.04,-445.6"/>
</g>
</g>
</svg>
