<?xml version="1.0" encoding="UTF-8" standalone="no"?>
<!DOCTYPE svg PUBLIC "-//W3C//DTD SVG 1.1//EN"
 "http://www.w3.org/Graphics/SVG/1.1/DTD/svg11.dtd">
<!-- Generated by graphviz version 2.43.0 (0)
 -->
<!-- Title: %3 Pages: 1 -->
<svg width="2029pt" height="214pt"
 viewBox="0.00 0.00 2029.00 214.00" xmlns="http://www.w3.org/2000/svg" xmlns:xlink="http://www.w3.org/1999/xlink">
<g id="graph0" class="graph" transform="scale(1 1) rotate(0) translate(4 210)">
<title>%3</title>
<polygon fill="white" stroke="transparent" points="-4,4 -4,-210 2025,-210 2025,4 -4,4"/>
<!-- 140662937028832 -->
<g id="node1" class="node">
<title>140662937028832</title>
<ellipse fill="green" stroke="black" cx="18" cy="-164" rx="18" ry="18"/>
</g>
<!-- 140662936902368 -->
<g id="node2" class="node">
<title>140662936902368</title>
<polygon fill="none" stroke="black" points="167,-182 72,-182 72,-146 167,-146 167,-182"/>
<text text-anchor="middle" x="119.5" y="-160.9" font-family="Times,serif" font-size="12.00">Check defect</text>
</g>
<!-- 140662937028832&#45;&gt;140662936902368 -->
<g id="edge1" class="edge">
<title>140662937028832&#45;&gt;140662936902368</title>
<path fill="none" stroke="black" d="M36.33,-164C43.61,-164 52.53,-164 61.77,-164"/>
<polygon fill="black" stroke="black" points="61.87,-167.5 71.87,-164 61.87,-160.5 61.87,-167.5"/>
</g>
<!-- 140662936896848 -->
<g id="node3" class="node">
<title>140662936896848</title>
<polygon fill="none" stroke="black" points="352,-182 203,-182 203,-146 352,-146 352,-182"/>
<text text-anchor="middle" x="277.5" y="-160.9" font-family="Times,serif" font-size="12.00">Calculate repair costs</text>
</g>
<!-- 140662936902368&#45;&gt;140662936896848 -->
<g id="edge2" class="edge">
<title>140662936902368&#45;&gt;140662936896848</title>
<path fill="none" stroke="black" d="M167.31,-164C175.37,-164 183.96,-164 192.66,-164"/>
<polygon fill="black" stroke="black" points="192.88,-167.5 202.88,-164 192.88,-160.5 192.88,-167.5"/>
</g>
<!-- 140662937029312 -->
<g id="node4" class="node">
<title>140662937029312</title>
<polygon fill="none" stroke="black" points="415,-182 388,-164 415,-146 442,-164 415,-182"/>
<text text-anchor="middle" x="415" y="-160.9" font-family="Times,serif" font-size="12.00">X</text>
</g>
<!-- 140662936896848&#45;&gt;140662937029312 -->
<g id="edge3" class="edge">
<title>140662936896848&#45;&gt;140662937029312</title>
<path fill="none" stroke="black" d="M352.2,-164C361.09,-164 369.84,-164 377.84,-164"/>
<polygon fill="black" stroke="black" points="377.86,-167.5 387.86,-164 377.86,-160.5 377.86,-167.5"/>
</g>
<!-- 140662936911200 -->
<g id="node5" class="node">
<title>140662936911200</title>
<polygon fill="none" stroke="black" points="1728,-206 1483,-206 1483,-170 1728,-170 1728,-206"/>
<text text-anchor="middle" x="1605.5" y="-184.9" font-family="Times,serif" font-size="12.00">Cancel and give computer unrepaired</text>
</g>
<!-- 140662937029312&#45;&gt;140662936911200 -->
<g id="edge5" class="edge">
<title>140662937029312&#45;&gt;140662936911200</title>
<path fill="none" stroke="black" d="M436.25,-167.92C480.07,-176.05 587.02,-194 677.5,-194 677.5,-194 677.5,-194 1237.5,-194 1315.39,-194 1402.58,-192.63 1472.42,-191.2"/>
<polygon fill="black" stroke="black" points="1472.67,-194.7 1482.59,-190.99 1472.52,-187.7 1472.67,-194.7"/>
</g>
<!-- 140662937034016 -->
<g id="node6" class="node">
<title>140662937034016</title>
<polygon fill="none" stroke="black" points="505,-159 478,-141 505,-123 532,-141 505,-159"/>
<text text-anchor="middle" x="505" y="-137.9" font-family="Times,serif" font-size="12.00">+</text>
</g>
<!-- 140662937029312&#45;&gt;140662937034016 -->
<g id="edge4" class="edge">
<title>140662937029312&#45;&gt;140662937034016</title>
<path fill="none" stroke="black" d="M435.09,-159.01C446.82,-155.94 462.07,-151.96 475.24,-148.52"/>
<polygon fill="black" stroke="black" points="476.45,-151.82 485.24,-145.9 474.68,-145.04 476.45,-151.82"/>
</g>
<!-- 140662937040160 -->
<g id="node7" class="node">
<title>140662937040160</title>
<polygon fill="none" stroke="black" points="1922,-168 1895,-150 1922,-132 1949,-150 1922,-168"/>
<text text-anchor="middle" x="1922" y="-146.9" font-family="Times,serif" font-size="12.00">X</text>
</g>
<!-- 140662936911200&#45;&gt;140662937040160 -->
<g id="edge6" class="edge">
<title>140662936911200&#45;&gt;140662937040160</title>
<path fill="none" stroke="black" d="M1728.09,-173.31C1785.99,-166.31 1850.69,-158.5 1888.52,-153.92"/>
<polygon fill="black" stroke="black" points="1889.39,-157.34 1898.9,-152.67 1888.55,-150.4 1889.39,-157.34"/>
</g>
<!-- 140662936910624 -->
<g id="node8" class="node">
<title>140662936910624</title>
<polygon fill="none" stroke="black" points="782,-159 575,-159 575,-123 782,-123 782,-159"/>
<text text-anchor="middle" x="678.5" y="-137.9" font-family="Times,serif" font-size="12.00">Check and repair the hardware</text>
</g>
<!-- 140662937034016&#45;&gt;140662936910624 -->
<g id="edge8" class="edge">
<title>140662937034016&#45;&gt;140662936910624</title>
<path fill="none" stroke="black" d="M532.05,-141C541.34,-141 552.5,-141 564.45,-141"/>
<polygon fill="black" stroke="black" points="564.64,-144.5 574.64,-141 564.64,-137.5 564.64,-144.5"/>
</g>
<!-- 140662937040976 -->
<g id="node9" class="node">
<title>140662937040976</title>
<polygon fill="none" stroke="black" points="789,-101 568,-101 568,-65 789,-65 789,-101"/>
<text text-anchor="middle" x="678.5" y="-79.9" font-family="Times,serif" font-size="12.00">Check and configure the software</text>
</g>
<!-- 140662937034016&#45;&gt;140662937040976 -->
<g id="edge7" class="edge">
<title>140662937034016&#45;&gt;140662937040976</title>
<path fill="none" stroke="black" d="M521.31,-133.64C533.72,-127.85 551.75,-119.81 568,-114 577.8,-110.5 588.2,-107.12 598.54,-103.97"/>
<polygon fill="black" stroke="black" points="599.84,-107.24 608.42,-101.03 597.83,-100.53 599.84,-107.24"/>
</g>
<!-- 140662937033632 -->
<g id="node20" class="node">
<title>140662937033632</title>
<ellipse fill="orange" stroke="black" cx="2003" cy="-150" rx="18" ry="18"/>
</g>
<!-- 140662937040160&#45;&gt;140662937033632 -->
<g id="edge11" class="edge">
<title>140662937040160&#45;&gt;140662937033632</title>
<path fill="none" stroke="black" d="M1949.31,-150C1957.42,-150 1966.37,-150 1974.56,-150"/>
<polygon fill="black" stroke="black" points="1974.75,-153.5 1984.75,-150 1974.75,-146.5 1974.75,-153.5"/>
</g>
<!-- 140662937036752 -->
<g id="node11" class="node">
<title>140662937036752</title>
<polygon fill="none" stroke="black" points="990,-159 825,-159 825,-123 990,-123 990,-159"/>
<text text-anchor="middle" x="907.5" y="-137.9" font-family="Times,serif" font-size="12.00">Test system functionality</text>
</g>
<!-- 140662936910624&#45;&gt;140662937036752 -->
<g id="edge9" class="edge">
<title>140662936910624&#45;&gt;140662937036752</title>
<path fill="none" stroke="black" d="M782.04,-141C792.9,-141 803.9,-141 814.63,-141"/>
<polygon fill="black" stroke="black" points="814.82,-144.5 824.82,-141 814.82,-137.5 814.82,-144.5"/>
</g>
<!-- 140662937028112 -->
<g id="node10" class="node">
<title>140662937028112</title>
<polygon fill="none" stroke="black" points="990,-86 825,-86 825,-50 990,-50 990,-86"/>
<text text-anchor="middle" x="907.5" y="-64.9" font-family="Times,serif" font-size="12.00">Test system functionality</text>
</g>
<!-- 140662937040976&#45;&gt;140662937028112 -->
<g id="edge10" class="edge">
<title>140662937040976&#45;&gt;140662937028112</title>
<path fill="none" stroke="black" d="M789.01,-75.76C797.55,-75.2 806.13,-74.63 814.54,-74.08"/>
<polygon fill="black" stroke="black" points="814.96,-77.56 824.7,-73.41 814.49,-70.57 814.96,-77.56"/>
</g>
<!-- 140662937032624 -->
<g id="node13" class="node">
<title>140662937032624</title>
<polygon fill="none" stroke="black" points="1053,-82 1026,-64 1053,-46 1080,-64 1053,-82"/>
<text text-anchor="middle" x="1053" y="-60.9" font-family="Times,serif" font-size="12.00">X</text>
</g>
<!-- 140662937028112&#45;&gt;140662937032624 -->
<g id="edge12" class="edge">
<title>140662937028112&#45;&gt;140662937032624</title>
<path fill="none" stroke="black" d="M990.31,-65.72C999.59,-65.46 1008.64,-65.21 1016.82,-64.98"/>
<polygon fill="black" stroke="black" points="1017.13,-68.47 1027.02,-64.7 1016.93,-61.48 1017.13,-68.47"/>
</g>
<!-- 140662937026864 -->
<g id="node12" class="node">
<title>140662937026864</title>
<polygon fill="none" stroke="black" points="1053,-159 1026,-141 1053,-123 1080,-141 1053,-159"/>
<text text-anchor="middle" x="1053" y="-137.9" font-family="Times,serif" font-size="12.00">X</text>
</g>
<!-- 140662937036752&#45;&gt;140662937026864 -->
<g id="edge13" class="edge">
<title>140662937036752&#45;&gt;140662937026864</title>
<path fill="none" stroke="black" d="M990.31,-141C999.14,-141 1007.76,-141 1015.62,-141"/>
<polygon fill="black" stroke="black" points="1015.83,-144.5 1025.83,-141 1015.83,-137.5 1015.83,-144.5"/>
</g>
<!-- 140662937036032 -->
<g id="node14" class="node">
<title>140662937036032</title>
<polygon fill="none" stroke="black" points="1420,-141 1393,-123 1420,-105 1447,-123 1420,-141"/>
<text text-anchor="middle" x="1420" y="-119.9" font-family="Times,serif" font-size="12.00">X</text>
</g>
<!-- 140662937026864&#45;&gt;140662937036032 -->
<g id="edge15" class="edge">
<title>140662937026864&#45;&gt;140662937036032</title>
<path fill="none" stroke="black" d="M1078.07,-142.38C1129.5,-144.95 1253.82,-149.2 1357,-137 1368.18,-135.68 1380.29,-133.19 1390.82,-130.67"/>
<polygon fill="black" stroke="black" points="1391.88,-134.01 1400.73,-128.18 1390.18,-127.22 1391.88,-134.01"/>
</g>
<!-- 140662937034112 -->
<g id="node16" class="node">
<title>140662937034112</title>
<polygon fill="none" stroke="black" points="1357,-128 1116,-128 1116,-92 1357,-92 1357,-128"/>
<text text-anchor="middle" x="1236.5" y="-106.9" font-family="Times,serif" font-size="12.00">Perform additional hardware repairs</text>
</g>
<!-- 140662937026864&#45;&gt;140662937034112 -->
<g id="edge14" class="edge">
<title>140662937026864&#45;&gt;140662937034112</title>
<path fill="none" stroke="black" d="M1074.82,-137.44C1086.65,-135.42 1102.51,-132.72 1119.66,-129.79"/>
<polygon fill="black" stroke="black" points="1120.62,-133.17 1129.89,-128.04 1119.44,-126.27 1120.62,-133.17"/>
</g>
<!-- 140662937035120 -->
<g id="node15" class="node">
<title>140662937035120</title>
<polygon fill="none" stroke="black" points="1420,-82 1393,-64 1420,-46 1447,-64 1420,-82"/>
<text text-anchor="middle" x="1420" y="-60.9" font-family="Times,serif" font-size="12.00">X</text>
</g>
<!-- 140662937032624&#45;&gt;140662937035120 -->
<g id="edge17" class="edge">
<title>140662937032624&#45;&gt;140662937035120</title>
<path fill="none" stroke="black" d="M1080.25,-64C1144.44,-64 1309.43,-64 1382.84,-64"/>
<polygon fill="black" stroke="black" points="1382.99,-67.5 1392.99,-64 1382.99,-60.5 1382.99,-67.5"/>
</g>
<!-- 140662933516448 -->
<g id="node17" class="node">
<title>140662933516448</title>
<polygon fill="none" stroke="black" points="1354,-36 1119,-36 1119,0 1354,0 1354,-36"/>
<text text-anchor="middle" x="1236.5" y="-14.9" font-family="Times,serif" font-size="12.00">Perform additional software repairs</text>
</g>
<!-- 140662937032624&#45;&gt;140662933516448 -->
<g id="edge16" class="edge">
<title>140662937032624&#45;&gt;140662933516448</title>
<path fill="none" stroke="black" d="M1073.08,-59.16C1092.63,-54.21 1124.35,-46.17 1154.6,-38.5"/>
<polygon fill="black" stroke="black" points="1155.52,-41.88 1164.35,-36.03 1153.8,-35.1 1155.52,-41.88"/>
</g>
<!-- 140662936904624 -->
<g id="node18" class="node">
<title>140662936904624</title>
<polygon fill="none" stroke="black" points="1605.5,-141 1578.5,-123 1605.5,-105 1632.5,-123 1605.5,-141"/>
<text text-anchor="middle" x="1605.5" y="-119.9" font-family="Times,serif" font-size="12.00">+</text>
</g>
<!-- 140662937036032&#45;&gt;140662936904624 -->
<g id="edge20" class="edge">
<title>140662937036032&#45;&gt;140662936904624</title>
<path fill="none" stroke="black" d="M1447.29,-123C1478.9,-123 1532.15,-123 1567.8,-123"/>
<polygon fill="black" stroke="black" points="1568.26,-126.5 1578.26,-123 1568.26,-119.5 1568.26,-126.5"/>
</g>
<!-- 140662937035120&#45;&gt;140662936904624 -->
<g id="edge21" class="edge">
<title>140662937035120&#45;&gt;140662936904624</title>
<path fill="none" stroke="black" d="M1438.59,-69.66C1470.65,-79.97 1538.8,-101.87 1577.02,-114.17"/>
<polygon fill="black" stroke="black" points="1576.37,-117.63 1586.96,-117.36 1578.51,-110.97 1576.37,-117.63"/>
</g>
<!-- 140662937034112&#45;&gt;140662937036032 -->
<g id="edge18" class="edge">
<title>140662937034112&#45;&gt;140662937036032</title>
<path fill="none" stroke="black" d="M1357.05,-118.56C1367.22,-119.29 1376.85,-119.98 1385.36,-120.59"/>
<polygon fill="black" stroke="black" points="1385.26,-124.09 1395.49,-121.32 1385.76,-117.11 1385.26,-124.09"/>
</g>
<!-- 140662933516448&#45;&gt;140662937035120 -->
<g id="edge19" class="edge">
<title>140662933516448&#45;&gt;140662937035120</title>
<path fill="none" stroke="black" d="M1308.71,-36.05C1337.05,-43.23 1368.05,-51.09 1389.95,-56.64"/>
<polygon fill="black" stroke="black" points="1389.36,-60.1 1399.92,-59.16 1391.08,-53.31 1389.36,-60.1"/>
</g>
<!-- 140662936909040 -->
<g id="node19" class="node">
<title>140662936909040</title>
<polygon fill="none" stroke="black" points="1859,-145 1764,-145 1764,-109 1859,-109 1859,-145"/>
<text text-anchor="middle" x="1811.5" y="-123.9" font-family="Times,serif" font-size="12.00">Finish repair</text>
</g>
<!-- 140662936904624&#45;&gt;140662936909040 -->
<g id="edge22" class="edge">
<title>140662936904624&#45;&gt;140662936909040</title>
<path fill="none" stroke="black" d="M1631.92,-123.5C1662.19,-124.09 1713.64,-125.1 1753.57,-125.88"/>
<polygon fill="black" stroke="black" points="1753.64,-129.39 1763.71,-126.08 1753.78,-122.39 1753.64,-129.39"/>
</g>
<!-- 140662936909040&#45;&gt;140662937040160 -->
<g id="edge23" class="edge">
<title>140662936909040&#45;&gt;140662937040160</title>
<path fill="none" stroke="black" d="M1859.14,-136.89C1869.94,-139.18 1881.15,-141.55 1891.01,-143.64"/>
<polygon fill="black" stroke="black" points="1890.59,-147.13 1901.1,-145.78 1892.04,-140.28 1890.59,-147.13"/>
</g>
</g>
</svg>
