<?xml version="1.0" encoding="UTF-8" standalone="no"?>
<!DOCTYPE svg PUBLIC "-//W3C//DTD SVG 1.1//EN"
 "http://www.w3.org/Graphics/SVG/1.1/DTD/svg11.dtd">
<!-- Generated by graphviz version 2.43.0 (0)
 -->
<!-- Title: %3 Pages: 1 -->
<svg width="2408pt" height="172pt"
 viewBox="0.00 0.00 2408.00 172.00" xmlns="http://www.w3.org/2000/svg" xmlns:xlink="http://www.w3.org/1999/xlink">
<g id="graph0" class="graph" transform="scale(1 1) rotate(0) translate(4 168)">
<title>%3</title>
<polygon fill="white" stroke="transparent" points="-4,4 -4,-168 2404,-168 2404,4 -4,4"/>
<!-- 140662937032624 -->
<g id="node1" class="node">
<title>140662937032624</title>
<ellipse fill="green" stroke="black" cx="18" cy="-41" rx="18" ry="18"/>
</g>
<!-- 140662936907504 -->
<g id="node2" class="node">
<title>140662936907504</title>
<polygon fill="none" stroke="black" points="167,-59 72,-59 72,-23 167,-23 167,-59"/>
<text text-anchor="middle" x="119.5" y="-37.9" font-family="Times,serif" font-size="12.00">Check defect</text>
</g>
<!-- 140662937032624&#45;&gt;140662936907504 -->
<g id="edge1" class="edge">
<title>140662937032624&#45;&gt;140662936907504</title>
<path fill="none" stroke="black" d="M36.33,-41C43.61,-41 52.53,-41 61.77,-41"/>
<polygon fill="black" stroke="black" points="61.87,-44.5 71.87,-41 61.87,-37.5 61.87,-44.5"/>
</g>
<!-- 140662933414688 -->
<g id="node3" class="node">
<title>140662933414688</title>
<polygon fill="none" stroke="black" points="352,-59 203,-59 203,-23 352,-23 352,-59"/>
<text text-anchor="middle" x="277.5" y="-37.9" font-family="Times,serif" font-size="12.00">Calculate repair costs</text>
</g>
<!-- 140662936907504&#45;&gt;140662933414688 -->
<g id="edge2" class="edge">
<title>140662936907504&#45;&gt;140662933414688</title>
<path fill="none" stroke="black" d="M167.31,-41C175.37,-41 183.96,-41 192.66,-41"/>
<polygon fill="black" stroke="black" points="192.88,-44.5 202.88,-41 192.88,-37.5 192.88,-44.5"/>
</g>
<!-- 140662936907120 -->
<g id="node4" class="node">
<title>140662936907120</title>
<polygon fill="none" stroke="black" points="415,-59 388,-41 415,-23 442,-41 415,-59"/>
<text text-anchor="middle" x="415" y="-37.9" font-family="Times,serif" font-size="12.00">X</text>
</g>
<!-- 140662933414688&#45;&gt;140662936907120 -->
<g id="edge3" class="edge">
<title>140662933414688&#45;&gt;140662936907120</title>
<path fill="none" stroke="black" d="M352.2,-41C361.09,-41 369.84,-41 377.84,-41"/>
<polygon fill="black" stroke="black" points="377.86,-44.5 387.86,-41 377.86,-37.5 377.86,-44.5"/>
</g>
<!-- 140662936903904 -->
<g id="node5" class="node">
<title>140662936903904</title>
<polygon fill="none" stroke="black" points="505,-82 478,-64 505,-46 532,-64 505,-82"/>
<text text-anchor="middle" x="505" y="-60.9" font-family="Times,serif" font-size="12.00">+</text>
</g>
<!-- 140662936907120&#45;&gt;140662936903904 -->
<g id="edge4" class="edge">
<title>140662936907120&#45;&gt;140662936903904</title>
<path fill="none" stroke="black" d="M435.09,-45.99C446.82,-49.06 462.07,-53.04 475.24,-56.48"/>
<polygon fill="black" stroke="black" points="474.68,-59.96 485.24,-59.1 476.45,-53.18 474.68,-59.96"/>
</g>
<!-- 140662936898096 -->
<g id="node6" class="node">
<title>140662936898096</title>
<polygon fill="none" stroke="black" points="1271,-36 1026,-36 1026,0 1271,0 1271,-36"/>
<text text-anchor="middle" x="1148.5" y="-14.9" font-family="Times,serif" font-size="12.00">Cancel and give computer unrepaired</text>
</g>
<!-- 140662936907120&#45;&gt;140662936898096 -->
<g id="edge5" class="edge">
<title>140662936907120&#45;&gt;140662936898096</title>
<path fill="none" stroke="black" d="M439.54,-39.28C451.12,-38.49 465.29,-37.59 478,-37 664.51,-28.34 880.43,-23.07 1015.5,-20.34"/>
<polygon fill="black" stroke="black" points="1015.97,-23.83 1025.89,-20.13 1015.83,-16.84 1015.97,-23.83"/>
</g>
<!-- 140662936910576 -->
<g id="node8" class="node">
<title>140662936910576</title>
<polygon fill="none" stroke="black" points="789,-82 568,-82 568,-46 789,-46 789,-82"/>
<text text-anchor="middle" x="678.5" y="-60.9" font-family="Times,serif" font-size="12.00">Check and configure the software</text>
</g>
<!-- 140662936903904&#45;&gt;140662936910576 -->
<g id="edge6" class="edge">
<title>140662936903904&#45;&gt;140662936910576</title>
<path fill="none" stroke="black" d="M532.05,-64C539.48,-64 548.1,-64 557.36,-64"/>
<polygon fill="black" stroke="black" points="557.64,-67.5 567.64,-64 557.64,-60.5 557.64,-67.5"/>
</g>
<!-- 140662936910720 -->
<g id="node9" class="node">
<title>140662936910720</title>
<polygon fill="none" stroke="black" points="782,-136 575,-136 575,-100 782,-100 782,-136"/>
<text text-anchor="middle" x="678.5" y="-114.9" font-family="Times,serif" font-size="12.00">Check and repair the hardware</text>
</g>
<!-- 140662936903904&#45;&gt;140662936910720 -->
<g id="edge7" class="edge">
<title>140662936903904&#45;&gt;140662936910720</title>
<path fill="none" stroke="black" d="M521.01,-71.39C533.39,-77.28 551.54,-85.43 568,-91 574.36,-93.15 580.97,-95.21 587.66,-97.16"/>
<polygon fill="black" stroke="black" points="586.93,-100.59 597.5,-99.94 588.83,-93.85 586.93,-100.59"/>
</g>
<!-- 140662936895792 -->
<g id="node7" class="node">
<title>140662936895792</title>
<polygon fill="none" stroke="black" points="1738.5,-38 1711.5,-20 1738.5,-2 1765.5,-20 1738.5,-38"/>
<text text-anchor="middle" x="1738.5" y="-16.9" font-family="Times,serif" font-size="12.00">X</text>
</g>
<!-- 140662936898096&#45;&gt;140662936895792 -->
<g id="edge8" class="edge">
<title>140662936898096&#45;&gt;140662936895792</title>
<path fill="none" stroke="black" d="M1271.33,-18.41C1406.82,-18.88 1617.63,-19.59 1701.4,-19.88"/>
<polygon fill="black" stroke="black" points="1701.43,-23.38 1711.44,-19.91 1701.45,-16.38 1701.43,-23.38"/>
</g>
<!-- 140662937027584 -->
<g id="node22" class="node">
<title>140662937027584</title>
<ellipse fill="orange" stroke="black" cx="1922" cy="-20" rx="18" ry="18"/>
</g>
<!-- 140662936895792&#45;&gt;140662937027584 -->
<g id="edge11" class="edge">
<title>140662936895792&#45;&gt;140662937027584</title>
<path fill="none" stroke="black" d="M1765.5,-20C1799.47,-20 1858.68,-20 1893.41,-20"/>
<polygon fill="black" stroke="black" points="1893.76,-23.5 1903.76,-20 1893.76,-16.5 1893.76,-23.5"/>
</g>
<!-- 140662936904960 -->
<g id="node11" class="node">
<title>140662936904960</title>
<polygon fill="none" stroke="black" points="990,-82 825,-82 825,-46 990,-46 990,-82"/>
<text text-anchor="middle" x="907.5" y="-60.9" font-family="Times,serif" font-size="12.00">Test system functionality</text>
</g>
<!-- 140662936910576&#45;&gt;140662936904960 -->
<g id="edge9" class="edge">
<title>140662936910576&#45;&gt;140662936904960</title>
<path fill="none" stroke="black" d="M789.01,-64C797.55,-64 806.13,-64 814.54,-64"/>
<polygon fill="black" stroke="black" points="814.7,-67.5 824.7,-64 814.7,-60.5 814.7,-67.5"/>
</g>
<!-- 140662936904144 -->
<g id="node10" class="node">
<title>140662936904144</title>
<polygon fill="none" stroke="black" points="990,-136 825,-136 825,-100 990,-100 990,-136"/>
<text text-anchor="middle" x="907.5" y="-114.9" font-family="Times,serif" font-size="12.00">Test system functionality</text>
</g>
<!-- 140662936910720&#45;&gt;140662936904144 -->
<g id="edge10" class="edge">
<title>140662936910720&#45;&gt;140662936904144</title>
<path fill="none" stroke="black" d="M782.04,-118C792.9,-118 803.9,-118 814.63,-118"/>
<polygon fill="black" stroke="black" points="814.82,-121.5 824.82,-118 814.82,-114.5 814.82,-121.5"/>
</g>
<!-- 140662933416656 -->
<g id="node12" class="node">
<title>140662933416656</title>
<polygon fill="none" stroke="black" points="1148.5,-136 1121.5,-118 1148.5,-100 1175.5,-118 1148.5,-136"/>
<text text-anchor="middle" x="1148.5" y="-114.9" font-family="Times,serif" font-size="12.00">+</text>
</g>
<!-- 140662936904144&#45;&gt;140662933416656 -->
<g id="edge12" class="edge">
<title>140662936904144&#45;&gt;140662933416656</title>
<path fill="none" stroke="black" d="M990.08,-118C1031.27,-118 1079.16,-118 1111.2,-118"/>
<polygon fill="black" stroke="black" points="1111.43,-121.5 1121.43,-118 1111.43,-114.5 1111.43,-121.5"/>
</g>
<!-- 140662936904960&#45;&gt;140662933416656 -->
<g id="edge13" class="edge">
<title>140662936904960&#45;&gt;140662933416656</title>
<path fill="none" stroke="black" d="M988.42,-82.06C1032.79,-92.08 1085.38,-103.97 1117.59,-111.24"/>
<polygon fill="black" stroke="black" points="1117.16,-114.73 1127.69,-113.52 1118.71,-107.91 1117.16,-114.73"/>
</g>
<!-- 140662936904192 -->
<g id="node13" class="node">
<title>140662936904192</title>
<polygon fill="none" stroke="black" points="1334,-136 1307,-118 1334,-100 1361,-118 1334,-136"/>
<text text-anchor="middle" x="1334" y="-114.9" font-family="Times,serif" font-size="12.00">X</text>
</g>
<!-- 140662933416656&#45;&gt;140662936904192 -->
<g id="edge14" class="edge">
<title>140662933416656&#45;&gt;140662936904192</title>
<path fill="none" stroke="black" d="M1175.79,-118C1207.4,-118 1260.65,-118 1296.3,-118"/>
<polygon fill="black" stroke="black" points="1296.76,-121.5 1306.76,-118 1296.76,-114.5 1296.76,-121.5"/>
</g>
<!-- 140662936904528 -->
<g id="node14" class="node">
<title>140662936904528</title>
<polygon fill="none" stroke="black" points="1424,-136 1397,-118 1424,-100 1451,-118 1424,-136"/>
<text text-anchor="middle" x="1424" y="-114.9" font-family="Times,serif" font-size="12.00">X</text>
</g>
<!-- 140662936904192&#45;&gt;140662936904528 -->
<g id="edge15" class="edge">
<title>140662936904192&#45;&gt;140662936904528</title>
<path fill="none" stroke="black" d="M1361.4,-118C1369.39,-118 1378.31,-118 1386.82,-118"/>
<polygon fill="black" stroke="black" points="1386.92,-121.5 1396.92,-118 1386.92,-114.5 1386.92,-121.5"/>
</g>
<!-- 140662936903280 -->
<g id="node15" class="node">
<title>140662936903280</title>
<polygon fill="none" stroke="black" points="1534.5,-136 1507.5,-118 1534.5,-100 1561.5,-118 1534.5,-136"/>
<text text-anchor="middle" x="1534.5" y="-114.9" font-family="Times,serif" font-size="12.00">X</text>
</g>
<!-- 140662936904528&#45;&gt;140662936903280 -->
<g id="edge17" class="edge">
<title>140662936904528&#45;&gt;140662936903280</title>
<path fill="none" stroke="black" d="M1451.26,-118C1465.13,-118 1482.34,-118 1497.43,-118"/>
<polygon fill="black" stroke="black" points="1497.48,-121.5 1507.48,-118 1497.48,-114.5 1497.48,-121.5"/>
</g>
<!-- 140662936906544 -->
<g id="node16" class="node">
<title>140662936906544</title>
<polygon fill="none" stroke="black" points="1582,-82 1487,-82 1487,-46 1582,-46 1582,-82"/>
<text text-anchor="middle" x="1534.5" y="-60.9" font-family="Times,serif" font-size="12.00">Finish repair</text>
</g>
<!-- 140662936904528&#45;&gt;140662936906544 -->
<g id="edge16" class="edge">
<title>140662936904528&#45;&gt;140662936906544</title>
<path fill="none" stroke="black" d="M1440.09,-110.49C1452.47,-104.33 1470.68,-95.27 1487.73,-86.78"/>
<polygon fill="black" stroke="black" points="1489.66,-89.73 1497.05,-82.14 1486.54,-83.46 1489.66,-89.73"/>
</g>
<!-- 140662936911104 -->
<g id="node17" class="node">
<title>140662936911104</title>
<polygon fill="none" stroke="black" points="1922,-117 1895,-99 1922,-81 1949,-99 1922,-117"/>
<text text-anchor="middle" x="1922" y="-95.9" font-family="Times,serif" font-size="12.00">X</text>
</g>
<!-- 140662936903280&#45;&gt;140662936911104 -->
<g id="edge19" class="edge">
<title>140662936903280&#45;&gt;140662936911104</title>
<path fill="none" stroke="black" d="M1561.11,-117.46C1615.84,-116.2 1748.25,-112.58 1859,-105 1868.56,-104.35 1878.94,-103.43 1888.41,-102.5"/>
<polygon fill="black" stroke="black" points="1889.04,-105.96 1898.64,-101.47 1888.34,-98.99 1889.04,-105.96"/>
</g>
<!-- 140662936911680 -->
<g id="node18" class="node">
<title>140662936911680</title>
<polygon fill="none" stroke="black" points="1859,-96 1618,-96 1618,-60 1859,-60 1859,-96"/>
<text text-anchor="middle" x="1738.5" y="-74.9" font-family="Times,serif" font-size="12.00">Perform additional hardware repairs</text>
</g>
<!-- 140662936903280&#45;&gt;140662936911680 -->
<g id="edge20" class="edge">
<title>140662936903280&#45;&gt;140662936911680</title>
<path fill="none" stroke="black" d="M1555.61,-114.02C1574.97,-110.18 1605.77,-104.08 1636.57,-97.99"/>
<polygon fill="black" stroke="black" points="1637.42,-101.39 1646.55,-96.01 1636.06,-94.52 1637.42,-101.39"/>
</g>
<!-- 140662936906544&#45;&gt;140662936895792 -->
<g id="edge18" class="edge">
<title>140662936906544&#45;&gt;140662936895792</title>
<path fill="none" stroke="black" d="M1582.1,-53.85C1620.79,-45.42 1674.66,-33.69 1707.75,-26.48"/>
<polygon fill="black" stroke="black" points="1708.69,-29.86 1717.71,-24.31 1707.2,-23.02 1708.69,-29.86"/>
</g>
<!-- 140662936896848 -->
<g id="node19" class="node">
<title>140662936896848</title>
<polygon fill="none" stroke="black" points="2012,-117 1985,-99 2012,-81 2039,-99 2012,-117"/>
<text text-anchor="middle" x="2012" y="-95.9" font-family="Times,serif" font-size="12.00">X</text>
</g>
<!-- 140662936911104&#45;&gt;140662936896848 -->
<g id="edge22" class="edge">
<title>140662936911104&#45;&gt;140662936896848</title>
<path fill="none" stroke="black" d="M1949.4,-99C1957.39,-99 1966.31,-99 1974.82,-99"/>
<polygon fill="black" stroke="black" points="1974.92,-102.5 1984.92,-99 1974.92,-95.5 1974.92,-102.5"/>
</g>
<!-- 140662936911680&#45;&gt;140662936911104 -->
<g id="edge21" class="edge">
<title>140662936911680&#45;&gt;140662936911104</title>
<path fill="none" stroke="black" d="M1859.05,-91.83C1869.71,-93.07 1879.78,-94.23 1888.58,-95.25"/>
<polygon fill="black" stroke="black" points="1888.31,-98.74 1898.64,-96.41 1889.11,-91.79 1888.31,-98.74"/>
</g>
<!-- 140662936907264 -->
<g id="node20" class="node">
<title>140662936907264</title>
<polygon fill="none" stroke="black" points="2373,-144 2346,-126 2373,-108 2400,-126 2373,-144"/>
<text text-anchor="middle" x="2373" y="-122.9" font-family="Times,serif" font-size="12.00">X</text>
</g>
<!-- 140662936896848&#45;&gt;140662936907264 -->
<g id="edge23" class="edge">
<title>140662936896848&#45;&gt;140662936907264</title>
<path fill="none" stroke="black" d="M2034.48,-102.12C2046.4,-103.76 2061.5,-105.7 2075,-107 2169.7,-116.13 2281.82,-121.96 2337.31,-124.51"/>
<polygon fill="black" stroke="black" points="2337.17,-128 2347.32,-124.96 2337.48,-121.01 2337.17,-128"/>
</g>
<!-- 140662932228752 -->
<g id="node21" class="node">
<title>140662932228752</title>
<polygon fill="none" stroke="black" points="2310,-98 2075,-98 2075,-62 2310,-62 2310,-98"/>
<text text-anchor="middle" x="2192.5" y="-76.9" font-family="Times,serif" font-size="12.00">Perform additional software repairs</text>
</g>
<!-- 140662936896848&#45;&gt;140662932228752 -->
<g id="edge24" class="edge">
<title>140662936896848&#45;&gt;140662932228752</title>
<path fill="none" stroke="black" d="M2035.61,-96.59C2043.8,-95.72 2053.72,-94.67 2064.56,-93.51"/>
<polygon fill="black" stroke="black" points="2065.16,-96.97 2074.74,-92.43 2064.42,-90.01 2065.16,-96.97"/>
</g>
<!-- 140662936907264&#45;&gt;140662936904192 -->
<g id="edge25" class="edge">
<title>140662936907264&#45;&gt;140662936904192</title>
<path fill="none" stroke="black" d="M2351.44,-129.71C2296.64,-139.27 2142.42,-164 2013,-164 1533.5,-164 1533.5,-164 1533.5,-164 1472.25,-164 1455.96,-161.6 1397,-145 1384.06,-141.36 1370.3,-135.57 1359.04,-130.29"/>
<polygon fill="black" stroke="black" points="1360.39,-127.06 1349.86,-125.85 1357.34,-133.36 1360.39,-127.06"/>
</g>
<!-- 140662932228752&#45;&gt;140662936907264 -->
<g id="edge26" class="edge">
<title>140662932228752&#45;&gt;140662936907264</title>
<path fill="none" stroke="black" d="M2263.54,-98.05C2291.4,-105.23 2321.89,-113.09 2343.43,-118.64"/>
<polygon fill="black" stroke="black" points="2342.68,-122.06 2353.23,-121.16 2344.42,-115.28 2342.68,-122.06"/>
</g>
</g>
</svg>
