<?xml version="1.0" encoding="UTF-8" standalone="no"?>
<!DOCTYPE svg PUBLIC "-//W3C//DTD SVG 1.1//EN"
 "http://www.w3.org/Graphics/SVG/1.1/DTD/svg11.dtd">
<!-- Generated by graphviz version 2.43.0 (0)
 -->
<!-- Title: %3 Pages: 1 -->
<svg width="1784pt" height="126pt"
 viewBox="0.00 0.00 1784.00 126.00" xmlns="http://www.w3.org/2000/svg" xmlns:xlink="http://www.w3.org/1999/xlink">
<g id="graph0" class="graph" transform="scale(1 1) rotate(0) translate(4 122)">
<title>%3</title>
<polygon fill="white" stroke="transparent" points="-4,4 -4,-122 1780,-122 1780,4 -4,4"/>
<!-- 140662937042464 -->
<g id="node1" class="node">
<title>140662937042464</title>
<ellipse fill="green" stroke="black" cx="18" cy="-95" rx="18" ry="18"/>
</g>
<!-- 140662936897904 -->
<g id="node2" class="node">
<title>140662936897904</title>
<polygon fill="none" stroke="black" points="99,-113 72,-95 99,-77 126,-95 99,-113"/>
<text text-anchor="middle" x="99" y="-91.9" font-family="Times,serif" font-size="12.00">X</text>
</g>
<!-- 140662937042464&#45;&gt;140662936897904 -->
<g id="edge1" class="edge">
<title>140662937042464&#45;&gt;140662936897904</title>
<path fill="none" stroke="black" d="M36.14,-95C43.64,-95 52.75,-95 61.64,-95"/>
<polygon fill="black" stroke="black" points="61.87,-98.5 71.87,-95 61.87,-91.5 61.87,-98.5"/>
</g>
<!-- 140662936907888 -->
<g id="node3" class="node">
<title>140662936907888</title>
<polygon fill="none" stroke="black" points="1677,-113 1650,-95 1677,-77 1704,-95 1677,-113"/>
<text text-anchor="middle" x="1677" y="-91.9" font-family="Times,serif" font-size="12.00">X</text>
</g>
<!-- 140662936897904&#45;&gt;140662936907888 -->
<g id="edge2" class="edge">
<title>140662936897904&#45;&gt;140662936907888</title>
<path fill="none" stroke="black" d="M122.71,-97.51C178.79,-103.47 328.34,-118 453.5,-118 453.5,-118 453.5,-118 1398,-118 1487.52,-118 1592.71,-106.01 1644.26,-99.34"/>
<polygon fill="black" stroke="black" points="1644.96,-102.78 1654.42,-98.01 1644.05,-95.84 1644.96,-102.78"/>
</g>
<!-- 140662936906832 -->
<g id="node4" class="node">
<title>140662936906832</title>
<polygon fill="none" stroke="black" points="326,-90 162,-90 162,-54 326,-54 326,-90"/>
<text text-anchor="middle" x="244" y="-68.9" font-family="Times,serif" font-size="12.00">Submit vacation request</text>
</g>
<!-- 140662936897904&#45;&gt;140662936906832 -->
<g id="edge3" class="edge">
<title>140662936897904&#45;&gt;140662936906832</title>
<path fill="none" stroke="black" d="M121.1,-91.61C129.75,-90.21 140.41,-88.5 151.79,-86.67"/>
<polygon fill="black" stroke="black" points="152.62,-90.08 161.94,-85.04 151.51,-83.17 152.62,-90.08"/>
</g>
<!-- 140662937033632 -->
<g id="node17" class="node">
<title>140662937033632</title>
<ellipse fill="orange" stroke="black" cx="1758" cy="-95" rx="18" ry="18"/>
</g>
<!-- 140662936907888&#45;&gt;140662937033632 -->
<g id="edge5" class="edge">
<title>140662936907888&#45;&gt;140662937033632</title>
<path fill="none" stroke="black" d="M1704.31,-95C1712.42,-95 1721.37,-95 1729.56,-95"/>
<polygon fill="black" stroke="black" points="1729.75,-98.5 1739.75,-95 1729.75,-91.5 1729.75,-98.5"/>
</g>
<!-- 140662937038864 -->
<g id="node5" class="node">
<title>140662937038864</title>
<polygon fill="none" stroke="black" points="547,-90 362,-90 362,-54 547,-54 547,-90"/>
<text text-anchor="middle" x="454.5" y="-68.9" font-family="Times,serif" font-size="12.00">Supervisor receives request</text>
</g>
<!-- 140662936906832&#45;&gt;140662937038864 -->
<g id="edge4" class="edge">
<title>140662936906832&#45;&gt;140662937038864</title>
<path fill="none" stroke="black" d="M326.21,-72C334.59,-72 343.18,-72 351.75,-72"/>
<polygon fill="black" stroke="black" points="351.79,-75.5 361.79,-72 351.79,-68.5 351.79,-75.5"/>
</g>
<!-- 140662936897136 -->
<g id="node6" class="node">
<title>140662936897136</title>
<polygon fill="none" stroke="black" points="610,-90 583,-72 610,-54 637,-72 610,-90"/>
<text text-anchor="middle" x="610" y="-68.9" font-family="Times,serif" font-size="12.00">X</text>
</g>
<!-- 140662937038864&#45;&gt;140662936897136 -->
<g id="edge6" class="edge">
<title>140662937038864&#45;&gt;140662936897136</title>
<path fill="none" stroke="black" d="M547.01,-72C556.01,-72 564.74,-72 572.66,-72"/>
<polygon fill="black" stroke="black" points="572.91,-75.5 582.91,-72 572.91,-68.5 572.91,-75.5"/>
</g>
<!-- 140662936903040 -->
<g id="node7" class="node">
<title>140662936903040</title>
<polygon fill="none" stroke="black" points="782.5,-90 679.5,-90 679.5,-54 782.5,-54 782.5,-90"/>
<text text-anchor="middle" x="731" y="-68.9" font-family="Times,serif" font-size="12.00">Reject request</text>
</g>
<!-- 140662936897136&#45;&gt;140662936903040 -->
<g id="edge7" class="edge">
<title>140662936897136&#45;&gt;140662936903040</title>
<path fill="none" stroke="black" d="M637.12,-72C646.65,-72 657.87,-72 669.16,-72"/>
<polygon fill="black" stroke="black" points="669.5,-75.5 679.5,-72 669.5,-68.5 669.5,-75.5"/>
</g>
<!-- 140662937031856 -->
<g id="node8" class="node">
<title>140662937031856</title>
<polygon fill="none" stroke="black" points="789,-36 673,-36 673,0 789,0 789,-36"/>
<text text-anchor="middle" x="731" y="-14.9" font-family="Times,serif" font-size="12.00">Approve request</text>
</g>
<!-- 140662936897136&#45;&gt;140662937031856 -->
<g id="edge8" class="edge">
<title>140662936897136&#45;&gt;140662937031856</title>
<path fill="none" stroke="black" d="M626.56,-64.94C640.43,-58.65 661.49,-49.09 681,-40.23"/>
<polygon fill="black" stroke="black" points="682.46,-43.42 690.12,-36.1 679.57,-37.04 682.46,-43.42"/>
</g>
<!-- 140662936902368 -->
<g id="node9" class="node">
<title>140662936902368</title>
<polygon fill="none" stroke="black" points="852,-63 825,-45 852,-27 879,-45 852,-63"/>
<text text-anchor="middle" x="852" y="-41.9" font-family="Times,serif" font-size="12.00">X</text>
</g>
<!-- 140662936903040&#45;&gt;140662936902368 -->
<g id="edge9" class="edge">
<title>140662936903040&#45;&gt;140662936902368</title>
<path fill="none" stroke="black" d="M782.81,-60.47C795.97,-57.49 809.7,-54.37 821.37,-51.72"/>
<polygon fill="black" stroke="black" points="822.45,-55.07 831.42,-49.44 820.9,-48.24 822.45,-55.07"/>
</g>
<!-- 140662937031856&#45;&gt;140662936902368 -->
<g id="edge10" class="edge">
<title>140662937031856&#45;&gt;140662936902368</title>
<path fill="none" stroke="black" d="M789.06,-30.95C800.27,-33.49 811.6,-36.06 821.45,-38.3"/>
<polygon fill="black" stroke="black" points="820.96,-41.77 831.48,-40.57 822.51,-34.95 820.96,-41.77"/>
</g>
<!-- 140662936908320 -->
<g id="node10" class="node">
<title>140662936908320</title>
<polygon fill="none" stroke="black" points="942,-63 915,-45 942,-27 969,-45 942,-63"/>
<text text-anchor="middle" x="942" y="-41.9" font-family="Times,serif" font-size="12.00">X</text>
</g>
<!-- 140662936902368&#45;&gt;140662936908320 -->
<g id="edge11" class="edge">
<title>140662936902368&#45;&gt;140662936908320</title>
<path fill="none" stroke="black" d="M879.4,-45C887.39,-45 896.31,-45 904.82,-45"/>
<polygon fill="black" stroke="black" points="904.92,-48.5 914.92,-45 904.92,-41.5 904.92,-48.5"/>
</g>
<!-- 140662936903952 -->
<g id="node11" class="node">
<title>140662936903952</title>
<polygon fill="none" stroke="black" points="1114.5,-90 1011.5,-90 1011.5,-54 1114.5,-54 1114.5,-90"/>
<text text-anchor="middle" x="1063" y="-68.9" font-family="Times,serif" font-size="12.00">Reject request</text>
</g>
<!-- 140662936908320&#45;&gt;140662936903952 -->
<g id="edge13" class="edge">
<title>140662936908320&#45;&gt;140662936903952</title>
<path fill="none" stroke="black" d="M962.65,-49.46C973.33,-51.88 987.17,-55.02 1001.12,-58.19"/>
<polygon fill="black" stroke="black" points="1000.72,-61.69 1011.25,-60.49 1002.27,-54.86 1000.72,-61.69"/>
</g>
<!-- 140662936897328 -->
<g id="node12" class="node">
<title>140662936897328</title>
<polygon fill="none" stroke="black" points="1121,-36 1005,-36 1005,0 1121,0 1121,-36"/>
<text text-anchor="middle" x="1063" y="-14.9" font-family="Times,serif" font-size="12.00">Approve request</text>
</g>
<!-- 140662936908320&#45;&gt;140662936897328 -->
<g id="edge12" class="edge">
<title>140662936908320&#45;&gt;140662936897328</title>
<path fill="none" stroke="black" d="M962.65,-40.54C971.73,-38.48 983.09,-35.9 994.87,-33.23"/>
<polygon fill="black" stroke="black" points="995.83,-36.6 1004.81,-30.98 994.28,-29.78 995.83,-36.6"/>
</g>
<!-- 140662937030032 -->
<g id="node14" class="node">
<title>140662937030032</title>
<polygon fill="none" stroke="black" points="1481,-90 1313,-90 1313,-54 1481,-54 1481,-90"/>
<text text-anchor="middle" x="1397" y="-68.9" font-family="Times,serif" font-size="12.00">Review rejection reasons</text>
</g>
<!-- 140662936903952&#45;&gt;140662937030032 -->
<g id="edge14" class="edge">
<title>140662936903952&#45;&gt;140662937030032</title>
<path fill="none" stroke="black" d="M1114.79,-72C1164.68,-72 1241.99,-72 1302.93,-72"/>
<polygon fill="black" stroke="black" points="1302.95,-75.5 1312.95,-72 1302.95,-68.5 1302.95,-75.5"/>
</g>
<!-- 140662936901648 -->
<g id="node13" class="node">
<title>140662936901648</title>
<polygon fill="none" stroke="black" points="1234,-36 1157,-36 1157,0 1234,0 1234,-36"/>
<text text-anchor="middle" x="1195.5" y="-14.9" font-family="Times,serif" font-size="12.00">Notify HR</text>
</g>
<!-- 140662936897328&#45;&gt;140662936901648 -->
<g id="edge15" class="edge">
<title>140662936897328&#45;&gt;140662936901648</title>
<path fill="none" stroke="black" d="M1121.24,-18C1129.71,-18 1138.37,-18 1146.63,-18"/>
<polygon fill="black" stroke="black" points="1146.83,-21.5 1156.83,-18 1146.83,-14.5 1146.83,-21.5"/>
</g>
<!-- 140665726943968 -->
<g id="node16" class="node">
<title>140665726943968</title>
<polygon fill="none" stroke="black" points="1524,-36 1270,-36 1270,0 1524,0 1524,-36"/>
<text text-anchor="middle" x="1397" y="-14.9" font-family="Times,serif" font-size="12.00">HR completes management procedures</text>
</g>
<!-- 140662936901648&#45;&gt;140665726943968 -->
<g id="edge16" class="edge">
<title>140662936901648&#45;&gt;140665726943968</title>
<path fill="none" stroke="black" d="M1234.02,-18C1241.82,-18 1250.45,-18 1259.56,-18"/>
<polygon fill="black" stroke="black" points="1259.61,-21.5 1269.61,-18 1259.61,-14.5 1259.61,-21.5"/>
</g>
<!-- 140662936897232 -->
<g id="node15" class="node">
<title>140662936897232</title>
<polygon fill="none" stroke="black" points="1587,-90 1560,-72 1587,-54 1614,-72 1587,-90"/>
<text text-anchor="middle" x="1587" y="-68.9" font-family="Times,serif" font-size="12.00">X</text>
</g>
<!-- 140662937030032&#45;&gt;140662936897232 -->
<g id="edge17" class="edge">
<title>140662937030032&#45;&gt;140662936897232</title>
<path fill="none" stroke="black" d="M1481.01,-72C1505.19,-72 1530.35,-72 1549.98,-72"/>
<polygon fill="black" stroke="black" points="1549.99,-75.5 1559.99,-72 1549.99,-68.5 1549.99,-75.5"/>
</g>
<!-- 140662936897232&#45;&gt;140662936907888 -->
<g id="edge18" class="edge">
<title>140662936897232&#45;&gt;140662936907888</title>
<path fill="none" stroke="black" d="M1607.09,-76.99C1618.82,-80.06 1634.07,-84.04 1647.24,-87.48"/>
<polygon fill="black" stroke="black" points="1646.68,-90.96 1657.24,-90.1 1648.45,-84.18 1646.68,-90.96"/>
</g>
<!-- 140665726943968&#45;&gt;140662936897232 -->
<g id="edge19" class="edge">
<title>140665726943968&#45;&gt;140662936897232</title>
<path fill="none" stroke="black" d="M1492.12,-36C1502.96,-38.71 1513.78,-41.71 1524,-45 1536.79,-49.11 1550.54,-54.94 1561.83,-60.14"/>
<polygon fill="black" stroke="black" points="1560.5,-63.38 1571.04,-64.48 1563.49,-57.05 1560.5,-63.38"/>
</g>
</g>
</svg>
