<?xml version="1.0" encoding="UTF-8" standalone="no"?>
<!DOCTYPE svg PUBLIC "-//W3C//DTD SVG 1.1//EN"
 "http://www.w3.org/Graphics/SVG/1.1/DTD/svg11.dtd">
<!-- Generated by graphviz version 2.43.0 (0)
 -->
<!-- Title: %3 Pages: 1 -->
<svg width="1688pt" height="98pt"
 viewBox="0.00 0.00 1688.00 98.00" xmlns="http://www.w3.org/2000/svg" xmlns:xlink="http://www.w3.org/1999/xlink">
<g id="graph0" class="graph" transform="scale(1 1) rotate(0) translate(4 94)">
<title>%3</title>
<polygon fill="white" stroke="transparent" points="-4,4 -4,-94 1684,-94 1684,4 -4,4"/>
<!-- 140662936896848 -->
<g id="node1" class="node">
<title>140662936896848</title>
<ellipse fill="green" stroke="black" cx="18" cy="-45" rx="18" ry="18"/>
</g>
<!-- 140662936910816 -->
<g id="node2" class="node">
<title>140662936910816</title>
<polygon fill="none" stroke="black" points="239,-63 72,-63 72,-27 239,-27 239,-63"/>
<text text-anchor="middle" x="155.5" y="-41.9" font-family="Times,serif" font-size="12.00">Submit Vacation Request</text>
</g>
<!-- 140662936896848&#45;&gt;140662936910816 -->
<g id="edge1" class="edge">
<title>140662936896848&#45;&gt;140662936910816</title>
<path fill="none" stroke="black" d="M36.16,-45C43.24,-45 52.04,-45 61.62,-45"/>
<polygon fill="black" stroke="black" points="61.84,-48.5 71.84,-45 61.84,-41.5 61.84,-48.5"/>
</g>
<!-- 140662931424880 -->
<g id="node3" class="node">
<title>140662931424880</title>
<polygon fill="none" stroke="black" points="466,-63 275,-63 275,-27 466,-27 466,-63"/>
<text text-anchor="middle" x="370.5" y="-41.9" font-family="Times,serif" font-size="12.00">Supervisor Receives Request</text>
</g>
<!-- 140662936910816&#45;&gt;140662931424880 -->
<g id="edge2" class="edge">
<title>140662936910816&#45;&gt;140662931424880</title>
<path fill="none" stroke="black" d="M239.16,-45C247.56,-45 256.18,-45 264.77,-45"/>
<polygon fill="black" stroke="black" points="264.85,-48.5 274.85,-45 264.85,-41.5 264.85,-48.5"/>
</g>
<!-- 140662933514144 -->
<g id="node4" class="node">
<title>140662933514144</title>
<polygon fill="none" stroke="black" points="529,-63 502,-45 529,-27 556,-45 529,-63"/>
<text text-anchor="middle" x="529" y="-41.9" font-family="Times,serif" font-size="12.00">X</text>
</g>
<!-- 140662931424880&#45;&gt;140662933514144 -->
<g id="edge3" class="edge">
<title>140662931424880&#45;&gt;140662933514144</title>
<path fill="none" stroke="black" d="M466.15,-45C475.09,-45 483.73,-45 491.57,-45"/>
<polygon fill="black" stroke="black" points="491.73,-48.5 501.73,-45 491.73,-41.5 491.73,-48.5"/>
</g>
<!-- 140662936896032 -->
<g id="node5" class="node">
<title>140662936896032</title>
<polygon fill="none" stroke="black" points="711,-90 592,-90 592,-54 711,-54 711,-90"/>
<text text-anchor="middle" x="651.5" y="-68.9" font-family="Times,serif" font-size="12.00">Approve Request</text>
</g>
<!-- 140662933514144&#45;&gt;140662936896032 -->
<g id="edge4" class="edge">
<title>140662933514144&#45;&gt;140662936896032</title>
<path fill="none" stroke="black" d="M549.63,-49.4C558.69,-51.43 570.06,-53.98 581.86,-56.62"/>
<polygon fill="black" stroke="black" points="581.31,-60.08 591.83,-58.85 582.84,-53.25 581.31,-60.08"/>
</g>
<!-- 140662936897520 -->
<g id="node6" class="node">
<title>140662936897520</title>
<polygon fill="none" stroke="black" points="704.5,-36 598.5,-36 598.5,0 704.5,0 704.5,-36"/>
<text text-anchor="middle" x="651.5" y="-14.9" font-family="Times,serif" font-size="12.00">Reject Request</text>
</g>
<!-- 140662933514144&#45;&gt;140662936897520 -->
<g id="edge5" class="edge">
<title>140662933514144&#45;&gt;140662936897520</title>
<path fill="none" stroke="black" d="M549.63,-40.6C560.41,-38.19 574.44,-35.04 588.6,-31.87"/>
<polygon fill="black" stroke="black" points="589.38,-35.28 598.38,-29.68 587.85,-28.45 589.38,-35.28"/>
</g>
<!-- 140662933516496 -->
<g id="node7" class="node">
<title>140662933516496</title>
<polygon fill="none" stroke="black" points="774,-63 747,-45 774,-27 801,-45 774,-63"/>
<text text-anchor="middle" x="774" y="-41.9" font-family="Times,serif" font-size="12.00">X</text>
</g>
<!-- 140662936896032&#45;&gt;140662933516496 -->
<g id="edge6" class="edge">
<title>140662936896032&#45;&gt;140662933516496</title>
<path fill="none" stroke="black" d="M711.34,-58.82C722.48,-56.32 733.69,-53.81 743.44,-51.62"/>
<polygon fill="black" stroke="black" points="744.37,-55 753.37,-49.4 742.84,-48.17 744.37,-55"/>
</g>
<!-- 140662936897520&#45;&gt;140662933516496 -->
<g id="edge7" class="edge">
<title>140662936897520&#45;&gt;140662933516496</title>
<path fill="none" stroke="black" d="M704.65,-29.69C717.9,-32.65 731.68,-35.74 743.36,-38.36"/>
<polygon fill="black" stroke="black" points="742.91,-41.84 753.43,-40.62 744.44,-35.01 742.91,-41.84"/>
</g>
<!-- 140662933513952 -->
<g id="node8" class="node">
<title>140662933513952</title>
<polygon fill="none" stroke="black" points="864,-63 837,-45 864,-27 891,-45 864,-63"/>
<text text-anchor="middle" x="864" y="-41.9" font-family="Times,serif" font-size="12.00">X</text>
</g>
<!-- 140662933516496&#45;&gt;140662933513952 -->
<g id="edge8" class="edge">
<title>140662933516496&#45;&gt;140662933513952</title>
<path fill="none" stroke="black" d="M801.4,-45C809.39,-45 818.31,-45 826.82,-45"/>
<polygon fill="black" stroke="black" points="826.92,-48.5 836.92,-45 826.92,-41.5 826.92,-48.5"/>
</g>
<!-- 140662936903664 -->
<g id="node9" class="node">
<title>140662936903664</title>
<polygon fill="none" stroke="black" points="1046,-90 927,-90 927,-54 1046,-54 1046,-90"/>
<text text-anchor="middle" x="986.5" y="-68.9" font-family="Times,serif" font-size="12.00">Approve Request</text>
</g>
<!-- 140662933513952&#45;&gt;140662936903664 -->
<g id="edge9" class="edge">
<title>140662933513952&#45;&gt;140662936903664</title>
<path fill="none" stroke="black" d="M884.63,-49.4C893.69,-51.43 905.06,-53.98 916.86,-56.62"/>
<polygon fill="black" stroke="black" points="916.31,-60.08 926.83,-58.85 917.84,-53.25 916.31,-60.08"/>
</g>
<!-- 140662936906688 -->
<g id="node10" class="node">
<title>140662936906688</title>
<polygon fill="none" stroke="black" points="1039.5,-36 933.5,-36 933.5,0 1039.5,0 1039.5,-36"/>
<text text-anchor="middle" x="986.5" y="-14.9" font-family="Times,serif" font-size="12.00">Reject Request</text>
</g>
<!-- 140662933513952&#45;&gt;140662936906688 -->
<g id="edge10" class="edge">
<title>140662933513952&#45;&gt;140662936906688</title>
<path fill="none" stroke="black" d="M884.63,-40.6C895.41,-38.19 909.44,-35.04 923.6,-31.87"/>
<polygon fill="black" stroke="black" points="924.38,-35.28 933.38,-29.68 922.85,-28.45 924.38,-35.28"/>
</g>
<!-- 140662936902608 -->
<g id="node12" class="node">
<title>140662936902608</title>
<polygon fill="none" stroke="black" points="1253,-90 1082,-90 1082,-54 1253,-54 1253,-90"/>
<text text-anchor="middle" x="1167.5" y="-68.9" font-family="Times,serif" font-size="12.00">Notify HR Representative</text>
</g>
<!-- 140662936903664&#45;&gt;140662936902608 -->
<g id="edge11" class="edge">
<title>140662936903664&#45;&gt;140662936902608</title>
<path fill="none" stroke="black" d="M1046.11,-72C1054.32,-72 1062.92,-72 1071.59,-72"/>
<polygon fill="black" stroke="black" points="1071.78,-75.5 1081.78,-72 1071.78,-68.5 1071.78,-75.5"/>
</g>
<!-- 140662936901984 -->
<g id="node11" class="node">
<title>140662936901984</title>
<polygon fill="none" stroke="black" points="1490.5,-36 1316.5,-36 1316.5,0 1490.5,0 1490.5,-36"/>
<text text-anchor="middle" x="1403.5" y="-14.9" font-family="Times,serif" font-size="12.00">Review Rejection Reasons</text>
</g>
<!-- 140662936906688&#45;&gt;140662936901984 -->
<g id="edge12" class="edge">
<title>140662936906688&#45;&gt;140662936901984</title>
<path fill="none" stroke="black" d="M1039.64,-18C1106.3,-18 1223.03,-18 1306.08,-18"/>
<polygon fill="black" stroke="black" points="1306.29,-21.5 1316.29,-18 1306.29,-14.5 1306.29,-21.5"/>
</g>
<!-- 140662933514720 -->
<g id="node13" class="node">
<title>140662933514720</title>
<polygon fill="none" stroke="black" points="1581,-63 1554,-45 1581,-27 1608,-45 1581,-63"/>
<text text-anchor="middle" x="1581" y="-41.9" font-family="Times,serif" font-size="12.00">X</text>
</g>
<!-- 140662936901984&#45;&gt;140662933514720 -->
<g id="edge13" class="edge">
<title>140662936901984&#45;&gt;140662933514720</title>
<path fill="none" stroke="black" d="M1490.71,-31.26C1511.47,-34.46 1532.35,-37.67 1548.69,-40.18"/>
<polygon fill="black" stroke="black" points="1548.31,-43.67 1558.73,-41.73 1549.38,-36.75 1548.31,-43.67"/>
</g>
<!-- 140662936905344 -->
<g id="node14" class="node">
<title>140662936905344</title>
<polygon fill="none" stroke="black" points="1518,-90 1289,-90 1289,-54 1518,-54 1518,-90"/>
<text text-anchor="middle" x="1403.5" y="-68.9" font-family="Times,serif" font-size="12.00">Complete Management Procedures</text>
</g>
<!-- 140662936902608&#45;&gt;140662936905344 -->
<g id="edge14" class="edge">
<title>140662936902608&#45;&gt;140662936905344</title>
<path fill="none" stroke="black" d="M1253.31,-72C1261.58,-72 1270.09,-72 1278.64,-72"/>
<polygon fill="black" stroke="black" points="1278.7,-75.5 1288.7,-72 1278.7,-68.5 1278.7,-75.5"/>
</g>
<!-- 140662936895984 -->
<g id="node15" class="node">
<title>140662936895984</title>
<ellipse fill="orange" stroke="black" cx="1662" cy="-45" rx="18" ry="18"/>
</g>
<!-- 140662933514720&#45;&gt;140662936895984 -->
<g id="edge16" class="edge">
<title>140662933514720&#45;&gt;140662936895984</title>
<path fill="none" stroke="black" d="M1608.31,-45C1616.42,-45 1625.37,-45 1633.56,-45"/>
<polygon fill="black" stroke="black" points="1633.75,-48.5 1643.75,-45 1633.75,-41.5 1633.75,-48.5"/>
</g>
<!-- 140662936905344&#45;&gt;140662933514720 -->
<g id="edge15" class="edge">
<title>140662936905344&#45;&gt;140662933514720</title>
<path fill="none" stroke="black" d="M1518.13,-54.52C1529.21,-52.81 1539.69,-51.2 1548.76,-49.81"/>
<polygon fill="black" stroke="black" points="1549.37,-53.25 1558.72,-48.27 1548.31,-46.33 1549.37,-53.25"/>
</g>
</g>
</svg>
