<?xml version="1.0" encoding="UTF-8" standalone="no"?>
<!DOCTYPE svg PUBLIC "-//W3C//DTD SVG 1.1//EN"
 "http://www.w3.org/Graphics/SVG/1.1/DTD/svg11.dtd">
<!-- Generated by graphviz version 2.43.0 (0)
 -->
<!-- Title: %3 Pages: 1 -->
<svg width="1183pt" height="98pt"
 viewBox="0.00 0.00 1183.00 98.00" xmlns="http://www.w3.org/2000/svg" xmlns:xlink="http://www.w3.org/1999/xlink">
<g id="graph0" class="graph" transform="scale(1 1) rotate(0) translate(4 94)">
<title>%3</title>
<polygon fill="white" stroke="transparent" points="-4,4 -4,-94 1179,-94 1179,4 -4,4"/>
<!-- 140662933408160 -->
<g id="node1" class="node">
<title>140662933408160</title>
<ellipse fill="green" stroke="black" cx="18" cy="-45" rx="18" ry="18"/>
</g>
<!-- 140662936909856 -->
<g id="node2" class="node">
<title>140662936909856</title>
<polygon fill="none" stroke="black" points="239,-63 72,-63 72,-27 239,-27 239,-63"/>
<text text-anchor="middle" x="155.5" y="-41.9" font-family="Times,serif" font-size="12.00">Submit Vacation Request</text>
</g>
<!-- 140662933408160&#45;&gt;140662936909856 -->
<g id="edge1" class="edge">
<title>140662933408160&#45;&gt;140662936909856</title>
<path fill="none" stroke="black" d="M36.16,-45C43.24,-45 52.04,-45 61.62,-45"/>
<polygon fill="black" stroke="black" points="61.84,-48.5 71.84,-45 61.84,-41.5 61.84,-48.5"/>
</g>
<!-- 140662936902608 -->
<g id="node3" class="node">
<title>140662936902608</title>
<polygon fill="none" stroke="black" points="390,-63 275,-63 275,-27 390,-27 390,-63"/>
<text text-anchor="middle" x="332.5" y="-41.9" font-family="Times,serif" font-size="12.00">Receive Request</text>
</g>
<!-- 140662936909856&#45;&gt;140662936902608 -->
<g id="edge2" class="edge">
<title>140662936909856&#45;&gt;140662936902608</title>
<path fill="none" stroke="black" d="M239.13,-45C247.69,-45 256.31,-45 264.66,-45"/>
<polygon fill="black" stroke="black" points="264.69,-48.5 274.69,-45 264.69,-41.5 264.69,-48.5"/>
</g>
<!-- 140662936905680 -->
<g id="node4" class="node">
<title>140662936905680</title>
<polygon fill="none" stroke="black" points="453,-63 426,-45 453,-27 480,-45 453,-63"/>
<text text-anchor="middle" x="453" y="-41.9" font-family="Times,serif" font-size="12.00">X</text>
</g>
<!-- 140662936902608&#45;&gt;140662936905680 -->
<g id="edge3" class="edge">
<title>140662936902608&#45;&gt;140662936905680</title>
<path fill="none" stroke="black" d="M390.32,-45C398.99,-45 407.74,-45 415.8,-45"/>
<polygon fill="black" stroke="black" points="415.96,-48.5 425.96,-45 415.96,-41.5 415.96,-48.5"/>
</g>
<!-- 140662936910912 -->
<g id="node5" class="node">
<title>140662936910912</title>
<polygon fill="none" stroke="black" points="635,-90 516,-90 516,-54 635,-54 635,-90"/>
<text text-anchor="middle" x="575.5" y="-68.9" font-family="Times,serif" font-size="12.00">Approve Request</text>
</g>
<!-- 140662936905680&#45;&gt;140662936910912 -->
<g id="edge5" class="edge">
<title>140662936905680&#45;&gt;140662936910912</title>
<path fill="none" stroke="black" d="M473.63,-49.4C482.69,-51.43 494.06,-53.98 505.86,-56.62"/>
<polygon fill="black" stroke="black" points="505.31,-60.08 515.83,-58.85 506.84,-53.25 505.31,-60.08"/>
</g>
<!-- 140662932562816 -->
<g id="node6" class="node">
<title>140662932562816</title>
<polygon fill="none" stroke="black" points="628.5,-36 522.5,-36 522.5,0 628.5,0 628.5,-36"/>
<text text-anchor="middle" x="575.5" y="-14.9" font-family="Times,serif" font-size="12.00">Reject Request</text>
</g>
<!-- 140662936905680&#45;&gt;140662932562816 -->
<g id="edge4" class="edge">
<title>140662936905680&#45;&gt;140662932562816</title>
<path fill="none" stroke="black" d="M473.63,-40.6C484.41,-38.19 498.44,-35.04 512.6,-31.87"/>
<polygon fill="black" stroke="black" points="513.38,-35.28 522.38,-29.68 511.85,-28.45 513.38,-35.28"/>
</g>
<!-- 140662936897712 -->
<g id="node8" class="node">
<title>140662936897712</title>
<polygon fill="none" stroke="black" points="748,-90 671,-90 671,-54 748,-54 748,-90"/>
<text text-anchor="middle" x="709.5" y="-68.9" font-family="Times,serif" font-size="12.00">Notify HR</text>
</g>
<!-- 140662936910912&#45;&gt;140662936897712 -->
<g id="edge6" class="edge">
<title>140662936910912&#45;&gt;140662936897712</title>
<path fill="none" stroke="black" d="M635.17,-72C643.69,-72 652.37,-72 660.65,-72"/>
<polygon fill="black" stroke="black" points="660.86,-75.5 670.86,-72 660.86,-68.5 660.86,-75.5"/>
</g>
<!-- 140662936909616 -->
<g id="node7" class="node">
<title>140662936909616</title>
<polygon fill="none" stroke="black" points="985.5,-36 811.5,-36 811.5,0 985.5,0 985.5,-36"/>
<text text-anchor="middle" x="898.5" y="-14.9" font-family="Times,serif" font-size="12.00">Review Rejection Reasons</text>
</g>
<!-- 140662932562816&#45;&gt;140662936909616 -->
<g id="edge7" class="edge">
<title>140662932562816&#45;&gt;140662936909616</title>
<path fill="none" stroke="black" d="M628.79,-18C675.38,-18 744.74,-18 801.32,-18"/>
<polygon fill="black" stroke="black" points="801.37,-21.5 811.37,-18 801.37,-14.5 801.37,-21.5"/>
</g>
<!-- 140662936896032 -->
<g id="node9" class="node">
<title>140662936896032</title>
<polygon fill="none" stroke="black" points="1076,-63 1049,-45 1076,-27 1103,-45 1076,-63"/>
<text text-anchor="middle" x="1076" y="-41.9" font-family="Times,serif" font-size="12.00">X</text>
</g>
<!-- 140662936909616&#45;&gt;140662936896032 -->
<g id="edge8" class="edge">
<title>140662936909616&#45;&gt;140662936896032</title>
<path fill="none" stroke="black" d="M985.71,-31.26C1006.47,-34.46 1027.35,-37.67 1043.69,-40.18"/>
<polygon fill="black" stroke="black" points="1043.31,-43.67 1053.73,-41.73 1044.38,-36.75 1043.31,-43.67"/>
</g>
<!-- 140662932236192 -->
<g id="node10" class="node">
<title>140662932236192</title>
<polygon fill="none" stroke="black" points="1013,-90 784,-90 784,-54 1013,-54 1013,-90"/>
<text text-anchor="middle" x="898.5" y="-68.9" font-family="Times,serif" font-size="12.00">Complete Management Procedures</text>
</g>
<!-- 140662936897712&#45;&gt;140662932236192 -->
<g id="edge9" class="edge">
<title>140662936897712&#45;&gt;140662932236192</title>
<path fill="none" stroke="black" d="M748.34,-72C756.18,-72 764.84,-72 773.92,-72"/>
<polygon fill="black" stroke="black" points="773.92,-75.5 783.92,-72 773.92,-68.5 773.92,-75.5"/>
</g>
<!-- 140662933411280 -->
<g id="node11" class="node">
<title>140662933411280</title>
<ellipse fill="orange" stroke="black" cx="1157" cy="-45" rx="18" ry="18"/>
</g>
<!-- 140662936896032&#45;&gt;140662933411280 -->
<g id="edge11" class="edge">
<title>140662936896032&#45;&gt;140662933411280</title>
<path fill="none" stroke="black" d="M1103.31,-45C1111.42,-45 1120.37,-45 1128.56,-45"/>
<polygon fill="black" stroke="black" points="1128.75,-48.5 1138.75,-45 1128.75,-41.5 1128.75,-48.5"/>
</g>
<!-- 140662932236192&#45;&gt;140662936896032 -->
<g id="edge10" class="edge">
<title>140662932236192&#45;&gt;140662936896032</title>
<path fill="none" stroke="black" d="M1013.13,-54.52C1024.21,-52.81 1034.69,-51.2 1043.76,-49.81"/>
<polygon fill="black" stroke="black" points="1044.37,-53.25 1053.72,-48.27 1043.31,-46.33 1044.37,-53.25"/>
</g>
</g>
</svg>
