<?xml version="1.0" encoding="UTF-8" standalone="no"?>
<!DOCTYPE svg PUBLIC "-//W3C//DTD SVG 1.1//EN"
 "http://www.w3.org/Graphics/SVG/1.1/DTD/svg11.dtd">
<!-- Generated by graphviz version 2.43.0 (0)
 -->
<!-- Title: %3 Pages: 1 -->
<svg width="1181pt" height="152pt"
 viewBox="0.00 0.00 1181.00 152.00" xmlns="http://www.w3.org/2000/svg" xmlns:xlink="http://www.w3.org/1999/xlink">
<g id="graph0" class="graph" transform="scale(1 1) rotate(0) translate(4 148)">
<title>%3</title>
<polygon fill="white" stroke="transparent" points="-4,4 -4,-148 1177,-148 1177,4 -4,4"/>
<!-- 140662932228992 -->
<g id="node1" class="node">
<title>140662932228992</title>
<ellipse fill="green" stroke="black" cx="18" cy="-72" rx="18" ry="18"/>
</g>
<!-- 140662932557104 -->
<g id="node2" class="node">
<title>140662932557104</title>
<polygon fill="none" stroke="black" points="155,-90 72,-90 72,-54 155,-54 155,-90"/>
<text text-anchor="middle" x="113.5" y="-68.9" font-family="Times,serif" font-size="12.00">Take order</text>
</g>
<!-- 140662932228992&#45;&gt;140662932557104 -->
<g id="edge1" class="edge">
<title>140662932228992&#45;&gt;140662932557104</title>
<path fill="none" stroke="black" d="M36.15,-72C43.51,-72 52.52,-72 61.75,-72"/>
<polygon fill="black" stroke="black" points="61.77,-75.5 71.77,-72 61.77,-68.5 61.77,-75.5"/>
</g>
<!-- 140662932566896 -->
<g id="node3" class="node">
<title>140662932566896</title>
<polygon fill="none" stroke="black" points="218,-90 191,-72 218,-54 245,-72 218,-90"/>
<text text-anchor="middle" x="218" y="-68.9" font-family="Times,serif" font-size="12.00">+</text>
</g>
<!-- 140662932557104&#45;&gt;140662932566896 -->
<g id="edge2" class="edge">
<title>140662932557104&#45;&gt;140662932566896</title>
<path fill="none" stroke="black" d="M155.01,-72C163.51,-72 172.42,-72 180.75,-72"/>
<polygon fill="black" stroke="black" points="180.92,-75.5 190.92,-72 180.92,-68.5 180.92,-75.5"/>
</g>
<!-- 140662932568288 -->
<g id="node4" class="node">
<title>140662932568288</title>
<polygon fill="none" stroke="black" points="528,-144 281,-144 281,-108 528,-108 528,-144"/>
<text text-anchor="middle" x="404.5" y="-122.9" font-family="Times,serif" font-size="12.00">Prepare cart and non&#45;alcoholic drinks</text>
</g>
<!-- 140662932566896&#45;&gt;140662932568288 -->
<g id="edge5" class="edge">
<title>140662932566896&#45;&gt;140662932568288</title>
<path fill="none" stroke="black" d="M233.97,-79.5C246.33,-85.45 264.47,-93.64 281,-99 287.91,-101.24 295.09,-103.36 302.37,-105.34"/>
<polygon fill="black" stroke="black" points="301.76,-108.8 312.33,-107.97 303.55,-102.03 301.76,-108.8"/>
</g>
<!-- 140662932562384 -->
<g id="node5" class="node">
<title>140662932562384</title>
<polygon fill="none" stroke="black" points="503.5,-90 305.5,-90 305.5,-54 503.5,-54 503.5,-90"/>
<text text-anchor="middle" x="404.5" y="-68.9" font-family="Times,serif" font-size="12.00">Submit order ticket to kitchen</text>
</g>
<!-- 140662932566896&#45;&gt;140662932562384 -->
<g id="edge3" class="edge">
<title>140662932566896&#45;&gt;140662932562384</title>
<path fill="none" stroke="black" d="M245.04,-72C258.68,-72 276.41,-72 295.04,-72"/>
<polygon fill="black" stroke="black" points="295.15,-75.5 305.15,-72 295.15,-68.5 295.15,-75.5"/>
</g>
<!-- 140662932565744 -->
<g id="node6" class="node">
<title>140662932565744</title>
<polygon fill="none" stroke="black" points="494,-36 315,-36 315,0 494,0 494,-36"/>
<text text-anchor="middle" x="404.5" y="-14.9" font-family="Times,serif" font-size="12.00">Submit order to sommelier</text>
</g>
<!-- 140662932566896&#45;&gt;140662932565744 -->
<g id="edge4" class="edge">
<title>140662932566896&#45;&gt;140662932565744</title>
<path fill="none" stroke="black" d="M233.97,-64.5C246.33,-58.55 264.47,-50.36 281,-45 288.82,-42.46 296.99,-40.09 305.25,-37.88"/>
<polygon fill="black" stroke="black" points="306.15,-41.26 314.96,-35.37 304.4,-34.48 306.15,-41.26"/>
</g>
<!-- 140662932569488 -->
<g id="node7" class="node">
<title>140662932569488</title>
<polygon fill="none" stroke="black" points="591,-90 564,-72 591,-54 618,-72 591,-90"/>
<text text-anchor="middle" x="591" y="-68.9" font-family="Times,serif" font-size="12.00">+</text>
</g>
<!-- 140662932568288&#45;&gt;140662932569488 -->
<g id="edge6" class="edge">
<title>140662932568288&#45;&gt;140662932569488</title>
<path fill="none" stroke="black" d="M496.67,-107.97C507.32,-105.25 517.95,-102.26 528,-99 540.78,-94.85 554.53,-89.01 565.82,-83.83"/>
<polygon fill="black" stroke="black" points="567.47,-86.92 575.03,-79.5 564.49,-80.59 567.47,-86.92"/>
</g>
<!-- 140662932562384&#45;&gt;140662932569488 -->
<g id="edge7" class="edge">
<title>140662932562384&#45;&gt;140662932569488</title>
<path fill="none" stroke="black" d="M503.69,-72C521.56,-72 539.13,-72 553.7,-72"/>
<polygon fill="black" stroke="black" points="553.74,-75.5 563.74,-72 553.74,-68.5 553.74,-75.5"/>
</g>
<!-- 140662932565744&#45;&gt;140662932569488 -->
<g id="edge8" class="edge">
<title>140662932565744&#45;&gt;140662932569488</title>
<path fill="none" stroke="black" d="M494.04,-35.37C505.56,-38.25 517.13,-41.47 528,-45 540.78,-49.15 554.53,-54.99 565.82,-60.17"/>
<polygon fill="black" stroke="black" points="564.49,-63.41 575.03,-64.5 567.47,-57.08 564.49,-63.41"/>
</g>
<!-- 140662932556048 -->
<g id="node8" class="node">
<title>140662932556048</title>
<polygon fill="none" stroke="black" points="812,-90 654,-90 654,-54 812,-54 812,-90"/>
<text text-anchor="middle" x="733" y="-68.9" font-family="Times,serif" font-size="12.00">Deliver to guest’s room</text>
</g>
<!-- 140662932569488&#45;&gt;140662932556048 -->
<g id="edge9" class="edge">
<title>140662932569488&#45;&gt;140662932556048</title>
<path fill="none" stroke="black" d="M618,-72C625.61,-72 634.39,-72 643.62,-72"/>
<polygon fill="black" stroke="black" points="643.78,-75.5 653.78,-72 643.78,-68.5 643.78,-75.5"/>
</g>
<!-- 140662932556096 -->
<g id="node9" class="node">
<title>140662932556096</title>
<polygon fill="none" stroke="black" points="875,-90 848,-72 875,-54 902,-72 875,-90"/>
<text text-anchor="middle" x="875" y="-68.9" font-family="Times,serif" font-size="12.00">X</text>
</g>
<!-- 140662932556048&#45;&gt;140662932556096 -->
<g id="edge10" class="edge">
<title>140662932556048&#45;&gt;140662932556096</title>
<path fill="none" stroke="black" d="M812.19,-72C821.16,-72 829.95,-72 837.95,-72"/>
<polygon fill="black" stroke="black" points="837.98,-75.5 847.98,-72 837.98,-68.5 837.98,-75.5"/>
</g>
<!-- 140662932560752 -->
<g id="node10" class="node">
<title>140662932560752</title>
<polygon fill="none" stroke="black" points="1074,-90 1047,-72 1074,-54 1101,-72 1074,-90"/>
<text text-anchor="middle" x="1074" y="-68.9" font-family="Times,serif" font-size="12.00">X</text>
</g>
<!-- 140662932556096&#45;&gt;140662932560752 -->
<g id="edge11" class="edge">
<title>140662932556096&#45;&gt;140662932560752</title>
<path fill="none" stroke="black" d="M899.24,-73.86C910.87,-74.69 925.17,-75.59 938,-76 970.43,-77.04 978.57,-77.04 1011,-76 1020.32,-75.7 1030.42,-75.15 1039.7,-74.54"/>
<polygon fill="black" stroke="black" points="1040.02,-78.03 1049.76,-73.86 1039.54,-71.05 1040.02,-78.03"/>
</g>
<!-- 140662932569248 -->
<g id="node11" class="node">
<title>140662932569248</title>
<polygon fill="none" stroke="black" points="1011,-67 938,-67 938,-31 1011,-31 1011,-67"/>
<text text-anchor="middle" x="974.5" y="-45.9" font-family="Times,serif" font-size="12.00">Bill guest</text>
</g>
<!-- 140662932556096&#45;&gt;140662932569248 -->
<g id="edge12" class="edge">
<title>140662932556096&#45;&gt;140662932569248</title>
<path fill="none" stroke="black" d="M895.26,-67.46C904.62,-65.25 916.3,-62.49 927.76,-59.79"/>
<polygon fill="black" stroke="black" points="928.77,-63.15 937.7,-57.44 927.17,-56.33 928.77,-63.15"/>
</g>
<!-- 140662932240800 -->
<g id="node12" class="node">
<title>140662932240800</title>
<ellipse fill="orange" stroke="black" cx="1155" cy="-72" rx="18" ry="18"/>
</g>
<!-- 140662932560752&#45;&gt;140662932240800 -->
<g id="edge14" class="edge">
<title>140662932560752&#45;&gt;140662932240800</title>
<path fill="none" stroke="black" d="M1101.31,-72C1109.42,-72 1118.37,-72 1126.56,-72"/>
<polygon fill="black" stroke="black" points="1126.75,-75.5 1136.75,-72 1126.75,-68.5 1126.75,-75.5"/>
</g>
<!-- 140662932569248&#45;&gt;140662932560752 -->
<g id="edge13" class="edge">
<title>140662932569248&#45;&gt;140662932560752</title>
<path fill="none" stroke="black" d="M1011.25,-57.43C1021.9,-59.95 1033.44,-62.67 1043.63,-65.07"/>
<polygon fill="black" stroke="black" points="1043.14,-68.55 1053.67,-67.44 1044.74,-61.74 1043.14,-68.55"/>
</g>
</g>
</svg>
