<?xml version="1.0" encoding="UTF-8" standalone="no"?>
<!DOCTYPE svg PUBLIC "-//W3C//DTD SVG 1.1//EN"
 "http://www.w3.org/Graphics/SVG/1.1/DTD/svg11.dtd">
<!-- Generated by graphviz version 2.43.0 (0)
 -->
<!-- Title: %3 Pages: 1 -->
<svg width="1434pt" height="241pt"
 viewBox="0.00 0.00 1434.00 240.58" xmlns="http://www.w3.org/2000/svg" xmlns:xlink="http://www.w3.org/1999/xlink">
<g id="graph0" class="graph" transform="scale(1 1) rotate(0) translate(4 236.58)">
<title>%3</title>
<polygon fill="white" stroke="transparent" points="-4,4 -4,-236.58 1430,-236.58 1430,4 -4,4"/>
<!-- 140662932228368 -->
<g id="node1" class="node">
<title>140662932228368</title>
<ellipse fill="green" stroke="black" cx="18" cy="-56.58" rx="18" ry="18"/>
</g>
<!-- 140662933420784 -->
<g id="node2" class="node">
<title>140662933420784</title>
<polygon fill="none" stroke="black" points="99,-74.58 72,-56.58 99,-38.58 126,-56.58 99,-74.58"/>
<text text-anchor="middle" x="99" y="-53.48" font-family="Times,serif" font-size="12.00">X</text>
</g>
<!-- 140662932228368&#45;&gt;140662933420784 -->
<g id="edge1" class="edge">
<title>140662932228368&#45;&gt;140662933420784</title>
<path fill="none" stroke="black" d="M36.14,-56.58C43.64,-56.58 52.75,-56.58 61.64,-56.58"/>
<polygon fill="black" stroke="black" points="61.87,-60.08 71.87,-56.58 61.87,-53.08 61.87,-60.08"/>
</g>
<!-- 140662933515248 -->
<g id="node3" class="node">
<title>140662933515248</title>
<polygon fill="none" stroke="black" points="242,-99.58 162,-99.58 162,-63.58 242,-63.58 242,-99.58"/>
<text text-anchor="middle" x="202" y="-78.48" font-family="Times,serif" font-size="12.00">take order</text>
</g>
<!-- 140662933420784&#45;&gt;140662933515248 -->
<g id="edge2" class="edge">
<title>140662933420784&#45;&gt;140662933515248</title>
<path fill="none" stroke="black" d="M119,-61.28C128.37,-63.6 140.16,-66.52 151.85,-69.41"/>
<polygon fill="black" stroke="black" points="151.04,-72.82 161.59,-71.82 152.73,-66.02 151.04,-72.82"/>
</g>
<!-- 140662933507808 -->
<g id="node4" class="node">
<title>140662933507808</title>
<polygon fill="none" stroke="black" points="305,-124.58 278,-106.58 305,-88.58 332,-106.58 305,-124.58"/>
<text text-anchor="middle" x="305" y="-103.48" font-family="Times,serif" font-size="12.00">+</text>
</g>
<!-- 140662933515248&#45;&gt;140662933507808 -->
<g id="edge3" class="edge">
<title>140662933515248&#45;&gt;140662933507808</title>
<path fill="none" stroke="black" d="M242.05,-91.24C253.04,-93.96 264.8,-96.87 275.08,-99.42"/>
<polygon fill="black" stroke="black" points="274.24,-102.82 284.79,-101.82 275.92,-96.02 274.24,-102.82"/>
</g>
<!-- 140662933410416 -->
<g id="node5" class="node">
<title>140662933410416</title>
<polygon fill="none" stroke="black" points="620.5,-232.58 432.5,-232.58 432.5,-196.58 620.5,-196.58 620.5,-232.58"/>
<text text-anchor="middle" x="526.5" y="-211.48" font-family="Times,serif" font-size="12.00">prepare nonalcoholic drinks</text>
</g>
<!-- 140662933507808&#45;&gt;140662933410416 -->
<g id="edge5" class="edge">
<title>140662933507808&#45;&gt;140662933410416</title>
<path fill="none" stroke="black" d="M312.25,-120.01C321.59,-138.48 341.02,-171.27 368,-187.58 384.38,-197.48 403.36,-204 422.36,-208.25"/>
<polygon fill="black" stroke="black" points="421.79,-211.71 432.29,-210.27 423.19,-204.85 421.79,-211.71"/>
</g>
<!-- 140662933408880 -->
<g id="node6" class="node">
<title>140662933408880</title>
<polygon fill="none" stroke="black" points="624.5,-178.58 428.5,-178.58 428.5,-142.58 624.5,-142.58 624.5,-178.58"/>
<text text-anchor="middle" x="526.5" y="-157.48" font-family="Times,serif" font-size="12.00">submit order ticket to kitchen</text>
</g>
<!-- 140662933507808&#45;&gt;140662933408880 -->
<g id="edge4" class="edge">
<title>140662933507808&#45;&gt;140662933408880</title>
<path fill="none" stroke="black" d="M320.9,-114.28C333.23,-120.36 351.35,-128.61 368,-133.58 384.11,-138.39 401.42,-142.44 418.46,-145.81"/>
<polygon fill="black" stroke="black" points="417.97,-149.28 428.45,-147.72 419.28,-142.41 417.97,-149.28"/>
</g>
<!-- 140662933413632 -->
<g id="node7" class="node">
<title>140662933413632</title>
<polygon fill="none" stroke="black" points="577.5,-124.58 475.5,-124.58 475.5,-88.58 577.5,-88.58 577.5,-124.58"/>
<text text-anchor="middle" x="526.5" y="-103.48" font-family="Times,serif" font-size="12.00">ready the cart</text>
</g>
<!-- 140662933507808&#45;&gt;140662933413632 -->
<g id="edge7" class="edge">
<title>140662933507808&#45;&gt;140662933413632</title>
<path fill="none" stroke="black" d="M332.04,-106.58C364.63,-106.58 421.47,-106.58 465.13,-106.58"/>
<polygon fill="black" stroke="black" points="465.36,-110.08 475.36,-106.58 465.36,-103.08 465.36,-110.08"/>
</g>
<!-- 140662933516640 -->
<g id="node8" class="node">
<title>140662933516640</title>
<polygon fill="none" stroke="black" points="685,-70.58 368,-70.58 368,-34.58 685,-34.58 685,-70.58"/>
<text text-anchor="middle" x="526.5" y="-49.48" font-family="Times,serif" font-size="12.00">fetch wine and prepare other alcoholic beverages</text>
</g>
<!-- 140662933507808&#45;&gt;140662933516640 -->
<g id="edge6" class="edge">
<title>140662933507808&#45;&gt;140662933516640</title>
<path fill="none" stroke="black" d="M320.9,-98.87C333.23,-92.8 351.35,-84.55 368,-79.58 376.02,-77.18 384.35,-74.97 392.78,-72.95"/>
<polygon fill="black" stroke="black" points="393.78,-76.31 402.73,-70.65 392.2,-69.49 393.78,-76.31"/>
</g>
<!-- 140662933421504 -->
<g id="node9" class="node">
<title>140662933421504</title>
<polygon fill="none" stroke="black" points="748,-124.58 721,-106.58 748,-88.58 775,-106.58 748,-124.58"/>
<text text-anchor="middle" x="748" y="-103.48" font-family="Times,serif" font-size="12.00">+</text>
</g>
<!-- 140662933410416&#45;&gt;140662933421504 -->
<g id="edge8" class="edge">
<title>140662933410416&#45;&gt;140662933421504</title>
<path fill="none" stroke="black" d="M620.71,-210.27C642.94,-206.17 665.77,-199.2 685,-187.58 707.97,-173.69 725.48,-147.85 735.94,-129.08"/>
<polygon fill="black" stroke="black" points="739.15,-130.49 740.75,-120.01 732.97,-127.2 739.15,-130.49"/>
</g>
<!-- 140662933408880&#45;&gt;140662933421504 -->
<g id="edge9" class="edge">
<title>140662933408880&#45;&gt;140662933421504</title>
<path fill="none" stroke="black" d="M624.55,-147.72C644.74,-144 665.73,-139.33 685,-133.58 697.88,-129.73 711.63,-123.93 722.91,-118.68"/>
<polygon fill="black" stroke="black" points="724.59,-121.76 732.1,-114.28 721.57,-115.45 724.59,-121.76"/>
</g>
<!-- 140662933413632&#45;&gt;140662933421504 -->
<g id="edge10" class="edge">
<title>140662933413632&#45;&gt;140662933421504</title>
<path fill="none" stroke="black" d="M577.58,-106.58C618.12,-106.58 674.26,-106.58 710.6,-106.58"/>
<polygon fill="black" stroke="black" points="710.75,-110.08 720.75,-106.58 710.75,-103.08 710.75,-110.08"/>
</g>
<!-- 140662933516640&#45;&gt;140662933421504 -->
<g id="edge11" class="edge">
<title>140662933516640&#45;&gt;140662933421504</title>
<path fill="none" stroke="black" d="M650.27,-70.65C662.09,-73.28 673.84,-76.24 685,-79.58 697.88,-83.42 711.63,-89.23 722.91,-94.47"/>
<polygon fill="black" stroke="black" points="721.57,-97.71 732.1,-98.87 724.59,-91.4 721.57,-97.71"/>
</g>
<!-- 140662933515968 -->
<g id="node10" class="node">
<title>140662933515968</title>
<polygon fill="none" stroke="black" points="906,-124.58 811,-124.58 811,-88.58 906,-88.58 906,-124.58"/>
<text text-anchor="middle" x="858.5" y="-103.48" font-family="Times,serif" font-size="12.00">deliver order</text>
</g>
<!-- 140662933421504&#45;&gt;140662933515968 -->
<g id="edge12" class="edge">
<title>140662933421504&#45;&gt;140662933515968</title>
<path fill="none" stroke="black" d="M775.26,-106.58C783.01,-106.58 791.81,-106.58 800.69,-106.58"/>
<polygon fill="black" stroke="black" points="800.71,-110.08 810.71,-106.58 800.71,-103.08 800.71,-110.08"/>
</g>
<!-- 140662933417952 -->
<g id="node11" class="node">
<title>140662933417952</title>
<polygon fill="none" stroke="black" points="1076,-124.58 942,-124.58 942,-88.58 1076,-88.58 1076,-124.58"/>
<text text-anchor="middle" x="1009" y="-103.48" font-family="Times,serif" font-size="12.00">debit guest account</text>
</g>
<!-- 140662933515968&#45;&gt;140662933417952 -->
<g id="edge13" class="edge">
<title>140662933515968&#45;&gt;140662933417952</title>
<path fill="none" stroke="black" d="M906.08,-106.58C914.21,-106.58 922.86,-106.58 931.55,-106.58"/>
<polygon fill="black" stroke="black" points="931.73,-110.08 941.73,-106.58 931.73,-103.08 931.73,-110.08"/>
</g>
<!-- 140662933410800 -->
<g id="node12" class="node">
<title>140662933410800</title>
<polygon fill="none" stroke="black" points="1139,-124.58 1112,-106.58 1139,-88.58 1166,-106.58 1139,-124.58"/>
<text text-anchor="middle" x="1139" y="-103.48" font-family="Times,serif" font-size="12.00">X</text>
</g>
<!-- 140662933417952&#45;&gt;140662933410800 -->
<g id="edge14" class="edge">
<title>140662933417952&#45;&gt;140662933410800</title>
<path fill="none" stroke="black" d="M1076.25,-106.58C1085.07,-106.58 1093.84,-106.58 1101.87,-106.58"/>
<polygon fill="black" stroke="black" points="1101.96,-110.08 1111.96,-106.58 1101.96,-103.08 1101.96,-110.08"/>
</g>
<!-- 140662933421216 -->
<g id="node13" class="node">
<title>140662933421216</title>
<polygon fill="none" stroke="black" points="1399,-124.58 1372,-106.58 1399,-88.58 1426,-106.58 1399,-124.58"/>
<text text-anchor="middle" x="1399" y="-103.48" font-family="Times,serif" font-size="12.00">X</text>
</g>
<!-- 140662933410800&#45;&gt;140662933421216 -->
<g id="edge15" class="edge">
<title>140662933410800&#45;&gt;140662933421216</title>
<path fill="none" stroke="black" d="M1154.22,-114.79C1166.44,-121.33 1184.76,-129.99 1202,-133.58 1260.3,-145.72 1277.7,-145.72 1336,-133.58 1349.33,-130.8 1363.32,-125 1374.62,-119.48"/>
<polygon fill="black" stroke="black" points="1376.48,-122.46 1383.78,-114.79 1373.28,-116.23 1376.48,-122.46"/>
</g>
<!-- 140662933514864 -->
<g id="node14" class="node">
<title>140662933514864</title>
<polygon fill="none" stroke="black" points="1336,-124.58 1202,-124.58 1202,-88.58 1336,-88.58 1336,-124.58"/>
<text text-anchor="middle" x="1269" y="-103.48" font-family="Times,serif" font-size="12.00">debit guest account</text>
</g>
<!-- 140662933410800&#45;&gt;140662933514864 -->
<g id="edge16" class="edge">
<title>140662933410800&#45;&gt;140662933514864</title>
<path fill="none" stroke="black" d="M1166.21,-106.58C1173.89,-106.58 1182.7,-106.58 1191.86,-106.58"/>
<polygon fill="black" stroke="black" points="1191.89,-110.08 1201.89,-106.58 1191.89,-103.08 1191.89,-110.08"/>
</g>
<!-- 140662932239456 -->
<g id="node15" class="node">
<title>140662932239456</title>
<ellipse fill="orange" stroke="black" cx="1269" cy="-52.58" rx="18" ry="18"/>
</g>
<!-- 140662933410800&#45;&gt;140662932239456 -->
<g id="edge17" class="edge">
<title>140662933410800&#45;&gt;140662932239456</title>
<path fill="none" stroke="black" d="M1155.76,-99.6C1168.26,-94.09 1186.21,-86.25 1202,-79.58 1215.28,-73.97 1230.13,-67.88 1242.37,-62.91"/>
<polygon fill="black" stroke="black" points="1244,-66.02 1251.95,-59.03 1241.37,-59.54 1244,-66.02"/>
</g>
<!-- 140662933421216&#45;&gt;140662933420784 -->
<g id="edge18" class="edge">
<title>140662933421216&#45;&gt;140662933420784</title>
<path fill="none" stroke="black" d="M1392.07,-93.18C1382.98,-74.44 1363.71,-40.97 1336,-25.58 1259.49,16.92 1227.52,-6.58 1140,-6.58 304,-6.58 304,-6.58 304,-6.58 238.06,-6.58 163.48,-31.53 125.38,-46.18"/>
<polygon fill="black" stroke="black" points="124.09,-42.92 116.07,-49.84 126.65,-49.44 124.09,-42.92"/>
</g>
<!-- 140662933514864&#45;&gt;140662933421216 -->
<g id="edge19" class="edge">
<title>140662933514864&#45;&gt;140662933421216</title>
<path fill="none" stroke="black" d="M1336.25,-106.58C1345.07,-106.58 1353.84,-106.58 1361.87,-106.58"/>
<polygon fill="black" stroke="black" points="1361.96,-110.08 1371.96,-106.58 1361.96,-103.08 1361.96,-110.08"/>
</g>
</g>
</svg>
