<?xml version="1.0" encoding="UTF-8" standalone="no"?>
<!DOCTYPE svg PUBLIC "-//W3C//DTD SVG 1.1//EN"
 "http://www.w3.org/Graphics/SVG/1.1/DTD/svg11.dtd">
<!-- Generated by graphviz version 2.43.0 (0)
 -->
<!-- Title: %3 Pages: 1 -->
<svg width="2096pt" height="428pt"
 viewBox="0.00 0.00 2096.00 428.00" xmlns="http://www.w3.org/2000/svg" xmlns:xlink="http://www.w3.org/1999/xlink">
<g id="graph0" class="graph" transform="scale(1 1) rotate(0) translate(4 424)">
<title>%3</title>
<polygon fill="white" stroke="transparent" points="-4,4 -4,-424 2092,-424 2092,4 -4,4"/>
<!-- 140662933585056 -->
<g id="node1" class="node">
<title>140662933585056</title>
<ellipse fill="green" stroke="black" cx="18" cy="-240" rx="18" ry="18"/>
</g>
<!-- 140662933511888 -->
<g id="node2" class="node">
<title>140662933511888</title>
<polygon fill="none" stroke="black" points="99,-258 72,-240 99,-222 126,-240 99,-258"/>
<text text-anchor="middle" x="99" y="-236.9" font-family="Times,serif" font-size="12.00">+</text>
</g>
<!-- 140662933585056&#45;&gt;140662933511888 -->
<g id="edge1" class="edge">
<title>140662933585056&#45;&gt;140662933511888</title>
<path fill="none" stroke="black" d="M36.14,-240C43.64,-240 52.75,-240 61.64,-240"/>
<polygon fill="black" stroke="black" points="61.87,-243.5 71.87,-240 61.87,-236.5 61.87,-243.5"/>
</g>
<!-- 140662933513328 -->
<g id="node3" class="node">
<title>140662933513328</title>
<polygon fill="none" stroke="black" points="460,-420 263,-420 263,-384 460,-384 460,-420"/>
<text text-anchor="middle" x="361.5" y="-398.9" font-family="Times,serif" font-size="12.00">Assign the order to the waiter</text>
</g>
<!-- 140662933511888&#45;&gt;140662933513328 -->
<g id="edge3" class="edge">
<title>140662933511888&#45;&gt;140662933513328</title>
<path fill="none" stroke="black" d="M102.31,-256.02C107.39,-284.96 122.42,-345.67 162,-375 187.84,-394.15 220.92,-402.99 252.64,-406.47"/>
<polygon fill="black" stroke="black" points="252.6,-409.98 262.88,-407.41 253.24,-403.01 252.6,-409.98"/>
</g>
<!-- 140662932239936 -->
<g id="node4" class="node">
<title>140662932239936</title>
<polygon fill="none" stroke="black" points="536.5,-366 186.5,-366 186.5,-330 536.5,-330 536.5,-366"/>
<text text-anchor="middle" x="361.5" y="-344.9" font-family="Times,serif" font-size="12.00">Sommelier fetches wine / prepares alcoholic beverages</text>
</g>
<!-- 140662933511888&#45;&gt;140662932239936 -->
<g id="edge6" class="edge">
<title>140662933511888&#45;&gt;140662932239936</title>
<path fill="none" stroke="black" d="M106.17,-253.57C115.42,-272.19 134.74,-305.16 162,-321 166.79,-323.78 171.76,-326.33 176.86,-328.65"/>
<polygon fill="black" stroke="black" points="175.59,-331.91 186.17,-332.59 178.32,-325.47 175.59,-331.91"/>
</g>
<!-- 140662932240320 -->
<g id="node5" class="node">
<title>140662932240320</title>
<polygon fill="none" stroke="black" points="460.5,-204 262.5,-204 262.5,-168 460.5,-168 460.5,-204"/>
<text text-anchor="middle" x="361.5" y="-182.9" font-family="Times,serif" font-size="12.00">Submit order ticket to kitchen</text>
</g>
<!-- 140662933511888&#45;&gt;140662932240320 -->
<g id="edge8" class="edge">
<title>140662933511888&#45;&gt;140662932240320</title>
<path fill="none" stroke="black" d="M114.86,-232.14C127.16,-225.98 145.27,-217.68 162,-213 190.89,-204.91 222.84,-199.21 252.52,-195.2"/>
<polygon fill="black" stroke="black" points="253.02,-198.67 262.48,-193.91 252.12,-191.73 253.02,-198.67"/>
</g>
<!-- 140662932234464 -->
<g id="node6" class="node">
<title>140662932234464</title>
<polygon fill="none" stroke="black" points="451,-150 272,-150 272,-114 451,-114 451,-150"/>
<text text-anchor="middle" x="361.5" y="-128.9" font-family="Times,serif" font-size="12.00">Submit order to sommelier</text>
</g>
<!-- 140662933511888&#45;&gt;140662932234464 -->
<g id="edge2" class="edge">
<title>140662933511888&#45;&gt;140662932234464</title>
<path fill="none" stroke="black" d="M106.17,-226.43C115.42,-207.81 134.74,-174.84 162,-159 191.71,-141.74 228.04,-133.78 261.47,-130.51"/>
<polygon fill="black" stroke="black" points="262.07,-133.98 271.74,-129.65 261.48,-127 262.07,-133.98"/>
</g>
<!-- 140662933577616 -->
<g id="node7" class="node">
<title>140662933577616</title>
<polygon fill="none" stroke="black" points="437,-312 286,-312 286,-276 437,-276 437,-312"/>
<text text-anchor="middle" x="361.5" y="-290.9" font-family="Times,serif" font-size="12.00">Kitchen prepares food</text>
</g>
<!-- 140662933511888&#45;&gt;140662933577616 -->
<g id="edge7" class="edge">
<title>140662933511888&#45;&gt;140662933577616</title>
<path fill="none" stroke="black" d="M114.86,-247.86C127.16,-254.02 145.27,-262.32 162,-267 198.58,-277.24 240.08,-283.66 275.64,-287.65"/>
<polygon fill="black" stroke="black" points="275.67,-291.17 285.99,-288.76 276.42,-284.21 275.67,-291.17"/>
</g>
<!-- 140662933580640 -->
<g id="node8" class="node">
<title>140662933580640</title>
<polygon fill="none" stroke="black" points="561,-258 162,-258 162,-222 561,-222 561,-258"/>
<text text-anchor="middle" x="361.5" y="-236.9" font-family="Times,serif" font-size="12.00">Waiter readies cart and gathers silverware/nonalcoholic drinks</text>
</g>
<!-- 140662933511888&#45;&gt;140662933580640 -->
<g id="edge5" class="edge">
<title>140662933511888&#45;&gt;140662933580640</title>
<path fill="none" stroke="black" d="M126.41,-240C133.71,-240 142.24,-240 151.64,-240"/>
<polygon fill="black" stroke="black" points="151.74,-243.5 161.74,-240 151.74,-236.5 151.74,-243.5"/>
</g>
<!-- 140662933576992 -->
<g id="node9" class="node">
<title>140662933576992</title>
<polygon fill="none" stroke="black" points="843,-99 701,-99 701,-63 843,-63 843,-99"/>
<text text-anchor="middle" x="772" y="-77.9" font-family="Times,serif" font-size="12.00">Take down the order</text>
</g>
<!-- 140662933511888&#45;&gt;140662933576992 -->
<g id="edge4" class="edge">
<title>140662933511888&#45;&gt;140662933576992</title>
<path fill="none" stroke="black" d="M102.04,-223.61C106.7,-194.06 121.06,-132.4 162,-105 325.1,4.16 571.54,-32.26 694.95,-60.61"/>
<polygon fill="black" stroke="black" points="694.16,-64.02 704.7,-62.89 695.76,-57.2 694.16,-64.02"/>
</g>
<!-- 140662933572432 -->
<g id="node12" class="node">
<title>140662933572432</title>
<polygon fill="none" stroke="black" points="1382,-393 983,-393 983,-357 1382,-357 1382,-393"/>
<text text-anchor="middle" x="1182.5" y="-371.9" font-family="Times,serif" font-size="12.00">Waiter readies cart and gathers silverware/nonalcoholic drinks</text>
</g>
<!-- 140662933513328&#45;&gt;140662933572432 -->
<g id="edge9" class="edge">
<title>140662933513328&#45;&gt;140662933572432</title>
<path fill="none" stroke="black" d="M460.07,-398.78C585.85,-394.64 807.94,-387.32 972.58,-381.89"/>
<polygon fill="black" stroke="black" points="972.96,-385.38 982.84,-381.55 972.73,-378.38 972.96,-385.38"/>
</g>
<!-- 140662933580496 -->
<g id="node14" class="node">
<title>140662933580496</title>
<polygon fill="none" stroke="black" points="772,-312 745,-294 772,-276 799,-294 772,-312"/>
<text text-anchor="middle" x="772" y="-290.9" font-family="Times,serif" font-size="12.00">+</text>
</g>
<!-- 140662932239936&#45;&gt;140662933580496 -->
<g id="edge10" class="edge">
<title>140662932239936&#45;&gt;140662933580496</title>
<path fill="none" stroke="black" d="M498.81,-329.98C584.37,-318.67 687.88,-304.99 739.1,-298.22"/>
<polygon fill="black" stroke="black" points="739.76,-301.66 749.21,-296.88 738.84,-294.72 739.76,-301.66"/>
</g>
<!-- 140662932238784 -->
<g id="node10" class="node">
<title>140662932238784</title>
<polygon fill="none" stroke="black" points="1258,-236 1107,-236 1107,-200 1258,-200 1258,-236"/>
<text text-anchor="middle" x="1182.5" y="-214.9" font-family="Times,serif" font-size="12.00">Kitchen prepares food</text>
</g>
<!-- 140662932240320&#45;&gt;140662932238784 -->
<g id="edge11" class="edge">
<title>140662932240320&#45;&gt;140662932238784</title>
<path fill="none" stroke="black" d="M460.88,-189.84C623.02,-196.18 943.6,-208.7 1096.5,-214.68"/>
<polygon fill="black" stroke="black" points="1096.64,-218.19 1106.77,-215.08 1096.92,-211.19 1096.64,-218.19"/>
</g>
<!-- 140662932230192 -->
<g id="node11" class="node">
<title>140662932230192</title>
<polygon fill="none" stroke="black" points="947,-169 597,-169 597,-133 947,-133 947,-169"/>
<text text-anchor="middle" x="772" y="-147.9" font-family="Times,serif" font-size="12.00">Sommelier fetches wine / prepares alcoholic beverages</text>
</g>
<!-- 140662932234464&#45;&gt;140662932230192 -->
<g id="edge12" class="edge">
<title>140662932234464&#45;&gt;140662932230192</title>
<path fill="none" stroke="black" d="M451.14,-136.12C491.01,-137.98 539.64,-140.24 586.84,-142.43"/>
<polygon fill="black" stroke="black" points="586.73,-145.93 596.88,-142.9 587.05,-138.94 586.73,-145.93"/>
</g>
<!-- 140662933577616&#45;&gt;140662933580496 -->
<g id="edge13" class="edge">
<title>140662933577616&#45;&gt;140662933580496</title>
<path fill="none" stroke="black" d="M437.43,-294C525.54,-294 668.19,-294 734.7,-294"/>
<polygon fill="black" stroke="black" points="734.7,-297.5 744.7,-294 734.7,-290.5 734.7,-297.5"/>
</g>
<!-- 140662933580640&#45;&gt;140662933580496 -->
<g id="edge14" class="edge">
<title>140662933580640&#45;&gt;140662933580496</title>
<path fill="none" stroke="black" d="M498.81,-258.02C584.37,-269.33 687.88,-283.01 739.1,-289.78"/>
<polygon fill="black" stroke="black" points="738.84,-293.28 749.21,-291.12 739.76,-286.34 738.84,-293.28"/>
</g>
<!-- 140662933581600 -->
<g id="node13" class="node">
<title>140662933581600</title>
<polygon fill="none" stroke="black" points="1600,-92 1573,-74 1600,-56 1627,-74 1600,-92"/>
<text text-anchor="middle" x="1600" y="-70.9" font-family="Times,serif" font-size="12.00">+</text>
</g>
<!-- 140662933576992&#45;&gt;140662933581600 -->
<g id="edge15" class="edge">
<title>140662933576992&#45;&gt;140662933581600</title>
<path fill="none" stroke="black" d="M843.07,-80.41C1011.88,-78.98 1436.49,-75.38 1562.93,-74.31"/>
<polygon fill="black" stroke="black" points="1563.25,-77.8 1573.22,-74.22 1563.19,-70.8 1563.25,-77.8"/>
</g>
<!-- 140662933505840 -->
<g id="node16" class="node">
<title>140662933505840</title>
<polygon fill="none" stroke="black" points="1989,-190 1962,-172 1989,-154 2016,-172 1989,-190"/>
<text text-anchor="middle" x="1989" y="-168.9" font-family="Times,serif" font-size="12.00">+</text>
</g>
<!-- 140662932238784&#45;&gt;140662933505840 -->
<g id="edge16" class="edge">
<title>140662932238784&#45;&gt;140662933505840</title>
<path fill="none" stroke="black" d="M1258.18,-219.18C1392.47,-220.33 1683.32,-218.36 1926,-186 1937.07,-184.52 1949.09,-182.02 1959.56,-179.54"/>
<polygon fill="black" stroke="black" points="1960.57,-182.9 1969.44,-177.11 1958.89,-176.1 1960.57,-182.9"/>
</g>
<!-- 140662932230192&#45;&gt;140662933505840 -->
<g id="edge17" class="edge">
<title>140662932230192&#45;&gt;140662933505840</title>
<path fill="none" stroke="black" d="M947.09,-159.44C1082.51,-165.27 1275.15,-172 1444,-172 1444,-172 1444,-172 1601,-172 1729.83,-172 1882.78,-172 1951.44,-172"/>
<polygon fill="black" stroke="black" points="1951.72,-175.5 1961.72,-172 1951.72,-168.5 1951.72,-175.5"/>
</g>
<!-- 140662933572432&#45;&gt;140662933505840 -->
<g id="edge18" class="edge">
<title>140662933572432&#45;&gt;140662933505840</title>
<path fill="none" stroke="black" d="M1305.58,-393.02C1463.91,-409.55 1741.59,-414.51 1926,-283 1955.38,-262.05 1972.52,-222.59 1981.07,-196.81"/>
<polygon fill="black" stroke="black" points="1984.49,-197.6 1984.13,-187.01 1977.81,-195.52 1984.49,-197.6"/>
</g>
<!-- 140662933505264 -->
<g id="node15" class="node">
<title>140662933505264</title>
<polygon fill="none" stroke="black" points="1925.5,-144 1728.5,-144 1728.5,-108 1925.5,-108 1925.5,-144"/>
<text text-anchor="middle" x="1827" y="-122.9" font-family="Times,serif" font-size="12.00">Assign the order to the waiter</text>
</g>
<!-- 140662933581600&#45;&gt;140662933505264 -->
<g id="edge19" class="edge">
<title>140662933581600&#45;&gt;140662933505264</title>
<path fill="none" stroke="black" d="M1620.57,-78.52C1646.76,-84.58 1694.9,-95.7 1738,-105.66"/>
<polygon fill="black" stroke="black" points="1737.44,-109.12 1747.97,-107.97 1739.01,-102.3 1737.44,-109.12"/>
</g>
<!-- 140662932231968 -->
<g id="node17" class="node">
<title>140662932231968</title>
<polygon fill="none" stroke="black" points="1926,-90 1728,-90 1728,-54 1926,-54 1926,-90"/>
<text text-anchor="middle" x="1827" y="-68.9" font-family="Times,serif" font-size="12.00">Submit order ticket to kitchen</text>
</g>
<!-- 140662933581600&#45;&gt;140662932231968 -->
<g id="edge21" class="edge">
<title>140662933581600&#45;&gt;140662932231968</title>
<path fill="none" stroke="black" d="M1626.81,-73.77C1649.45,-73.57 1683.98,-73.26 1717.96,-72.96"/>
<polygon fill="black" stroke="black" points="1718.03,-76.46 1727.99,-72.87 1717.96,-69.46 1718.03,-76.46"/>
</g>
<!-- 140662932228368 -->
<g id="node18" class="node">
<title>140662932228368</title>
<polygon fill="none" stroke="black" points="1916.5,-36 1737.5,-36 1737.5,0 1916.5,0 1916.5,-36"/>
<text text-anchor="middle" x="1827" y="-14.9" font-family="Times,serif" font-size="12.00">Submit order to sommelier</text>
</g>
<!-- 140662933581600&#45;&gt;140662932228368 -->
<g id="edge20" class="edge">
<title>140662933581600&#45;&gt;140662932228368</title>
<path fill="none" stroke="black" d="M1620.18,-69.23C1647.46,-62.44 1699.11,-49.58 1743.84,-38.45"/>
<polygon fill="black" stroke="black" points="1744.71,-41.84 1753.57,-36.03 1743.02,-35.05 1744.71,-41.84"/>
</g>
<!-- 140662933585344 -->
<g id="node19" class="node">
<title>140662933585344</title>
<polygon fill="none" stroke="black" points="1281,-312 1084,-312 1084,-276 1281,-276 1281,-312"/>
<text text-anchor="middle" x="1182.5" y="-290.9" font-family="Times,serif" font-size="12.00">Waiter delivers order to room</text>
</g>
<!-- 140662933580496&#45;&gt;140662933585344 -->
<g id="edge22" class="edge">
<title>140662933580496&#45;&gt;140662933585344</title>
<path fill="none" stroke="black" d="M799.17,-294C853.46,-294 980.97,-294 1073.85,-294"/>
<polygon fill="black" stroke="black" points="1073.86,-297.5 1083.86,-294 1073.86,-290.5 1073.86,-297.5"/>
</g>
<!-- 140662933505264&#45;&gt;140662933505840 -->
<g id="edge23" class="edge">
<title>140662933505264&#45;&gt;140662933505840</title>
<path fill="none" stroke="black" d="M1890.78,-144.05C1914.71,-150.93 1940.8,-158.43 1959.93,-163.93"/>
<polygon fill="black" stroke="black" points="1959.2,-167.36 1969.78,-166.76 1961.13,-160.63 1959.2,-167.36"/>
</g>
<!-- 140662933581504 -->
<g id="node23" class="node">
<title>140662933581504</title>
<ellipse fill="orange" stroke="black" cx="2070" cy="-172" rx="18" ry="18"/>
</g>
<!-- 140662933505840&#45;&gt;140662933581504 -->
<g id="edge27" class="edge">
<title>140662933505840&#45;&gt;140662933581504</title>
<path fill="none" stroke="black" d="M2016.31,-172C2024.42,-172 2033.37,-172 2041.56,-172"/>
<polygon fill="black" stroke="black" points="2041.75,-175.5 2051.75,-172 2041.75,-168.5 2041.75,-175.5"/>
</g>
<!-- 140662932231968&#45;&gt;140662933505840 -->
<g id="edge24" class="edge">
<title>140662932231968&#45;&gt;140662933505840</title>
<path fill="none" stroke="black" d="M1909.36,-90.2C1915.18,-92.76 1920.79,-95.68 1926,-99 1946.7,-112.2 1964.15,-134.46 1975.21,-150.94"/>
<polygon fill="black" stroke="black" points="1972.31,-152.9 1980.68,-159.4 1978.19,-149.1 1972.31,-152.9"/>
</g>
<!-- 140662932228368&#45;&gt;140662933505840 -->
<g id="edge25" class="edge">
<title>140662932228368&#45;&gt;140662933505840</title>
<path fill="none" stroke="black" d="M1912.75,-36.07C1917.46,-38.66 1921.93,-41.62 1926,-45 1957.78,-71.38 1974.57,-117.97 1982.35,-146.8"/>
<polygon fill="black" stroke="black" points="1978.97,-147.71 1984.82,-156.54 1985.75,-145.99 1978.97,-147.71"/>
</g>
<!-- 140665685874032 -->
<g id="node20" class="node">
<title>140665685874032</title>
<polygon fill="none" stroke="black" points="1445,-312 1418,-294 1445,-276 1472,-294 1445,-312"/>
<text text-anchor="middle" x="1445" y="-290.9" font-family="Times,serif" font-size="12.00">X</text>
</g>
<!-- 140662933585344&#45;&gt;140665685874032 -->
<g id="edge26" class="edge">
<title>140662933585344&#45;&gt;140665685874032</title>
<path fill="none" stroke="black" d="M1281.24,-294C1325.34,-294 1374.76,-294 1407.44,-294"/>
<polygon fill="black" stroke="black" points="1407.86,-297.5 1417.86,-294 1407.86,-290.5 1407.86,-297.5"/>
</g>
<!-- 140662933583520 -->
<g id="node21" class="node">
<title>140662933583520</title>
<polygon fill="none" stroke="black" points="1692,-316 1508,-316 1508,-280 1692,-280 1692,-316"/>
<text text-anchor="middle" x="1600" y="-294.9" font-family="Times,serif" font-size="12.00">Waiter debits guest account</text>
</g>
<!-- 140665685874032&#45;&gt;140662933583520 -->
<g id="edge28" class="edge">
<title>140665685874032&#45;&gt;140662933583520</title>
<path fill="none" stroke="black" d="M1471.26,-294.66C1479.01,-294.86 1488.06,-295.1 1497.69,-295.35"/>
<polygon fill="black" stroke="black" points="1497.83,-298.86 1507.92,-295.62 1498.01,-291.86 1497.83,-298.86"/>
</g>
<!-- 140662933420400 -->
<g id="node22" class="node">
<title>140662933420400</title>
<polygon fill="none" stroke="black" points="1827,-274 1800,-256 1827,-238 1854,-256 1827,-274"/>
<text text-anchor="middle" x="1827" y="-252.9" font-family="Times,serif" font-size="12.00">X</text>
</g>
<!-- 140662933583520&#45;&gt;140662933420400 -->
<g id="edge29" class="edge">
<title>140662933583520&#45;&gt;140662933420400</title>
<path fill="none" stroke="black" d="M1692.19,-280.98C1728.97,-274.11 1768.9,-266.66 1795.48,-261.7"/>
<polygon fill="black" stroke="black" points="1796.13,-265.14 1805.32,-259.86 1794.85,-258.25 1796.13,-265.14"/>
</g>
<!-- 140662933420400&#45;&gt;140662933505840 -->
<g id="edge30" class="edge">
<title>140662933420400&#45;&gt;140662933505840</title>
<path fill="none" stroke="black" d="M1848.06,-251.83C1868.54,-247.04 1900.81,-237.99 1926,-224 1942.37,-214.91 1958.49,-201.2 1970.2,-190.13"/>
<polygon fill="black" stroke="black" points="1972.81,-192.47 1977.54,-182.99 1967.93,-187.45 1972.81,-192.47"/>
</g>
<!-- 140662933420400&#45;&gt;140665685874032 -->
<g id="edge31" class="edge">
<title>140662933420400&#45;&gt;140665685874032</title>
<path fill="none" stroke="black" d="M1801.75,-254.63C1748.15,-252.15 1615.77,-249.02 1508,-271 1495.43,-273.56 1482.01,-278.27 1470.89,-282.77"/>
<polygon fill="black" stroke="black" points="1469.26,-279.65 1461.41,-286.77 1471.98,-286.11 1469.26,-279.65"/>
</g>
</g>
</svg>
