<?xml version="1.0" encoding="UTF-8" standalone="no"?>
<!DOCTYPE svg PUBLIC "-//W3C//DTD SVG 1.1//EN"
 "http://www.w3.org/Graphics/SVG/1.1/DTD/svg11.dtd">
<!-- Generated by graphviz version 2.43.0 (0)
 -->
<!-- Title: %3 Pages: 1 -->
<svg width="1076pt" height="98pt"
 viewBox="0.00 0.00 1076.00 98.00" xmlns="http://www.w3.org/2000/svg" xmlns:xlink="http://www.w3.org/1999/xlink">
<g id="graph0" class="graph" transform="scale(1 1) rotate(0) translate(4 94)">
<title>%3</title>
<polygon fill="white" stroke="transparent" points="-4,4 -4,-94 1072,-94 1072,4 -4,4"/>
<!-- 140662933416512 -->
<g id="node1" class="node">
<title>140662933416512</title>
<ellipse fill="green" stroke="black" cx="18" cy="-45" rx="18" ry="18"/>
</g>
<!-- 140662933411904 -->
<g id="node2" class="node">
<title>140662933411904</title>
<polygon fill="none" stroke="black" points="282,-63 72,-63 72,-27 282,-27 282,-63"/>
<text text-anchor="middle" x="177" y="-41.9" font-family="Times,serif" font-size="12.00">MSPN sends dismissal to MSPO</text>
</g>
<!-- 140662933416512&#45;&gt;140662933411904 -->
<g id="edge1" class="edge">
<title>140662933416512&#45;&gt;140662933411904</title>
<path fill="none" stroke="black" d="M36.1,-45C43.19,-45 52.06,-45 61.88,-45"/>
<polygon fill="black" stroke="black" points="61.98,-48.5 71.98,-45 61.98,-41.5 61.98,-48.5"/>
</g>
<!-- 140662933408304 -->
<g id="node3" class="node">
<title>140662933408304</title>
<polygon fill="none" stroke="black" points="505,-63 318,-63 318,-27 505,-27 505,-63"/>
<text text-anchor="middle" x="411.5" y="-41.9" font-family="Times,serif" font-size="12.00">MSPO reviews the dismissal</text>
</g>
<!-- 140662933411904&#45;&gt;140662933408304 -->
<g id="edge2" class="edge">
<title>140662933411904&#45;&gt;140662933408304</title>
<path fill="none" stroke="black" d="M282.01,-45C290.61,-45 299.31,-45 307.9,-45"/>
<polygon fill="black" stroke="black" points="307.93,-48.5 317.93,-45 307.93,-41.5 307.93,-48.5"/>
</g>
<!-- 140662933406288 -->
<g id="node4" class="node">
<title>140662933406288</title>
<polygon fill="none" stroke="black" points="568,-63 541,-45 568,-27 595,-45 568,-63"/>
<text text-anchor="middle" x="568" y="-41.9" font-family="Times,serif" font-size="12.00">X</text>
</g>
<!-- 140662933408304&#45;&gt;140662933406288 -->
<g id="edge3" class="edge">
<title>140662933408304&#45;&gt;140662933406288</title>
<path fill="none" stroke="black" d="M505.05,-45C514.06,-45 522.79,-45 530.7,-45"/>
<polygon fill="black" stroke="black" points="530.95,-48.5 540.95,-45 530.95,-41.5 530.95,-48.5"/>
</g>
<!-- 140662933409408 -->
<g id="node5" class="node">
<title>140662933409408</title>
<polygon fill="none" stroke="black" points="906,-90 631,-90 631,-54 906,-54 906,-90"/>
<text text-anchor="middle" x="768.5" y="-68.9" font-family="Times,serif" font-size="12.00">MSPO confirms the dismissal of the MSPN</text>
</g>
<!-- 140662933406288&#45;&gt;140662933409408 -->
<g id="edge4" class="edge">
<title>140662933406288&#45;&gt;140662933409408</title>
<path fill="none" stroke="black" d="M590.62,-47.94C599.99,-49.22 611.81,-50.82 624.88,-52.6"/>
<polygon fill="black" stroke="black" points="624.72,-56.11 635.1,-53.99 625.66,-49.18 624.72,-56.11"/>
</g>
<!-- 140662933414880 -->
<g id="node6" class="node">
<title>140662933414880</title>
<polygon fill="none" stroke="black" points="899.5,-36 637.5,-36 637.5,0 899.5,0 899.5,-36"/>
<text text-anchor="middle" x="768.5" y="-14.9" font-family="Times,serif" font-size="12.00">MSPO rejects the dismissal of the MSPN</text>
</g>
<!-- 140662933406288&#45;&gt;140662933414880 -->
<g id="edge5" class="edge">
<title>140662933406288&#45;&gt;140662933414880</title>
<path fill="none" stroke="black" d="M590.62,-42.06C600.58,-40.7 613.31,-38.97 627.37,-37.06"/>
<polygon fill="black" stroke="black" points="627.86,-40.53 637.3,-35.71 626.92,-33.59 627.86,-40.53"/>
</g>
<!-- 140662933408160 -->
<g id="node7" class="node">
<title>140662933408160</title>
<polygon fill="none" stroke="black" points="969,-63 942,-45 969,-27 996,-45 969,-63"/>
<text text-anchor="middle" x="969" y="-41.9" font-family="Times,serif" font-size="12.00">X</text>
</g>
<!-- 140662933409408&#45;&gt;140662933408160 -->
<g id="edge6" class="edge">
<title>140662933409408&#45;&gt;140662933408160</title>
<path fill="none" stroke="black" d="M901.9,-53.99C914.44,-52.29 926.17,-50.69 936.18,-49.33"/>
<polygon fill="black" stroke="black" points="936.87,-52.77 946.31,-47.95 935.93,-45.83 936.87,-52.77"/>
</g>
<!-- 140662933414880&#45;&gt;140662933408160 -->
<g id="edge7" class="edge">
<title>140662933414880&#45;&gt;140662933408160</title>
<path fill="none" stroke="black" d="M899.69,-35.71C913.17,-37.54 925.81,-39.26 936.46,-40.71"/>
<polygon fill="black" stroke="black" points="936.02,-44.18 946.4,-42.06 936.96,-37.25 936.02,-44.18"/>
</g>
<!-- 140662933416704 -->
<g id="node8" class="node">
<title>140662933416704</title>
<ellipse fill="orange" stroke="black" cx="1050" cy="-45" rx="18" ry="18"/>
</g>
<!-- 140662933408160&#45;&gt;140662933416704 -->
<g id="edge8" class="edge">
<title>140662933408160&#45;&gt;140662933416704</title>
<path fill="none" stroke="black" d="M996.31,-45C1004.42,-45 1013.37,-45 1021.56,-45"/>
<polygon fill="black" stroke="black" points="1021.75,-48.5 1031.75,-45 1021.75,-41.5 1021.75,-48.5"/>
</g>
</g>
</svg>
