<?xml version="1.0" encoding="UTF-8" standalone="no"?>
<!DOCTYPE svg PUBLIC "-//W3C//DTD SVG 1.1//EN"
 "http://www.w3.org/Graphics/SVG/1.1/DTD/svg11.dtd">
<!-- Generated by graphviz version 2.43.0 (0)
 -->
<!-- Title: %3 Pages: 1 -->
<svg width="1008pt" height="98pt"
 viewBox="0.00 0.00 1008.00 98.00" xmlns="http://www.w3.org/2000/svg" xmlns:xlink="http://www.w3.org/1999/xlink">
<g id="graph0" class="graph" transform="scale(1 1) rotate(0) translate(4 94)">
<title>%3</title>
<polygon fill="white" stroke="transparent" points="-4,4 -4,-94 1004,-94 1004,4 -4,4"/>
<!-- 140662937040208 -->
<g id="node1" class="node">
<title>140662937040208</title>
<ellipse fill="green" stroke="black" cx="18" cy="-45" rx="18" ry="18"/>
</g>
<!-- 140662933510016 -->
<g id="node2" class="node">
<title>140662933510016</title>
<polygon fill="none" stroke="black" points="282,-63 72,-63 72,-27 282,-27 282,-63"/>
<text text-anchor="middle" x="177" y="-41.9" font-family="Times,serif" font-size="12.00">MSPN sends dismissal to MSPO</text>
</g>
<!-- 140662937040208&#45;&gt;140662933510016 -->
<g id="edge1" class="edge">
<title>140662937040208&#45;&gt;140662933510016</title>
<path fill="none" stroke="black" d="M36.1,-45C43.19,-45 52.06,-45 61.88,-45"/>
<polygon fill="black" stroke="black" points="61.98,-48.5 71.98,-45 61.98,-41.5 61.98,-48.5"/>
</g>
<!-- 140662933509200 -->
<g id="node3" class="node">
<title>140662933509200</title>
<polygon fill="none" stroke="black" points="482,-63 318,-63 318,-27 482,-27 482,-63"/>
<text text-anchor="middle" x="400" y="-41.9" font-family="Times,serif" font-size="12.00">MSPO reviews dismissal</text>
</g>
<!-- 140662933510016&#45;&gt;140662933509200 -->
<g id="edge2" class="edge">
<title>140662933510016&#45;&gt;140662933509200</title>
<path fill="none" stroke="black" d="M282.03,-45C290.55,-45 299.11,-45 307.53,-45"/>
<polygon fill="black" stroke="black" points="307.71,-48.5 317.71,-45 307.71,-41.5 307.71,-48.5"/>
</g>
<!-- 140662933506272 -->
<g id="node4" class="node">
<title>140662933506272</title>
<polygon fill="none" stroke="black" points="545,-63 518,-45 545,-27 572,-45 545,-63"/>
<text text-anchor="middle" x="545" y="-41.9" font-family="Times,serif" font-size="12.00">X</text>
</g>
<!-- 140662933509200&#45;&gt;140662933506272 -->
<g id="edge3" class="edge">
<title>140662933509200&#45;&gt;140662933506272</title>
<path fill="none" stroke="black" d="M482.11,-45C490.95,-45 499.59,-45 507.48,-45"/>
<polygon fill="black" stroke="black" points="507.72,-48.5 517.72,-45 507.72,-41.5 507.72,-48.5"/>
</g>
<!-- 140662933510448 -->
<g id="node5" class="node">
<title>140662933510448</title>
<polygon fill="none" stroke="black" points="831.5,-90 614.5,-90 614.5,-54 831.5,-54 831.5,-90"/>
<text text-anchor="middle" x="723" y="-68.9" font-family="Times,serif" font-size="12.00">MSPO rejects dismissal of MSPN</text>
</g>
<!-- 140662933506272&#45;&gt;140662933510448 -->
<g id="edge4" class="edge">
<title>140662933506272&#45;&gt;140662933510448</title>
<path fill="none" stroke="black" d="M567.23,-48.26C577.33,-49.81 590.28,-51.79 604.38,-53.96"/>
<polygon fill="black" stroke="black" points="603.89,-57.42 614.31,-55.48 604.95,-50.5 603.89,-57.42"/>
</g>
<!-- 140662933514432 -->
<g id="node6" class="node">
<title>140662933514432</title>
<polygon fill="none" stroke="black" points="838,-36 608,-36 608,0 838,0 838,-36"/>
<text text-anchor="middle" x="723" y="-14.9" font-family="Times,serif" font-size="12.00">MSPO confirms dismissal of MSPN</text>
</g>
<!-- 140662933506272&#45;&gt;140662933514432 -->
<g id="edge5" class="edge">
<title>140662933506272&#45;&gt;140662933514432</title>
<path fill="none" stroke="black" d="M567.23,-41.74C575.73,-40.44 586.25,-38.83 597.77,-37.06"/>
<polygon fill="black" stroke="black" points="598.3,-40.52 607.66,-35.54 597.24,-33.6 598.3,-40.52"/>
</g>
<!-- 140662933517552 -->
<g id="node7" class="node">
<title>140662933517552</title>
<polygon fill="none" stroke="black" points="901,-63 874,-45 901,-27 928,-45 901,-63"/>
<text text-anchor="middle" x="901" y="-41.9" font-family="Times,serif" font-size="12.00">X</text>
</g>
<!-- 140662933510448&#45;&gt;140662933517552 -->
<g id="edge6" class="edge">
<title>140662933510448&#45;&gt;140662933517552</title>
<path fill="none" stroke="black" d="M831.7,-55.48C845.08,-53.42 857.82,-51.47 868.6,-49.82"/>
<polygon fill="black" stroke="black" points="869.31,-53.25 878.67,-48.27 868.25,-46.33 869.31,-53.25"/>
</g>
<!-- 140662933514432&#45;&gt;140662933517552 -->
<g id="edge7" class="edge">
<title>140662933514432&#45;&gt;140662933517552</title>
<path fill="none" stroke="black" d="M838.44,-35.56C849.49,-37.25 859.92,-38.85 868.94,-40.24"/>
<polygon fill="black" stroke="black" points="868.44,-43.7 878.85,-41.76 869.5,-36.78 868.44,-43.7"/>
</g>
<!-- 140662937029648 -->
<g id="node8" class="node">
<title>140662937029648</title>
<ellipse fill="orange" stroke="black" cx="982" cy="-45" rx="18" ry="18"/>
</g>
<!-- 140662933517552&#45;&gt;140662937029648 -->
<g id="edge8" class="edge">
<title>140662933517552&#45;&gt;140662937029648</title>
<path fill="none" stroke="black" d="M928.31,-45C936.42,-45 945.37,-45 953.56,-45"/>
<polygon fill="black" stroke="black" points="953.75,-48.5 963.75,-45 953.75,-41.5 953.75,-48.5"/>
</g>
</g>
</svg>
