<?xml version="1.0" encoding="UTF-8" standalone="no"?>
<!DOCTYPE svg PUBLIC "-//W3C//DTD SVG 1.1//EN"
 "http://www.w3.org/Graphics/SVG/1.1/DTD/svg11.dtd">
<!-- Generated by graphviz version 2.43.0 (0)
 -->
<!-- Title: %3 Pages: 1 -->
<svg width="1838pt" height="126pt"
 viewBox="0.00 0.00 1838.00 126.00" xmlns="http://www.w3.org/2000/svg" xmlns:xlink="http://www.w3.org/1999/xlink">
<g id="graph0" class="graph" transform="scale(1 1) rotate(0) translate(4 122)">
<title>%3</title>
<polygon fill="white" stroke="transparent" points="-4,4 -4,-122 1834,-122 1834,4 -4,4"/>
<!-- 140662933406576 -->
<g id="node1" class="node">
<title>140662933406576</title>
<ellipse fill="green" stroke="black" cx="18" cy="-23" rx="18" ry="18"/>
</g>
<!-- 140662933421552 -->
<g id="node2" class="node">
<title>140662933421552</title>
<polygon fill="none" stroke="black" points="176,-41 72,-41 72,-5 176,-5 176,-41"/>
<text text-anchor="middle" x="124" y="-19.9" font-family="Times,serif" font-size="12.00">Register claim</text>
</g>
<!-- 140662933406576&#45;&gt;140662933421552 -->
<g id="edge1" class="edge">
<title>140662933406576&#45;&gt;140662933421552</title>
<path fill="none" stroke="black" d="M36.17,-23C43.38,-23 52.23,-23 61.5,-23"/>
<polygon fill="black" stroke="black" points="61.66,-26.5 71.66,-23 61.66,-19.5 61.66,-26.5"/>
</g>
<!-- 140662937039008 -->
<g id="node3" class="node">
<title>140662937039008</title>
<polygon fill="none" stroke="black" points="239,-41 212,-23 239,-5 266,-23 239,-41"/>
<text text-anchor="middle" x="239" y="-19.9" font-family="Times,serif" font-size="12.00">X</text>
</g>
<!-- 140662933421552&#45;&gt;140662937039008 -->
<g id="edge2" class="edge">
<title>140662933421552&#45;&gt;140662937039008</title>
<path fill="none" stroke="black" d="M176.21,-23C184.82,-23 193.59,-23 201.72,-23"/>
<polygon fill="black" stroke="black" points="201.97,-26.5 211.97,-23 201.97,-19.5 201.97,-26.5"/>
</g>
<!-- 140662937040496 -->
<g id="node4" class="node">
<title>140662937040496</title>
<polygon fill="none" stroke="black" points="408,-64 302,-64 302,-28 408,-28 408,-64"/>
<text text-anchor="middle" x="355" y="-42.9" font-family="Times,serif" font-size="12.00">Examine claim</text>
</g>
<!-- 140662937039008&#45;&gt;140662937040496 -->
<g id="edge3" class="edge">
<title>140662937039008&#45;&gt;140662937040496</title>
<path fill="none" stroke="black" d="M260.12,-27.06C269.12,-28.87 280.26,-31.12 291.7,-33.43"/>
<polygon fill="black" stroke="black" points="291.28,-36.92 301.77,-35.46 292.66,-30.05 291.28,-36.92"/>
</g>
<!-- 140662937039200 -->
<g id="node5" class="node">
<title>140662937039200</title>
<polygon fill="none" stroke="black" points="665,-64 444,-64 444,-28 665,-28 665,-64"/>
<text text-anchor="middle" x="554.5" y="-42.9" font-family="Times,serif" font-size="12.00">Write settlement recommendation</text>
</g>
<!-- 140662937040496&#45;&gt;140662937039200 -->
<g id="edge4" class="edge">
<title>140662937040496&#45;&gt;140662937039200</title>
<path fill="none" stroke="black" d="M408.15,-46C416.2,-46 424.79,-46 433.62,-46"/>
<polygon fill="black" stroke="black" points="433.67,-49.5 443.67,-46 433.67,-42.5 433.67,-49.5"/>
</g>
<!-- 140662937042512 -->
<g id="node6" class="node">
<title>140662937042512</title>
<polygon fill="none" stroke="black" points="927,-64 701,-64 701,-28 927,-28 927,-64"/>
<text text-anchor="middle" x="814" y="-42.9" font-family="Times,serif" font-size="12.00">Check settlement recommendation</text>
</g>
<!-- 140662937039200&#45;&gt;140662937042512 -->
<g id="edge5" class="edge">
<title>140662937039200&#45;&gt;140662937042512</title>
<path fill="none" stroke="black" d="M665.08,-46C673.45,-46 681.93,-46 690.37,-46"/>
<polygon fill="black" stroke="black" points="690.64,-49.5 700.64,-46 690.64,-42.5 690.64,-49.5"/>
</g>
<!-- 140662937036896 -->
<g id="node7" class="node">
<title>140662937036896</title>
<polygon fill="none" stroke="black" points="990,-64 963,-46 990,-28 1017,-46 990,-64"/>
<text text-anchor="middle" x="990" y="-42.9" font-family="Times,serif" font-size="12.00">+</text>
</g>
<!-- 140662937042512&#45;&gt;140662937036896 -->
<g id="edge6" class="edge">
<title>140662937042512&#45;&gt;140662937036896</title>
<path fill="none" stroke="black" d="M927.16,-46C936.21,-46 944.85,-46 952.66,-46"/>
<polygon fill="black" stroke="black" points="952.75,-49.5 962.75,-46 952.75,-42.5 952.75,-49.5"/>
</g>
<!-- 140662933406480 -->
<g id="node8" class="node">
<title>140662933406480</title>
<polygon fill="none" stroke="black" points="1205,-118 1053,-118 1053,-82 1205,-82 1205,-118"/>
<text text-anchor="middle" x="1129" y="-96.9" font-family="Times,serif" font-size="12.00">Mark claim as Not OK</text>
</g>
<!-- 140662937036896&#45;&gt;140662933406480 -->
<g id="edge8" class="edge">
<title>140662937036896&#45;&gt;140662933406480</title>
<path fill="none" stroke="black" d="M1006.43,-53.05C1018.9,-58.67 1036.96,-66.63 1053,-73 1057.51,-74.79 1062.18,-76.6 1066.9,-78.38"/>
<polygon fill="black" stroke="black" points="1066,-81.78 1076.6,-82 1068.45,-75.22 1066,-81.78"/>
</g>
<!-- 140662933407296 -->
<g id="node9" class="node">
<title>140662933407296</title>
<polygon fill="none" stroke="black" points="1192,-64 1066,-64 1066,-28 1192,-28 1192,-64"/>
<text text-anchor="middle" x="1129" y="-42.9" font-family="Times,serif" font-size="12.00">Mark claim as OK</text>
</g>
<!-- 140662937036896&#45;&gt;140662933407296 -->
<g id="edge7" class="edge">
<title>140662937036896&#45;&gt;140662933407296</title>
<path fill="none" stroke="black" d="M1017.09,-46C1028.27,-46 1041.94,-46 1055.81,-46"/>
<polygon fill="black" stroke="black" points="1055.92,-49.5 1065.92,-46 1055.92,-42.5 1055.92,-49.5"/>
</g>
<!-- 140662937029744 -->
<g id="node10" class="node">
<title>140662937029744</title>
<polygon fill="none" stroke="black" points="1268,-91 1241,-73 1268,-55 1295,-73 1268,-91"/>
<text text-anchor="middle" x="1268" y="-69.9" font-family="Times,serif" font-size="12.00">+</text>
</g>
<!-- 140662933406480&#45;&gt;140662937029744 -->
<g id="edge9" class="edge">
<title>140662933406480&#45;&gt;140662937029744</title>
<path fill="none" stroke="black" d="M1205.31,-85.16C1216.43,-82.97 1227.3,-80.82 1236.74,-78.96"/>
<polygon fill="black" stroke="black" points="1237.6,-82.36 1246.74,-76.99 1236.25,-75.49 1237.6,-82.36"/>
</g>
<!-- 140662933407296&#45;&gt;140662937029744 -->
<g id="edge10" class="edge">
<title>140662933407296&#45;&gt;140662937029744</title>
<path fill="none" stroke="black" d="M1192.09,-58.24C1207.62,-61.3 1223.59,-64.44 1236.78,-67.04"/>
<polygon fill="black" stroke="black" points="1236.2,-70.5 1246.69,-69 1237.56,-63.63 1236.2,-70.5"/>
</g>
<!-- 140662933515056 -->
<g id="node11" class="node">
<title>140662933515056</title>
<polygon fill="none" stroke="black" points="1358,-91 1331,-73 1358,-55 1385,-73 1358,-91"/>
<text text-anchor="middle" x="1358" y="-69.9" font-family="Times,serif" font-size="12.00">X</text>
</g>
<!-- 140662937029744&#45;&gt;140662933515056 -->
<g id="edge11" class="edge">
<title>140662937029744&#45;&gt;140662933515056</title>
<path fill="none" stroke="black" d="M1295.4,-73C1303.39,-73 1312.31,-73 1320.82,-73"/>
<polygon fill="black" stroke="black" points="1320.92,-76.5 1330.92,-73 1320.92,-69.5 1320.92,-76.5"/>
</g>
<!-- 140662933414160 -->
<g id="node12" class="node">
<title>140662933414160</title>
<polygon fill="none" stroke="black" points="1573,-118 1421,-118 1421,-82 1573,-82 1573,-118"/>
<text text-anchor="middle" x="1497" y="-96.9" font-family="Times,serif" font-size="12.00">Mark claim as Not OK</text>
</g>
<!-- 140662933515056&#45;&gt;140662933414160 -->
<g id="edge12" class="edge">
<title>140662933515056&#45;&gt;140662933414160</title>
<path fill="none" stroke="black" d="M1379.21,-76.98C1388.05,-78.73 1399.07,-80.9 1410.79,-83.21"/>
<polygon fill="black" stroke="black" points="1410.27,-86.67 1420.76,-85.17 1411.63,-79.8 1410.27,-86.67"/>
</g>
<!-- 140662933412000 -->
<g id="node14" class="node">
<title>140662933412000</title>
<ellipse fill="orange" stroke="black" cx="1497" cy="-46" rx="18" ry="18"/>
</g>
<!-- 140662933515056&#45;&gt;140662933412000 -->
<g id="edge13" class="edge">
<title>140662933515056&#45;&gt;140662933412000</title>
<path fill="none" stroke="black" d="M1379.21,-69.02C1403.03,-64.32 1442.68,-56.51 1469.08,-51.31"/>
<polygon fill="black" stroke="black" points="1470.02,-54.69 1479.16,-49.32 1468.67,-47.82 1470.02,-54.69"/>
</g>
<!-- 140662937035600 -->
<g id="node13" class="node">
<title>140662937035600</title>
<polygon fill="none" stroke="black" points="1830,-68 1609,-68 1609,-32 1830,-32 1830,-68"/>
<text text-anchor="middle" x="1719.5" y="-46.9" font-family="Times,serif" font-size="12.00">Write settlement recommendation</text>
</g>
<!-- 140662933414160&#45;&gt;140662937035600 -->
<g id="edge14" class="edge">
<title>140662933414160&#45;&gt;140662937035600</title>
<path fill="none" stroke="black" d="M1573.27,-82.93C1591.24,-78.86 1610.61,-74.47 1629.15,-70.26"/>
<polygon fill="black" stroke="black" points="1630.08,-73.64 1639.06,-68.01 1628.53,-66.81 1630.08,-73.64"/>
</g>
<!-- 140662937035600&#45;&gt;140662937039008 -->
<g id="edge15" class="edge">
<title>140662937035600&#45;&gt;140662937039008</title>
<path fill="none" stroke="black" d="M1642.55,-32C1620.24,-27.21 1595.73,-22.42 1573,-19 1478.58,-4.8 1454.49,0 1359,0 553.5,0 553.5,0 553.5,0 450.45,0 328.85,-12.51 272.14,-19.08"/>
<polygon fill="black" stroke="black" points="271.53,-15.63 262,-20.27 272.34,-22.58 271.53,-15.63"/>
</g>
</g>
</svg>
