<?xml version="1.0" encoding="UTF-8" standalone="no"?>
<!DOCTYPE svg PUBLIC "-//W3C//DTD SVG 1.1//EN"
 "http://www.w3.org/Graphics/SVG/1.1/DTD/svg11.dtd">
<!-- Generated by graphviz version 2.43.0 (0)
 -->
<!-- Title: %3 Pages: 1 -->
<svg width="1605pt" height="153pt"
 viewBox="0.00 0.00 1605.00 153.34" xmlns="http://www.w3.org/2000/svg" xmlns:xlink="http://www.w3.org/1999/xlink">
<g id="graph0" class="graph" transform="scale(1 1) rotate(0) translate(4 149.34)">
<title>%3</title>
<polygon fill="white" stroke="transparent" points="-4,4 -4,-149.34 1601,-149.34 1601,4 -4,4"/>
<!-- 140662936908992 -->
<g id="node1" class="node">
<title>140662936908992</title>
<ellipse fill="green" stroke="black" cx="18" cy="-31.01" rx="18" ry="18"/>
</g>
<!-- 140662936898192 -->
<g id="node2" class="node">
<title>140662936898192</title>
<polygon fill="none" stroke="black" points="176,-49.01 72,-49.01 72,-13.01 176,-13.01 176,-49.01"/>
<text text-anchor="middle" x="124" y="-27.91" font-family="Times,serif" font-size="12.00">Register claim</text>
</g>
<!-- 140662936908992&#45;&gt;140662936898192 -->
<g id="edge1" class="edge">
<title>140662936908992&#45;&gt;140662936898192</title>
<path fill="none" stroke="black" d="M36.17,-31.01C43.38,-31.01 52.23,-31.01 61.5,-31.01"/>
<polygon fill="black" stroke="black" points="61.66,-34.51 71.66,-31.01 61.66,-27.51 61.66,-34.51"/>
</g>
<!-- 140662932557344 -->
<g id="node3" class="node">
<title>140662932557344</title>
<polygon fill="none" stroke="black" points="318,-49.01 212,-49.01 212,-13.01 318,-13.01 318,-49.01"/>
<text text-anchor="middle" x="265" y="-27.91" font-family="Times,serif" font-size="12.00">Examine claim</text>
</g>
<!-- 140662936898192&#45;&gt;140662932557344 -->
<g id="edge2" class="edge">
<title>140662936898192&#45;&gt;140662932557344</title>
<path fill="none" stroke="black" d="M176.36,-31.01C184.61,-31.01 193.22,-31.01 201.69,-31.01"/>
<polygon fill="black" stroke="black" points="201.92,-34.51 211.92,-31.01 201.92,-27.51 201.92,-34.51"/>
</g>
<!-- 140662936906928 -->
<g id="node4" class="node">
<title>140662936906928</title>
<polygon fill="none" stroke="black" points="381,-49.01 354,-31.01 381,-13.01 408,-31.01 381,-49.01"/>
<text text-anchor="middle" x="381" y="-27.91" font-family="Times,serif" font-size="12.00">X</text>
</g>
<!-- 140662932557344&#45;&gt;140662936906928 -->
<g id="edge3" class="edge">
<title>140662932557344&#45;&gt;140662936906928</title>
<path fill="none" stroke="black" d="M318.33,-31.01C326.88,-31.01 335.56,-31.01 343.62,-31.01"/>
<polygon fill="black" stroke="black" points="343.77,-34.51 353.77,-31.01 343.77,-27.51 343.77,-34.51"/>
</g>
<!-- 140665726892928 -->
<g id="node5" class="node">
<title>140665726892928</title>
<polygon fill="none" stroke="black" points="665,-72.01 444,-72.01 444,-36.01 665,-36.01 665,-72.01"/>
<text text-anchor="middle" x="554.5" y="-50.91" font-family="Times,serif" font-size="12.00">Write settlement recommendation</text>
</g>
<!-- 140662936906928&#45;&gt;140665726892928 -->
<g id="edge4" class="edge">
<title>140662936906928&#45;&gt;140665726892928</title>
<path fill="none" stroke="black" d="M403.72,-33.93C412.16,-35.06 422.51,-36.45 433.8,-37.96"/>
<polygon fill="black" stroke="black" points="433.57,-41.46 443.94,-39.32 434.5,-34.52 433.57,-41.46"/>
</g>
<!-- 140662936897856 -->
<g id="node6" class="node">
<title>140662936897856</title>
<polygon fill="none" stroke="black" points="861,-72.01 701,-72.01 701,-36.01 861,-36.01 861,-72.01"/>
<text text-anchor="middle" x="781" y="-50.91" font-family="Times,serif" font-size="12.00">Check recommendation</text>
</g>
<!-- 140665726892928&#45;&gt;140662936897856 -->
<g id="edge5" class="edge">
<title>140665726892928&#45;&gt;140662936897856</title>
<path fill="none" stroke="black" d="M665.12,-54.01C673.67,-54.01 682.23,-54.01 690.62,-54.01"/>
<polygon fill="black" stroke="black" points="690.75,-57.51 700.75,-54.01 690.75,-50.51 690.75,-57.51"/>
</g>
<!-- 140662936896224 -->
<g id="node7" class="node">
<title>140662936896224</title>
<polygon fill="none" stroke="black" points="924,-72.01 897,-54.01 924,-36.01 951,-54.01 924,-72.01"/>
<text text-anchor="middle" x="924" y="-50.91" font-family="Times,serif" font-size="12.00">X</text>
</g>
<!-- 140662936897856&#45;&gt;140662936896224 -->
<g id="edge6" class="edge">
<title>140662936897856&#45;&gt;140662936896224</title>
<path fill="none" stroke="black" d="M861.16,-54.01C870.15,-54.01 878.95,-54.01 886.96,-54.01"/>
<polygon fill="black" stroke="black" points="886.99,-57.51 896.99,-54.01 886.99,-50.51 886.99,-57.51"/>
</g>
<!-- 140665726943584 -->
<g id="node8" class="node">
<title>140665726943584</title>
<polygon fill="none" stroke="black" points="1139,-126.01 987,-126.01 987,-90.01 1139,-90.01 1139,-126.01"/>
<text text-anchor="middle" x="1063" y="-104.91" font-family="Times,serif" font-size="12.00">Mark claim as Not OK</text>
</g>
<!-- 140662936896224&#45;&gt;140665726943584 -->
<g id="edge8" class="edge">
<title>140662936896224&#45;&gt;140665726943584</title>
<path fill="none" stroke="black" d="M940.43,-61.06C952.9,-66.68 970.96,-74.64 987,-81.01 991.51,-82.8 996.18,-84.61 1000.9,-86.39"/>
<polygon fill="black" stroke="black" points="1000,-89.79 1010.6,-90.01 1002.45,-83.23 1000,-89.79"/>
</g>
<!-- 140662963090912 -->
<g id="node9" class="node">
<title>140662963090912</title>
<polygon fill="none" stroke="black" points="1126,-72.01 1000,-72.01 1000,-36.01 1126,-36.01 1126,-72.01"/>
<text text-anchor="middle" x="1063" y="-50.91" font-family="Times,serif" font-size="12.00">Mark claim as OK</text>
</g>
<!-- 140662936896224&#45;&gt;140662963090912 -->
<g id="edge7" class="edge">
<title>140662936896224&#45;&gt;140662963090912</title>
<path fill="none" stroke="black" d="M951.09,-54.01C962.27,-54.01 975.94,-54.01 989.81,-54.01"/>
<polygon fill="black" stroke="black" points="989.92,-57.51 999.92,-54.01 989.92,-50.51 989.92,-57.51"/>
</g>
<!-- 140662936908080 -->
<g id="node10" class="node">
<title>140662936908080</title>
<polygon fill="none" stroke="black" points="1202,-126.01 1175,-108.01 1202,-90.01 1229,-108.01 1202,-126.01"/>
<text text-anchor="middle" x="1202" y="-104.91" font-family="Times,serif" font-size="12.00">X</text>
</g>
<!-- 140665726943584&#45;&gt;140662936908080 -->
<g id="edge9" class="edge">
<title>140665726943584&#45;&gt;140662936908080</title>
<path fill="none" stroke="black" d="M1139.31,-108.01C1148.22,-108.01 1156.97,-108.01 1164.96,-108.01"/>
<polygon fill="black" stroke="black" points="1164.96,-111.51 1174.96,-108.01 1164.96,-104.51 1164.96,-111.51"/>
</g>
<!-- 140662963090912&#45;&gt;140662936908080 -->
<g id="edge10" class="edge">
<title>140662963090912&#45;&gt;140662936908080</title>
<path fill="none" stroke="black" d="M1115.4,-72.02C1123.34,-74.94 1131.41,-78 1139,-81.01 1151.41,-85.94 1165.02,-91.82 1176.32,-96.83"/>
<polygon fill="black" stroke="black" points="1175.02,-100.08 1185.57,-100.96 1177.87,-93.69 1175.02,-100.08"/>
</g>
<!-- 140662936908128 -->
<g id="node11" class="node">
<title>140662936908128</title>
<polygon fill="none" stroke="black" points="1292,-126.01 1265,-108.01 1292,-90.01 1319,-108.01 1292,-126.01"/>
<text text-anchor="middle" x="1292" y="-104.91" font-family="Times,serif" font-size="12.00">X</text>
</g>
<!-- 140662936908080&#45;&gt;140662936908128 -->
<g id="edge11" class="edge">
<title>140662936908080&#45;&gt;140662936908128</title>
<path fill="none" stroke="black" d="M1229.4,-108.01C1237.39,-108.01 1246.31,-108.01 1254.82,-108.01"/>
<polygon fill="black" stroke="black" points="1254.92,-111.51 1264.92,-108.01 1254.92,-104.51 1254.92,-111.51"/>
</g>
<!-- 140662936897952 -->
<g id="node12" class="node">
<title>140662936897952</title>
<polygon fill="none" stroke="black" points="1570,-126.01 1543,-108.01 1570,-90.01 1597,-108.01 1570,-126.01"/>
<text text-anchor="middle" x="1570" y="-104.91" font-family="Times,serif" font-size="12.00">X</text>
</g>
<!-- 140662936908128&#45;&gt;140662936897952 -->
<g id="edge13" class="edge">
<title>140662936908128&#45;&gt;140662936897952</title>
<path fill="none" stroke="black" d="M1307.22,-116.22C1319.44,-122.77 1337.76,-131.42 1355,-135.01 1421.14,-148.79 1440.86,-148.79 1507,-135.01 1520.33,-132.24 1534.32,-126.43 1545.62,-120.91"/>
<polygon fill="black" stroke="black" points="1547.48,-123.89 1554.78,-116.22 1544.28,-117.66 1547.48,-123.89"/>
</g>
<!-- 140662936897712 -->
<g id="node13" class="node">
<title>140662936897712</title>
<polygon fill="none" stroke="black" points="1507,-126.01 1355,-126.01 1355,-90.01 1507,-90.01 1507,-126.01"/>
<text text-anchor="middle" x="1431" y="-104.91" font-family="Times,serif" font-size="12.00">Mark claim as Not OK</text>
</g>
<!-- 140662936908128&#45;&gt;140662936897712 -->
<g id="edge12" class="edge">
<title>140662936908128&#45;&gt;140662936897712</title>
<path fill="none" stroke="black" d="M1319.09,-108.01C1326.73,-108.01 1335.53,-108.01 1344.76,-108.01"/>
<polygon fill="black" stroke="black" points="1344.92,-111.51 1354.92,-108.01 1344.92,-104.51 1344.92,-111.51"/>
</g>
<!-- 140662936903136 -->
<g id="node14" class="node">
<title>140662936903136</title>
<ellipse fill="orange" stroke="black" cx="1431" cy="-54.01" rx="18" ry="18"/>
</g>
<!-- 140662936908128&#45;&gt;140662936903136 -->
<g id="edge14" class="edge">
<title>140662936908128&#45;&gt;140662936903136</title>
<path fill="none" stroke="black" d="M1308.43,-100.96C1320.9,-95.34 1338.96,-87.38 1355,-81.01 1371.14,-74.6 1389.49,-67.98 1404,-62.91"/>
<polygon fill="black" stroke="black" points="1405.49,-66.09 1413.79,-59.51 1403.2,-59.48 1405.49,-66.09"/>
</g>
<!-- 140662936897952&#45;&gt;140662936906928 -->
<g id="edge15" class="edge">
<title>140662936897952&#45;&gt;140662936906928</title>
<path fill="none" stroke="black" d="M1563.08,-94.58C1554.02,-75.81 1534.77,-42.29 1507,-27.01 1423.34,19.02 1388.49,-8.01 1293,-8.01 780,-8.01 780,-8.01 780,-8.01 644.33,-8.01 483.09,-21.5 414.97,-27.82"/>
<polygon fill="black" stroke="black" points="414.48,-24.35 404.86,-28.77 415.14,-31.32 414.48,-24.35"/>
</g>
<!-- 140662936897712&#45;&gt;140662936897952 -->
<g id="edge16" class="edge">
<title>140662936897712&#45;&gt;140662936897952</title>
<path fill="none" stroke="black" d="M1507.31,-108.01C1516.22,-108.01 1524.97,-108.01 1532.96,-108.01"/>
<polygon fill="black" stroke="black" points="1532.96,-111.51 1542.96,-108.01 1532.96,-104.51 1532.96,-111.51"/>
</g>
</g>
</svg>
