<?xml version="1.0" encoding="UTF-8" standalone="no"?>
<!DOCTYPE svg PUBLIC "-//W3C//DTD SVG 1.1//EN"
 "http://www.w3.org/Graphics/SVG/1.1/DTD/svg11.dtd">
<!-- Generated by graphviz version 2.43.0 (0)
 -->
<!-- Title: %3 Pages: 1 -->
<svg width="1700pt" height="126pt"
 viewBox="0.00 0.00 1700.00 126.00" xmlns="http://www.w3.org/2000/svg" xmlns:xlink="http://www.w3.org/1999/xlink">
<g id="graph0" class="graph" transform="scale(1 1) rotate(0) translate(4 122)">
<title>%3</title>
<polygon fill="white" stroke="transparent" points="-4,4 -4,-122 1696,-122 1696,4 -4,4"/>
<!-- 140662936896320 -->
<g id="node1" class="node">
<title>140662936896320</title>
<ellipse fill="green" stroke="black" cx="18" cy="-23" rx="18" ry="18"/>
</g>
<!-- 140662933510688 -->
<g id="node2" class="node">
<title>140662933510688</title>
<polygon fill="none" stroke="black" points="176,-41 72,-41 72,-5 176,-5 176,-41"/>
<text text-anchor="middle" x="124" y="-19.9" font-family="Times,serif" font-size="12.00">Register claim</text>
</g>
<!-- 140662936896320&#45;&gt;140662933510688 -->
<g id="edge1" class="edge">
<title>140662936896320&#45;&gt;140662933510688</title>
<path fill="none" stroke="black" d="M36.17,-23C43.38,-23 52.23,-23 61.5,-23"/>
<polygon fill="black" stroke="black" points="61.66,-26.5 71.66,-23 61.66,-19.5 61.66,-26.5"/>
</g>
<!-- 140662933515200 -->
<g id="node3" class="node">
<title>140662933515200</title>
<polygon fill="none" stroke="black" points="318,-41 212,-41 212,-5 318,-5 318,-41"/>
<text text-anchor="middle" x="265" y="-19.9" font-family="Times,serif" font-size="12.00">Examine claim</text>
</g>
<!-- 140662933510688&#45;&gt;140662933515200 -->
<g id="edge2" class="edge">
<title>140662933510688&#45;&gt;140662933515200</title>
<path fill="none" stroke="black" d="M176.36,-23C184.61,-23 193.22,-23 201.69,-23"/>
<polygon fill="black" stroke="black" points="201.92,-26.5 211.92,-23 201.92,-19.5 201.92,-26.5"/>
</g>
<!-- 140662933506512 -->
<g id="node4" class="node">
<title>140662933506512</title>
<polygon fill="none" stroke="black" points="381,-41 354,-23 381,-5 408,-23 381,-41"/>
<text text-anchor="middle" x="381" y="-19.9" font-family="Times,serif" font-size="12.00">X</text>
</g>
<!-- 140662933515200&#45;&gt;140662933506512 -->
<g id="edge3" class="edge">
<title>140662933515200&#45;&gt;140662933506512</title>
<path fill="none" stroke="black" d="M318.33,-23C326.88,-23 335.56,-23 343.62,-23"/>
<polygon fill="black" stroke="black" points="343.77,-26.5 353.77,-23 343.77,-19.5 343.77,-26.5"/>
</g>
<!-- 140662933516352 -->
<g id="node5" class="node">
<title>140662933516352</title>
<polygon fill="none" stroke="black" points="665,-64 444,-64 444,-28 665,-28 665,-64"/>
<text text-anchor="middle" x="554.5" y="-42.9" font-family="Times,serif" font-size="12.00">Write settlement recommendation</text>
</g>
<!-- 140662933506512&#45;&gt;140662933516352 -->
<g id="edge4" class="edge">
<title>140662933506512&#45;&gt;140662933516352</title>
<path fill="none" stroke="black" d="M403.72,-25.91C412.16,-27.04 422.51,-28.43 433.8,-29.95"/>
<polygon fill="black" stroke="black" points="433.57,-33.45 443.94,-31.31 434.5,-26.51 433.57,-33.45"/>
</g>
<!-- 140662933509824 -->
<g id="node6" class="node">
<title>140662933509824</title>
<polygon fill="none" stroke="black" points="861,-64 701,-64 701,-28 861,-28 861,-64"/>
<text text-anchor="middle" x="781" y="-42.9" font-family="Times,serif" font-size="12.00">Check recommendation</text>
</g>
<!-- 140662933516352&#45;&gt;140662933509824 -->
<g id="edge5" class="edge">
<title>140662933516352&#45;&gt;140662933509824</title>
<path fill="none" stroke="black" d="M665.12,-46C673.67,-46 682.23,-46 690.62,-46"/>
<polygon fill="black" stroke="black" points="690.75,-49.5 700.75,-46 690.75,-42.5 690.75,-49.5"/>
</g>
<!-- 140662933504304 -->
<g id="node7" class="node">
<title>140662933504304</title>
<polygon fill="none" stroke="black" points="924,-64 897,-46 924,-28 951,-46 924,-64"/>
<text text-anchor="middle" x="924" y="-42.9" font-family="Times,serif" font-size="12.00">X</text>
</g>
<!-- 140662933509824&#45;&gt;140662933504304 -->
<g id="edge6" class="edge">
<title>140662933509824&#45;&gt;140662933504304</title>
<path fill="none" stroke="black" d="M861.16,-46C870.15,-46 878.95,-46 886.96,-46"/>
<polygon fill="black" stroke="black" points="886.99,-49.5 896.99,-46 886.99,-42.5 886.99,-49.5"/>
</g>
<!-- 140662933508912 -->
<g id="node8" class="node">
<title>140662933508912</title>
<polygon fill="none" stroke="black" points="1089.5,-118 1000.5,-118 1000.5,-82 1089.5,-82 1089.5,-118"/>
<text text-anchor="middle" x="1045" y="-96.9" font-family="Times,serif" font-size="12.00">Mark as OK</text>
</g>
<!-- 140662933504304&#45;&gt;140662933508912 -->
<g id="edge7" class="edge">
<title>140662933504304&#45;&gt;140662933508912</title>
<path fill="none" stroke="black" d="M940.56,-53.06C954.43,-59.35 975.49,-68.91 995,-77.77"/>
<polygon fill="black" stroke="black" points="993.57,-80.96 1004.12,-81.9 996.46,-74.58 993.57,-80.96"/>
</g>
<!-- 140662933506944 -->
<g id="node9" class="node">
<title>140662933506944</title>
<polygon fill="none" stroke="black" points="1103,-64 987,-64 987,-28 1103,-28 1103,-64"/>
<text text-anchor="middle" x="1045" y="-42.9" font-family="Times,serif" font-size="12.00">Mark as Not OK</text>
</g>
<!-- 140662933504304&#45;&gt;140662933506944 -->
<g id="edge8" class="edge">
<title>140662933504304&#45;&gt;140662933506944</title>
<path fill="none" stroke="black" d="M951.12,-46C958.77,-46 967.52,-46 976.51,-46"/>
<polygon fill="black" stroke="black" points="976.72,-49.5 986.72,-46 976.72,-42.5 976.72,-49.5"/>
</g>
<!-- 140662933510592 -->
<g id="node10" class="node">
<title>140662933510592</title>
<polygon fill="none" stroke="black" points="1166,-91 1139,-73 1166,-55 1193,-73 1166,-91"/>
<text text-anchor="middle" x="1166" y="-69.9" font-family="Times,serif" font-size="12.00">X</text>
</g>
<!-- 140662933508912&#45;&gt;140662933510592 -->
<g id="edge9" class="edge">
<title>140662933508912&#45;&gt;140662933510592</title>
<path fill="none" stroke="black" d="M1089.64,-90.1C1104.86,-86.65 1121.58,-82.85 1135.39,-79.72"/>
<polygon fill="black" stroke="black" points="1136.34,-83.09 1145.32,-77.47 1134.79,-76.27 1136.34,-83.09"/>
</g>
<!-- 140662933506944&#45;&gt;140662933510592 -->
<g id="edge10" class="edge">
<title>140662933506944&#45;&gt;140662933510592</title>
<path fill="none" stroke="black" d="M1103.06,-58.95C1114.27,-61.49 1125.6,-64.06 1135.45,-66.3"/>
<polygon fill="black" stroke="black" points="1134.96,-69.77 1145.48,-68.57 1136.51,-62.95 1134.96,-69.77"/>
</g>
<!-- 140662933508816 -->
<g id="node11" class="node">
<title>140662933508816</title>
<polygon fill="none" stroke="black" points="1256,-91 1229,-73 1256,-55 1283,-73 1256,-91"/>
<text text-anchor="middle" x="1256" y="-69.9" font-family="Times,serif" font-size="12.00">X</text>
</g>
<!-- 140662933510592&#45;&gt;140662933508816 -->
<g id="edge11" class="edge">
<title>140662933510592&#45;&gt;140662933508816</title>
<path fill="none" stroke="black" d="M1193.4,-73C1201.39,-73 1210.31,-73 1218.82,-73"/>
<polygon fill="black" stroke="black" points="1218.92,-76.5 1228.92,-73 1218.92,-69.5 1218.92,-76.5"/>
</g>
<!-- 140662933512512 -->
<g id="node12" class="node">
<title>140662933512512</title>
<polygon fill="none" stroke="black" points="1435,-118 1319,-118 1319,-82 1435,-82 1435,-118"/>
<text text-anchor="middle" x="1377" y="-96.9" font-family="Times,serif" font-size="12.00">Mark as Not OK</text>
</g>
<!-- 140662933508816&#45;&gt;140662933512512 -->
<g id="edge12" class="edge">
<title>140662933508816&#45;&gt;140662933512512</title>
<path fill="none" stroke="black" d="M1276.65,-77.46C1285.73,-79.52 1297.09,-82.1 1308.87,-84.77"/>
<polygon fill="black" stroke="black" points="1308.28,-88.22 1318.81,-87.02 1309.83,-81.4 1308.28,-88.22"/>
</g>
<!-- 140662936897376 -->
<g id="node14" class="node">
<title>140662936897376</title>
<ellipse fill="orange" stroke="black" cx="1377" cy="-46" rx="18" ry="18"/>
</g>
<!-- 140662933508816&#45;&gt;140662936897376 -->
<g id="edge13" class="edge">
<title>140662933508816&#45;&gt;140662936897376</title>
<path fill="none" stroke="black" d="M1276.65,-68.54C1296.51,-64.04 1327.32,-57.05 1349.36,-52.04"/>
<polygon fill="black" stroke="black" points="1350.42,-55.39 1359.39,-49.77 1348.87,-48.57 1350.42,-55.39"/>
</g>
<!-- 140662937032720 -->
<g id="node13" class="node">
<title>140662937032720</title>
<polygon fill="none" stroke="black" points="1692,-68 1471,-68 1471,-32 1692,-32 1692,-68"/>
<text text-anchor="middle" x="1581.5" y="-46.9" font-family="Times,serif" font-size="12.00">Write settlement recommendation</text>
</g>
<!-- 140662933512512&#45;&gt;140662937032720 -->
<g id="edge14" class="edge">
<title>140662933512512&#45;&gt;140662937032720</title>
<path fill="none" stroke="black" d="M1435.22,-85.87C1454.6,-81.09 1476.66,-75.64 1497.63,-70.46"/>
<polygon fill="black" stroke="black" points="1498.63,-73.82 1507.5,-68.02 1496.95,-67.02 1498.63,-73.82"/>
</g>
<!-- 140662937032720&#45;&gt;140662933506512 -->
<g id="edge15" class="edge">
<title>140662937032720&#45;&gt;140662933506512</title>
<path fill="none" stroke="black" d="M1506.48,-31.95C1441.23,-17.63 1343.38,0 1257,0 780,0 780,0 780,0 644.33,0 483.09,-13.48 414.97,-19.8"/>
<polygon fill="black" stroke="black" points="414.48,-16.33 404.86,-20.75 415.14,-23.3 414.48,-16.33"/>
</g>
</g>
</svg>
